<?xml version="1.0" encoding="UTF-8" standalone="no"?>
<svg
   width="121.976"
   height="121.976"
   viewBox="0 0 32.273 32.272819"
   version="1.1"
   id="svg12"
   sodipodi:docname="favicon.svg"
   inkscape:version="1.3.2 (091e20ef0f, 2023-11-25)"
   inkscape:export-filename="favicon_48.png"
   inkscape:export-xdpi="37.777924"
   inkscape:export-ydpi="37.777924"
   xmlns:inkscape="http://www.inkscape.org/namespaces/inkscape"
   xmlns:sodipodi="http://sodipodi.sourceforge.net/DTD/sodipodi-0.dtd"
   xmlns="http://www.w3.org/2000/svg"
   xmlns:svg="http://www.w3.org/2000/svg">
  <sodipodi:namedview
     id="namedview12"
     pagecolor="#ffffff"
     bordercolor="#000000"
     borderopacity="0.25"
     inkscape:showpageshadow="2"
     inkscape:pageopacity="0.0"
     inkscape:pagecheckerboard="0"
     inkscape:deskcolor="#d1d1d1"
     inkscape:zoom="5.8666629"
     inkscape:cx="73.295502"
     inkscape:cy="61.53413"
     inkscape:window-width="2413"
     inkscape:window-height="1120"
     inkscape:window-x="0"
     inkscape:window-y="0"
     inkscape:window-maximized="0"
     inkscape:current-layer="svg12" />
  <defs
     id="defs4">
    <marker
       style="overflow:visible"
       id="c"
       refX="0"
       refY="0"
       orient="auto-start-reverse"
       markerWidth="6.1350002"
       markerHeight="5.9299998"
       viewBox="0 0 6.135 5.93"
       preserveAspectRatio="xMidYMid">
      <path
         transform="scale(0.7)"
         d="m -0.211,-4.106 6.421,3.212 a 1,1 90 0 1 0,1.788 L -0.21,4.106 A 1.236,1.236 31.717 0 1 -2,3 v -6 a 1.236,1.236 148.283 0 1 1.789,-1.106 z"
         style="fill:#cb3c33;fill-rule:evenodd;stroke:none"
         id="path1" />
    </marker>
    <marker
       style="overflow:visible"
       id="d"
       refX="0"
       refY="0"
       orient="auto-start-reverse"
       markerWidth="6.1350002"
       markerHeight="5.9299998"
       viewBox="0 0 6.135 5.93"
       preserveAspectRatio="xMidYMid">
      <path
         transform="scale(0.7)"
         d="m -0.211,-4.106 6.421,3.212 a 1,1 90 0 1 0,1.788 L -0.21,4.106 A 1.236,1.236 31.717 0 1 -2,3 v -6 a 1.236,1.236 148.283 0 1 1.789,-1.106 z"
         style="fill:#389826;fill-rule:evenodd;stroke:none"
         id="path2" />
    </marker>
    <marker
       style="overflow:visible"
       id="a"
       refX="0"
       refY="0"
       orient="auto-start-reverse"
       markerWidth="6.1350002"
       markerHeight="5.9299998"
       viewBox="0 0 6.135 5.93"
       preserveAspectRatio="xMidYMid">
      <path
         transform="scale(0.7)"
         d="m -0.211,-4.106 6.421,3.212 a 1,1 90 0 1 0,1.788 L -0.21,4.106 A 1.236,1.236 31.717 0 1 -2,3 v -6 a 1.236,1.236 148.283 0 1 1.789,-1.106 z"
         style="fill:#4063d8;fill-rule:evenodd;stroke:none"
         id="path3" />
    </marker>
    <marker
       style="overflow:visible"
       id="b"
       refX="0"
       refY="0"
       orient="auto-start-reverse"
       markerWidth="6.1350002"
       markerHeight="5.9299998"
       viewBox="0 0 6.135 5.93"
       preserveAspectRatio="xMidYMid">
      <path
         transform="scale(0.7)"
         d="m -0.211,-4.106 6.421,3.212 a 1,1 90 0 1 0,1.788 L -0.21,4.106 A 1.236,1.236 31.717 0 1 -2,3 v -6 a 1.236,1.236 148.283 0 1 1.789,-1.106 z"
         style="fill:#4063d8;fill-rule:evenodd;stroke:none"
         id="path4" />
    </marker>
  </defs>
  <path
     style="fill:none;stroke:#4063d8;stroke-width:1.58751;stroke-linecap:round;stroke-linejoin:miter;stroke-dasharray:none;stroke-opacity:1"
     d="M 11.468777,7.3459819 22.52262,7.3693485"
     id="path5"
     sodipodi:nodetypes="cc" />
  <path
     style="fill:none;stroke:#4063d8;stroke-width:1.58751;stroke-linecap:round;stroke-linejoin:miter;stroke-dasharray:none;stroke-opacity:1"
     d="m 9.49984,9.9050619 4.5257,5.0397201"
     id="path10"
     sodipodi:nodetypes="cc" />
  <path
     style="fill:none;stroke:#389826;stroke-width:1.58751;stroke-linecap:round;stroke-linejoin:miter;stroke-dasharray:none;stroke-opacity:1"
     d="m 20.479374,16.428972 4.14991,-4.76127"
     id="path12"
     sodipodi:nodetypes="cc" />
  <ellipse
     style="fill:#4063d8;fill-opacity:1;stroke:#4063d8;stroke-width:0.648643;stroke-linecap:round;stroke-linejoin:round;stroke-dasharray:none"
     cx="7.8518105"
     cy="7.3456411"
     rx="3.6169667"
     ry="3.6231959"
     id="ellipse5" />
  <ellipse
     style="fill:#9558b2;fill-opacity:1;stroke:#9558b2;stroke-width:0.648643;stroke-linecap:round;stroke-linejoin:round;stroke-dasharray:none"
     cx="28.331333"
     cy="7.3456411"
     rx="3.6169667"
     ry="3.6231959"
     id="ellipse6" />
  <path
     style="fill:none;stroke:#cb3c33;stroke-width:1.58751;stroke-linecap:round;stroke-linejoin:miter;stroke-dasharray:none;stroke-opacity:1"
     d="m 7.945176,22.290232 4.858316,-1.72451"
     id="path11"
     sodipodi:nodetypes="cc" />
  <ellipse
     style="fill:#cb3c33;fill-opacity:1;stroke:#cb3c33;stroke-width:0.706181;stroke-linecap:round;stroke-linejoin:round;stroke-dasharray:none"
     cx="4.2906384"
     cy="23.551668"
     rx="3.9381058"
     ry="3.9443347"
     id="ellipse7" />
  <ellipse
     style="fill:#389826;fill-opacity:1;stroke:#389826;stroke-width:0.648643;stroke-linecap:round;stroke-linejoin:round;stroke-dasharray:none"
     cx="18.058723"
     cy="18.807907"
     rx="3.6169667"
     ry="3.6231959"
     id="ellipse8" />
</svg>
