<?xml version="1.0" encoding="UTF-8" standalone="no"?>
<!-- Created with Inkscape (http://www.inkscape.org/) -->

<svg
   width="131.25139mm"
   height="50.290184mm"
   viewBox="0 0 131.25139 50.290184"
   version="1.1"
   id="svg11844"
   inkscape:version="1.3.2 (091e20ef0f, 2023-11-25)"
   sodipodi:docname="join-point-model.svg"
   xmlns:inkscape="http://www.inkscape.org/namespaces/inkscape"
   xmlns:sodipodi="http://sodipodi.sourceforge.net/DTD/sodipodi-0.dtd"
   xmlns:xlink="http://www.w3.org/1999/xlink"
   xmlns="http://www.w3.org/2000/svg"
   xmlns:svg="http://www.w3.org/2000/svg">
  <sodipodi:namedview
     id="namedview11846"
     pagecolor="#ffffff"
     bordercolor="#999999"
     borderopacity="1"
     inkscape:showpageshadow="0"
     inkscape:pageopacity="0"
     inkscape:pagecheckerboard="0"
     inkscape:deskcolor="#d1d1d1"
     inkscape:document-units="mm"
     showgrid="true"
     inkscape:zoom="1.1086736"
     inkscape:cx="528.55955"
     inkscape:cy="54.118725"
     inkscape:window-width="2383"
     inkscape:window-height="1378"
     inkscape:window-x="0"
     inkscape:window-y="0"
     inkscape:window-maximized="0"
     inkscape:current-layer="layer1">
    <inkscape:grid
       type="xygrid"
       id="grid11972"
       visible="true"
       originx="-3.748611"
       originy="-22.427759"
       spacingy="1"
       spacingx="1"
       units="mm" />
  </sodipodi:namedview>
  <defs
     id="defs11841">
    <marker
       style="overflow:visible"
       id="marker16603"
       refX="0"
       refY="0"
       orient="auto-start-reverse"
       inkscape:stockid="RoundedArrow"
       markerWidth="8.1350002"
       markerHeight="7.8641448"
       viewBox="0 0 6.1347524 5.9304951"
       inkscape:isstock="true"
       inkscape:collect="always"
       preserveAspectRatio="xMidYMid">
      <path
         transform="scale(0.7)"
         d="m -0.21114562,-4.1055728 6.42229122,3.21114561 a 1,1 90 0 1 0,1.78885438 L -0.21114562,4.1055728 A 1.236068,1.236068 31.717474 0 1 -2,3 v -6 a 1.236068,1.236068 148.28253 0 1 1.78885438,-1.1055728 z"
         style="fill:context-stroke;fill-rule:evenodd;stroke:none"
         id="path16601" />
    </marker>
    <marker
       style="overflow:visible"
       id="RoundedArrow"
       refX="0"
       refY="0"
       orient="auto-start-reverse"
       inkscape:stockid="RoundedArrow"
       markerWidth="6.1347523"
       markerHeight="5.9304953"
       viewBox="0 0 6.1347524 5.9304951"
       inkscape:isstock="true"
       inkscape:collect="always"
       preserveAspectRatio="xMidYMid">
      <path
         transform="scale(0.7)"
         d="m -0.21114562,-4.1055728 6.42229122,3.21114561 a 1,1 90 0 1 0,1.78885438 L -0.21114562,4.1055728 A 1.236068,1.236068 31.717474 0 1 -2,3 v -6 a 1.236068,1.236068 148.28253 0 1 1.78885438,-1.1055728 z"
         style="fill:context-stroke;fill-rule:evenodd;stroke:none"
         id="path1367" />
    </marker>
    <linearGradient
       inkscape:collect="always"
       id="linearGradient14143">
      <stop
         style="stop-color:#000000;stop-opacity:0;"
         offset="0"
         id="stop14139" />
      <stop
         style="stop-color:#000000;stop-opacity:1;"
         offset="0.11904763"
         id="stop14175" />
      <stop
         style="stop-color:#000000;stop-opacity:1;"
         offset="0.89285713"
         id="stop14177" />
      <stop
         style="stop-color:#000000;stop-opacity:0;"
         offset="1"
         id="stop14141" />
    </linearGradient>
    <linearGradient
       inkscape:collect="always"
       xlink:href="#linearGradient14143"
       id="linearGradient14145"
       x1="17.065414"
       y1="33.072918"
       x2="17.065414"
       y2="99.21875"
       gradientUnits="userSpaceOnUse"
       gradientTransform="matrix(0.65436705,0,0,0.65436705,-3.1194267,6.9267885)" />
    <marker
       style="overflow:visible"
       id="RoundedArrow-6"
       refX="0"
       refY="0"
       orient="auto-start-reverse"
       inkscape:stockid="RoundedArrow"
       markerWidth="6.1347523"
       markerHeight="5.9304953"
       viewBox="0 0 6.1347524 5.9304951"
       inkscape:isstock="true"
       inkscape:collect="always"
       preserveAspectRatio="xMidYMid">
      <path
         transform="scale(0.7)"
         d="m -0.21114562,-4.1055728 6.42229122,3.21114561 a 1,1 90 0 1 0,1.78885438 L -0.21114562,4.1055728 A 1.236068,1.236068 31.717474 0 1 -2,3 v -6 a 1.236068,1.236068 148.28253 0 1 1.78885438,-1.1055728 z"
         style="fill:context-stroke;fill-rule:evenodd;stroke:none"
         id="path1367-9" />
    </marker>
    <marker
       style="overflow:visible"
       id="RoundedArrow-6-7"
       refX="0"
       refY="0"
       orient="auto-start-reverse"
       inkscape:stockid="RoundedArrow"
       markerWidth="6.1347523"
       markerHeight="5.9304953"
       viewBox="0 0 6.1347524 5.9304951"
       inkscape:isstock="true"
       inkscape:collect="always"
       preserveAspectRatio="xMidYMid">
      <path
         transform="scale(0.7)"
         d="m -0.21114562,-4.1055728 6.42229122,3.21114561 a 1,1 90 0 1 0,1.78885438 L -0.21114562,4.1055728 A 1.236068,1.236068 31.717474 0 1 -2,3 v -6 a 1.236068,1.236068 148.28253 0 1 1.78885438,-1.1055728 z"
         style="fill:context-stroke;fill-rule:evenodd;stroke:none"
         id="path1367-9-5" />
    </marker>
    <marker
       style="overflow:visible"
       id="RoundedArrow-6-7-4"
       refX="0"
       refY="0"
       orient="auto-start-reverse"
       inkscape:stockid="RoundedArrow"
       markerWidth="6.1347523"
       markerHeight="5.9304953"
       viewBox="0 0 6.1347524 5.9304951"
       inkscape:isstock="true"
       inkscape:collect="always"
       preserveAspectRatio="xMidYMid">
      <path
         transform="scale(0.7)"
         d="m -0.21114562,-4.1055728 6.42229122,3.21114561 a 1,1 90 0 1 0,1.78885438 L -0.21114562,4.1055728 A 1.236068,1.236068 31.717474 0 1 -2,3 v -6 a 1.236068,1.236068 148.28253 0 1 1.78885438,-1.1055728 z"
         style="fill:context-stroke;fill-rule:evenodd;stroke:none"
         id="path1367-9-5-3" />
    </marker>
  </defs>
  <g
     inkscape:label="Layer 1"
     inkscape:groupmode="layer"
     id="layer1"
     transform="translate(-3.7486107,-22.427757)">
    <rect
       style="opacity:1;fill:#d7eada;fill-opacity:1;fill-rule:evenodd;stroke:#389826;stroke-width:0.435154;stroke-linecap:round;stroke-linejoin:round;stroke-dasharray:none;stroke-dashoffset:1.51181"
       id="rect14519"
       width="24.238844"
       height="6.0597119"
       x="39.385254"
       y="34.282051"
       rx="1.7313453"
       ry="1.7313453" />
    <rect
       style="fill:#61ac6b;fill-opacity:1;fill-rule:evenodd;stroke:#389826;stroke-width:0.435154;stroke-linecap:round;stroke-linejoin:round;stroke-dasharray:none;stroke-dashoffset:1.51181"
       id="rect14519-7"
       width="27.701546"
       height="6.9253836"
       x="104.31073"
       y="35.840267"
       rx="3.4626918"
       ry="3.4626918" />
    <rect
       style="fill:#61ac6b;fill-opacity:1;fill-rule:evenodd;stroke:#389826;stroke-width:0.435154;stroke-linecap:round;stroke-linejoin:round;stroke-dasharray:none;stroke-dashoffset:1.51181"
       id="rect14519-7-0"
       width="27.701546"
       height="6.9253836"
       x="104.31073"
       y="56.789547"
       rx="3.4626918"
       ry="3.4626918" />
    <rect
       style="fill:#a87ab5;fill-opacity:1;fill-rule:evenodd;stroke:#9558b2;stroke-width:0.435154;stroke-linecap:round;stroke-linejoin:round;stroke-dasharray:none;stroke-dashoffset:1.51181"
       id="rect14519-7-3"
       width="27.701546"
       height="6.9253836"
       x="104.31073"
       y="25.971592"
       rx="3.4626918"
       ry="3.4626918" />
    <rect
       style="fill:#5c7add;fill-opacity:1;fill-rule:evenodd;stroke:#4063d8;stroke-width:0.435154;stroke-linecap:round;stroke-linejoin:round;stroke-dasharray:none;stroke-dashoffset:1.51181"
       id="rect14519-7-3-4"
       width="27.701546"
       height="6.9253836"
       x="104.31073"
       y="46.747749"
       rx="3.4626918"
       ry="3.4626918" />
    <rect
       style="fill:#d2e6ff;fill-opacity:1;fill-rule:evenodd;stroke:#4063d8;stroke-width:0.435154;stroke-linecap:round;stroke-linejoin:round;stroke-dasharray:none;stroke-dashoffset:1.51181"
       id="rect14519-2"
       width="24.238844"
       height="6.0597119"
       x="39.385254"
       y="46.747749"
       rx="1.7313453"
       ry="1.7313453" />
    <rect
       style="fill:#e9deed;fill-opacity:1;fill-rule:evenodd;stroke:#9558b2;stroke-width:0.435154;stroke-linecap:round;stroke-linejoin:round;stroke-dasharray:none;stroke-dashoffset:1.51181"
       id="rect14519-2-4"
       width="30.9911"
       height="6.0597095"
       x="39.558388"
       y="58.520897"
       rx="1.7313453"
       ry="1.7313453" />
    <g
       id="text11976"
       style="font-size:6.35px;line-height:1.25;font-family:'IBM Plex Sans';-inkscape-font-specification:'IBM Plex Sans,  weight=450';stroke-width:0.264583"
       aria-label="@advise adv f(x::Int)"
       transform="matrix(0.65436702,0,0,0.65436702,1.2956435,7.7412161)">
      <path
         style="font-style:italic;font-weight:bold;font-family:'Source Code Pro';-inkscape-font-specification:'Source Code Pro, Medium';fill:#583562"
         d="m 15.648472,47.993295 c 0.4318,0 0.8001,-0.12065 1.09855,-0.34925 l -0.254,-0.45085 c -0.2286,0.17145 -0.45085,0.2667 -0.74295,0.2667 -0.62865,0 -1.1684,-0.48895 -1.1684,-1.44145 0,-1.61925 0.9017,-2.5273 1.6891,-2.5273 0.5588,0 0.7239,0.31115 0.7239,0.7366 0,0.0889 -0.0127,0.1905 -0.0508,0.33655 -1.25095,0.1397 -1.80975,0.5207 -1.80975,1.2573 0,0.42545 0.3175,0.67945 0.69215,0.67945 0.3556,0 0.5969,-0.1524 0.81915,-0.40005 h 0.0254 l -0.0064,0.32385 h 0.46355 l 0.3683,-1.8542 c 0.0254,-0.14605 0.0508,-0.28575 0.0508,-0.4191 0,-0.71755 -0.37465,-1.17475 -1.2065,-1.17475 -1.2446,0 -2.3876,1.12395 -2.3876,3.1115 0,1.26365 0.762,1.905 1.69545,1.905 z m 0.43815,-2.032 c -0.1778,0 -0.3048,-0.1016 -0.3048,-0.28575 0,-0.3175 0.2413,-0.5334 1.016,-0.6477 l -0.1397,0.67945 c -0.19685,0.1651 -0.38735,0.254 -0.5715,0.254 z"
         id="path17" />
      <path
         style="font-style:italic;font-weight:500;font-family:'Source Code Pro';-inkscape-font-specification:'Source Code Pro, Medium';fill:#583562"
         d="m 19.033024,47.136045 c 0.38735,0 0.7874,-0.20955 1.1049,-0.5334 h 0.0254 l -0.0381,0.4572 h 0.47625 l 0.6223,-3.10515 h -0.4699 l -0.127,0.381 h -0.0254 c -0.1651,-0.2794 -0.48895,-0.4572 -0.92075,-0.4572 -0.93345,0 -1.69545,0.94615 -1.69545,2.06375 0,0.7747 0.41275,1.1938 1.04775,1.1938 z m 0.19685,-0.48895 c -0.3937,0 -0.64135,-0.2413 -0.64135,-0.7874 0,-0.79375 0.5207,-1.49225 1.17475,-1.49225 0.26035,0 0.5334,0.12065 0.7239,0.4191 l -0.27305,1.2954 c -0.31115,0.37465 -0.67945,0.56515 -0.98425,0.56515 z m 3.613153,0.48895 c 0.38735,0 0.7874,-0.20955 1.1049,-0.5334 h 0.0254 l -0.0381,0.4572 h 0.47625 l 0.9144,-4.50215 h -0.59055 l -0.2286,1.1557 -0.09525,0.60325 h -0.01905 c -0.17145,-0.2667 -0.4699,-0.43815 -0.9017,-0.43815 -0.93345,0 -1.69545,0.94615 -1.69545,2.06375 0,0.7747 0.41275,1.1938 1.04775,1.1938 z m 0.19685,-0.48895 c -0.3937,0 -0.64135,-0.24765 -0.64135,-0.7874 0,-0.79375 0.5207,-1.49225 1.17475,-1.49225 0.26035,0 0.5334,0.12065 0.71755,0.4191 l -0.2667,1.2954 c -0.31115,0.37465 -0.67945,0.56515 -0.98425,0.56515 z m 3.454402,0.41275 h 0.6858 l 1.84785,-3.10515 h -0.59055 l -0.99695,1.7272 c -0.18415,0.3175 -0.36195,0.635 -0.508,0.9271 h -0.0254 c -0.0508,-0.29845 -0.09525,-0.61595 -0.15875,-0.92075 l -0.3429,-1.73355 h -0.57785 z m 4.813302,0.0762 c 0.34925,0 0.60325,-0.0762 0.86995,-0.19685 l -0.13335,-0.4445 c -0.2159,0.09525 -0.381,0.1524 -0.56515,0.1524 -0.2667,0 -0.45085,-0.12065 -0.45085,-0.4318 0,-0.05715 0.0127,-0.12065 0.0254,-0.1905 l 0.46355,-2.0701 h -1.6891 l -0.09525,0.4699 h 1.1049 l -0.3556,1.55575 c -0.03175,0.127 -0.0508,0.2413 -0.0508,0.34925 0,0.5207 0.3556,0.80645 0.8763,0.80645 z m -0.01905,-3.79095 c 0.2667,0 0.48895,-0.2159 0.48895,-0.4826 0,-0.2413 -0.1651,-0.381 -0.41275,-0.381 -0.2667,0 -0.48895,0.22225 -0.48895,0.4826 0,0.24765 0.18415,0.381 0.41275,0.381 z m 3.340102,3.79095 c 0.74295,0 1.3335,-0.2794 1.3335,-0.95885 0,-0.50165 -0.3937,-0.71755 -0.9652,-0.9144 -0.4953,-0.1651 -0.7366,-0.28575 -0.7366,-0.53975 0,-0.24765 0.22225,-0.3937 0.5842,-0.3937 0.4318,0 0.78105,0.19685 1.03505,0.41275 l 0.32385,-0.3556 c -0.2667,-0.2667 -0.6985,-0.508 -1.2954,-0.508 -0.65405,0 -1.20015,0.3048 -1.20015,0.9144 0,0.43815 0.29845,0.70485 0.9398,0.92075 0.50165,0.1651 0.762,0.27305 0.762,0.53975 0,0.29845 -0.2794,0.4318 -0.67945,0.4318 -0.42545,0 -0.8509,-0.1524 -1.1557,-0.48895 l -0.3302,0.3683 c 0.3048,0.34925 0.83185,0.5715 1.3843,0.5715 z m 4.229103,-2.794 c 0.4191,0 0.67945,0.2667 0.67945,0.71755 0,0.05715 -0.0063,0.1143 -0.0127,0.17145 h -1.75895 c 0.1905,-0.5588 0.6604,-0.889 1.0922,-0.889 z m -0.4191,2.794 c 0.5461,0 1.03505,-0.19685 1.3589,-0.45085 l -0.20955,-0.3937 c -0.28575,0.22225 -0.62865,0.38735 -1.02235,0.38735 -0.5207,0 -0.88265,-0.31115 -0.88265,-0.92075 0,-0.03175 0,-0.0635 0,-0.09525 h 2.3114 c 0.03175,-0.0889 0.0889,-0.3556 0.0889,-0.5842 0,-0.69215 -0.4318,-1.20015 -1.20015,-1.20015 -0.94615,0 -1.778,0.7874 -1.778,1.905 0,0.889 0.5334,1.35255 1.3335,1.35255 z"
         id="path18" />
      <path
         style="font-weight:500;font-family:'Source Code Pro';-inkscape-font-specification:'Source Code Pro, Medium';fill:#cb3c33"
         d="m 45.880841,47.136045 c 0.42545,0 0.85725,-0.22225 1.18745,-0.47625 h 0.01905 l 0.0508,0.40005 h 0.51435 v -1.8669 c 0,-0.81915 -0.43815,-1.31445 -1.2954,-1.31445 -0.53975,0 -1.0541,0.2286 -1.397,0.43815 l 0.23495,0.42545 c 0.3048,-0.1778 0.6731,-0.34925 1.0541,-0.34925 0.55245,0 0.75565,0.31115 0.7747,0.69215 -1.5621,0.12065 -2.19075,0.4572 -2.19075,1.1557 0,0.5461 0.45085,0.89535 1.04775,0.89535 z m 0.1778,-0.50165 c -0.33655,0 -0.61595,-0.127 -0.61595,-0.43815 0,-0.37465 0.36195,-0.61595 1.58115,-0.7112 v 0.7366 c -0.3175,0.26035 -0.635,0.41275 -0.9652,0.41275 z m 3.797301,0.50165 c 0.3683,0 0.7239,-0.20955 0.97155,-0.4572 h 0.01905 l 0.0508,0.381 h 0.51435 v -4.50215 h -0.62865 v 1.1557 l 0.03175,0.55245 h -0.01905 c -0.254,-0.24765 -0.52705,-0.38735 -0.889,-0.38735 -0.71755,0 -1.39065,0.6223 -1.39065,1.63195 0,1.0287 0.5334,1.6256 1.33985,1.6256 z m 0.14605,-0.5207 c -0.52705,0 -0.8382,-0.40005 -0.8382,-1.11125 0,-0.6731 0.40005,-1.09855 0.88265,-1.09855 0.24765,0 0.48895,0.08255 0.7366,0.3175 v 1.4732 c -0.2413,0.2794 -0.50165,0.4191 -0.78105,0.4191 z m 3.530601,0.4445 h 0.7112 l 1.2446,-3.10515 h -0.60325 l -0.65405,1.6891 c -0.12065,0.31115 -0.2159,0.61595 -0.32385,0.92075 h -0.0254 c -0.10795,-0.3048 -0.20955,-0.6096 -0.3302,-0.92075 l -0.65405,-1.6891 h -0.635 z"
         id="path19" />
      <path
         style="font-weight:500;font-family:'Source Code Pro';-inkscape-font-specification:'Source Code Pro, Medium'"
         d="m 61.08275,47.059845 h 0.6223 v -2.59715 h 1.23825 v -0.508 h -1.23825 v -0.2286 c 0,-0.4699 0.2159,-0.74295 0.73025,-0.74295 0.26035,0 0.46355,0.0381 0.6985,0.1397 l 0.1397,-0.46355 c -0.28575,-0.1143 -0.59055,-0.1778 -0.90805,-0.1778 -0.88265,0 -1.2827,0.51435 -1.2827,1.2573 v 0.2159 l -0.86995,0.03175 v 0.47625 h 0.86995 z m 4.997451,1.1176 0.34925,-0.29845 c -0.8255,-0.7239 -1.2065,-1.5367 -1.2065,-2.58445 0,-1.04775 0.381,-1.86055 1.2065,-2.58445 l -0.34925,-0.29845 c -0.86995,0.69215 -1.40335,1.6637 -1.40335,2.8829 0,1.2192 0.5334,2.19075 1.40335,2.8829 z"
         id="path20" />
      <path
         style="font-weight:500;font-family:'Source Code Pro';-inkscape-font-specification:'Source Code Pro, Medium';fill:#808080"
         d="m 67.572456,47.059845 h 0.66675 l 0.4572,-0.6604 c 0.12065,-0.1905 0.2413,-0.37465 0.3556,-0.5588 h 0.0254 c 0.13335,0.1778 0.27305,0.381 0.3937,0.5588 l 0.4953,0.6604 h 0.6858 l -1.1557,-1.5494 1.0795,-1.55575 h -0.66675 l -0.41275,0.62865 c -0.1016,0.17145 -0.22225,0.36195 -0.3302,0.5334 h -0.0254 c -0.1143,-0.17145 -0.2413,-0.3556 -0.34925,-0.52705 l -0.45085,-0.635 h -0.6858 l 1.07315,1.49225 z"
         id="path21" />
      <path
         style="font-style:italic;font-weight:500;font-family:'Source Code Pro';-inkscape-font-specification:'Source Code Pro, Medium'"
         d="m 72.976308,44.919895 c 0.3556,0 0.62865,-0.3048 0.62865,-0.65405 0,-0.2794 -0.1778,-0.47625 -0.4445,-0.47625 -0.36195,0 -0.62865,0.3048 -0.62865,0.65405 0,0.27305 0.17145,0.47625 0.4445,0.47625 z m -0.4318,2.21615 c 0.3556,0 0.62865,-0.3048 0.62865,-0.65405 0,-0.2794 -0.1778,-0.47625 -0.4445,-0.47625 -0.36195,0 -0.62865,0.3048 -0.62865,0.65405 0,0.27305 0.17145,0.47625 0.4445,0.47625 z m 4.241801,-2.21615 c 0.3556,0 0.62865,-0.3048 0.62865,-0.65405 0,-0.2794 -0.1778,-0.47625 -0.4445,-0.47625 -0.36195,0 -0.62865,0.3048 -0.62865,0.65405 0,0.27305 0.17145,0.47625 0.4445,0.47625 z m -0.4318,2.21615 c 0.3556,0 0.62865,-0.3048 0.62865,-0.65405 0,-0.2794 -0.1778,-0.47625 -0.4445,-0.47625 -0.36195,0 -0.62865,0.3048 -0.62865,0.65405 0,0.27305 0.17145,0.47625 0.4445,0.47625 z"
         id="path22" />
      <path
         style="font-style:italic;font-weight:600;font-family:'Source Code Pro';-inkscape-font-specification:'Source Code Pro, Semi-Bold Italic'"
         d="m 78.799264,47.059845 h 2.6924 l 0.12065,-0.57785 h -1.00965 l 0.60325,-2.9972 h 1.00965 l 0.12065,-0.57785 h -2.69875 l -0.12065,0.57785 h 1.0033 l -0.60325,2.9972 h -0.99695 z m 3.816348,0 h 0.67945 l 0.38735,-1.9558 c 0.3556,-0.4191 0.7366,-0.65405 1.07315,-0.65405 0.26035,0 0.4064,0.13335 0.4064,0.3937 0,0.1143 -0.01905,0.23495 -0.0508,0.381 l -0.3683,1.83515 h 0.67945 l 0.381,-1.9177 c 0.0381,-0.1651 0.05715,-0.32385 0.05715,-0.48895 0,-0.4953 -0.2667,-0.7874 -0.80645,-0.7874 -0.4953,0 -0.95885,0.32385 -1.30175,0.6604 h -0.0254 l 0.05715,-0.5842 h -0.55245 z m 5.600705,0.0762 c 0.4572,0 0.88265,-0.127 1.1557,-0.3048 l -0.20955,-0.4826 c -0.2032,0.12065 -0.46355,0.2286 -0.7493,0.2286 -0.3048,0 -0.51435,-0.15875 -0.51435,-0.51435 0,-0.0762 0.0064,-0.14605 0.03175,-0.26035 l 0.2794,-1.3208 h 1.4351 l 0.10795,-0.53975 h -1.42875 l 0.2032,-0.9779 h -0.5588 l -0.29845,0.9779 -0.89535,0.03175 -0.1016,0.508 h 0.8636 l -0.27305,1.32715 c -0.03175,0.15875 -0.0508,0.2794 -0.0508,0.41275 0,0.5461 0.3048,0.9144 1.0033,0.9144 z"
         id="path23" />
      <path
         style="font-weight:500;font-family:'Source Code Pro';-inkscape-font-specification:'Source Code Pro, Medium'"
         d="m 91.200815,48.177445 c 0.86995,-0.69215 1.40335,-1.6637 1.40335,-2.8829 0,-1.2192 -0.5334,-2.19075 -1.40335,-2.8829 l -0.34925,0.29845 c 0.8255,0.7239 1.2065,1.5367 1.2065,2.58445 0,1.04775 -0.381,1.86055 -1.2065,2.58445 z"
         id="path24" />
    </g>
    <path
       d="M 5.2274137,38.615498 V 38.172736 H 5.5538302 V 37.946505 H 5.2274137 V 36.359669 H 4.8234328 l -0.9436992,1.573909 v 0.239158 h 1.0891323 v 0.442762 z m -0.2747071,-2.04576 h 0.016159 v 1.376767 H 4.1350495 Z m 2.2138164,2.04576 V 38.172736 H 7.4929395 V 37.946505 H 7.166523 V 36.359669 H 6.7625422 l -0.9436993,1.573909 v 0.239158 h 1.0891324 v 0.442762 z m -0.274707,-2.04576 h 0.016159 v 1.376767 H 6.0741588 Z"
       id="text11976-01"
       style="font-size:4.93889px;line-height:1.25;font-family:'IBM Plex Sans';-inkscape-font-specification:'IBM Plex Sans, Normal';opacity:0.4;stroke-width:0.173134"
       aria-label="44" />
    <path
       d="M 5.0962908,51.07611 V 50.633348 H 5.4227073 V 50.40712 H 5.0962908 V 48.820282 H 4.69231 l -0.9436993,1.573909 v 0.239157 H 4.837743 v 0.442762 z m -0.274707,-2.045757 h 0.016159 V 50.40712 H 4.0039265 Z m 1.7128801,2.084541 c 0.5138636,0 0.7821068,-0.281172 0.7821068,-0.652834 0,-0.307025 -0.1842153,-0.484776 -0.4556904,-0.559109 v -0.02585 c 0.2359249,-0.08079 0.3878217,-0.271475 0.3878217,-0.530023 0,-0.342574 -0.2650115,-0.565573 -0.7142381,-0.565573 -0.4492266,0 -0.7142382,0.222999 -0.7142382,0.565573 0,0.258548 0.1518968,0.449228 0.3878216,0.530023 v 0.02585 c -0.2714751,0.07433 -0.4556903,0.252084 -0.4556903,0.559109 0,0.371662 0.2682432,0.652834 0.7821069,0.652834 z m 0,-0.235925 c -0.3134892,0 -0.4944726,-0.148665 -0.4944726,-0.403981 v -0.06787 c 0,-0.255317 0.1809834,-0.403981 0.4944726,-0.403981 0.3134891,0 0.4944725,0.148664 0.4944725,0.403981 v 0.06787 c 0,0.255316 -0.1809834,0.403981 -0.4944725,0.403981 z m 0,-1.10206 c -0.2811707,0 -0.4330675,-0.126042 -0.4330675,-0.355504 v -0.04847 c 0,-0.22946 0.1518968,-0.355503 0.4330675,-0.355503 0.2811707,0 0.4330674,0.126043 0.4330674,0.355503 v 0.04847 c 0,0.229462 -0.1518967,0.355504 -0.4330674,0.355504 z"
       id="text11976-01-0"
       style="font-size:4.93889px;line-height:1.25;font-family:'IBM Plex Sans';-inkscape-font-specification:'IBM Plex Sans, Normal';opacity:0.4;stroke-width:0.173134"
       aria-label="48" />
    <path
       d="m 4.7297092,63.234318 c 0.4524585,0 0.7497884,-0.303793 0.7497884,-0.746557 0,-0.426603 -0.2779386,-0.694847 -0.6657603,-0.694847 -0.274707,0 -0.4362994,0.138969 -0.5429501,0.323184 l -0.016159,-0.0065 c 0.1228097,-0.523542 0.391053,-0.817641 0.8725981,-1.169912 h -0.349039 c -0.3619669,0.235925 -0.8047298,0.759484 -0.8047298,1.428477 0,0.536487 0.2876344,0.866134 0.756252,0.866134 z m -0.00324,-0.235925 c -0.2973299,0 -0.4718497,-0.171289 -0.4718497,-0.475081 v -0.02585 c 0,-0.303793 0.1745198,-0.475081 0.4718497,-0.475081 0.29733,0 0.4718496,0.171288 0.4718496,0.475081 v 0.02585 c 0,0.303792 -0.1745196,0.475081 -0.4718496,0.475081 z m 1.8259955,0.197142 0.8467438,-2.016672 V 60.939706 H 5.9190302 v 0.652833 h 0.2423885 v -0.42014 h 0.9630902 l -0.862903,2.023136 z"
       id="text11976-01-0-3"
       style="font-size:4.93889px;line-height:1.25;font-family:'IBM Plex Sans';-inkscape-font-specification:'IBM Plex Sans, Normal';opacity:0.4;stroke-width:0.173134"
       aria-label="67" />
    <g
       id="text11976-5"
       style="font-size:6.35px;line-height:1.25;font-family:'IBM Plex Sans';-inkscape-font-specification:'IBM Plex Sans,  weight=450';stroke-width:0.264583"
       aria-label="@advise adv f(y::String)"
       transform="matrix(0.65436702,0,0,0.65436702,1.2956435,7.7412161)">
      <path
         style="font-style:italic;font-weight:bold;font-family:'Source Code Pro';-inkscape-font-specification:'Source Code Pro, Medium';fill:#583562"
         d="m 15.648472,85.034951 c 0.4318,0 0.8001,-0.12065 1.09855,-0.34925 l -0.254,-0.45085 c -0.2286,0.17145 -0.45085,0.2667 -0.74295,0.2667 -0.62865,0 -1.1684,-0.48895 -1.1684,-1.44145 0,-1.619249 0.9017,-2.527299 1.6891,-2.527299 0.5588,0 0.7239,0.31115 0.7239,0.7366 0,0.0889 -0.0127,0.1905 -0.0508,0.33655 -1.25095,0.1397 -1.80975,0.520699 -1.80975,1.257299 0,0.42545 0.3175,0.67945 0.69215,0.67945 0.3556,0 0.5969,-0.1524 0.81915,-0.40005 h 0.0254 l -0.0064,0.32385 h 0.46355 l 0.3683,-1.854199 c 0.0254,-0.14605 0.0508,-0.28575 0.0508,-0.4191 0,-0.71755 -0.37465,-1.17475 -1.2065,-1.17475 -1.2446,0 -2.3876,1.12395 -2.3876,3.111499 0,1.26365 0.762,1.905 1.69545,1.905 z m 0.43815,-2.032 c -0.1778,0 -0.3048,-0.1016 -0.3048,-0.28575 0,-0.3175 0.2413,-0.5334 1.016,-0.6477 l -0.1397,0.67945 c -0.19685,0.1651 -0.38735,0.254 -0.5715,0.254 z"
         id="path1" />
      <path
         style="font-style:italic;font-weight:500;font-family:'Source Code Pro';-inkscape-font-specification:'Source Code Pro, Medium';fill:#583562"
         d="m 19.033024,84.177701 c 0.38735,0 0.7874,-0.20955 1.1049,-0.5334 h 0.0254 l -0.0381,0.4572 h 0.47625 l 0.6223,-3.105149 h -0.4699 l -0.127,0.381 h -0.0254 c -0.1651,-0.2794 -0.48895,-0.4572 -0.92075,-0.4572 -0.93345,0 -1.69545,0.946149 -1.69545,2.063749 0,0.7747 0.41275,1.1938 1.04775,1.1938 z m 0.19685,-0.48895 c -0.3937,0 -0.64135,-0.2413 -0.64135,-0.7874 0,-0.79375 0.5207,-1.492249 1.17475,-1.492249 0.26035,0 0.5334,0.12065 0.7239,0.419099 l -0.27305,1.2954 c -0.31115,0.37465 -0.67945,0.56515 -0.98425,0.56515 z m 3.613153,0.48895 c 0.38735,0 0.7874,-0.20955 1.1049,-0.5334 h 0.0254 l -0.0381,0.4572 h 0.47625 l 0.9144,-4.502149 h -0.59055 l -0.2286,1.1557 -0.09525,0.60325 h -0.01905 c -0.17145,-0.2667 -0.4699,-0.43815 -0.9017,-0.43815 -0.93345,0 -1.69545,0.946149 -1.69545,2.063749 0,0.7747 0.41275,1.1938 1.04775,1.1938 z m 0.19685,-0.48895 c -0.3937,0 -0.64135,-0.24765 -0.64135,-0.7874 0,-0.79375 0.5207,-1.492249 1.17475,-1.492249 0.26035,0 0.5334,0.12065 0.71755,0.419099 l -0.2667,1.2954 c -0.31115,0.37465 -0.67945,0.56515 -0.98425,0.56515 z m 3.454402,0.41275 h 0.6858 l 1.84785,-3.105149 h -0.59055 l -0.99695,1.727199 c -0.18415,0.3175 -0.36195,0.635 -0.508,0.9271 h -0.0254 c -0.0508,-0.29845 -0.09525,-0.61595 -0.15875,-0.92075 l -0.3429,-1.733549 h -0.57785 z m 4.813302,0.0762 c 0.34925,0 0.60325,-0.0762 0.86995,-0.19685 l -0.13335,-0.4445 c -0.2159,0.09525 -0.381,0.1524 -0.56515,0.1524 -0.2667,0 -0.45085,-0.12065 -0.45085,-0.4318 0,-0.05715 0.0127,-0.12065 0.0254,-0.1905 l 0.46355,-2.070099 h -1.6891 l -0.09525,0.4699 h 1.1049 l -0.3556,1.555749 c -0.03175,0.127 -0.0508,0.2413 -0.0508,0.34925 0,0.5207 0.3556,0.80645 0.8763,0.80645 z m -0.01905,-3.790949 c 0.2667,0 0.48895,-0.2159 0.48895,-0.4826 0,-0.2413 -0.1651,-0.381 -0.41275,-0.381 -0.2667,0 -0.48895,0.22225 -0.48895,0.4826 0,0.24765 0.18415,0.381 0.41275,0.381 z m 3.340102,3.790949 c 0.74295,0 1.3335,-0.2794 1.3335,-0.95885 0,-0.50165 -0.3937,-0.71755 -0.9652,-0.9144 -0.4953,-0.1651 -0.7366,-0.28575 -0.7366,-0.53975 0,-0.247649 0.22225,-0.393699 0.5842,-0.393699 0.4318,0 0.78105,0.19685 1.03505,0.412749 l 0.32385,-0.355599 c -0.2667,-0.2667 -0.6985,-0.508 -1.2954,-0.508 -0.65405,0 -1.20015,0.3048 -1.20015,0.914399 0,0.43815 0.29845,0.70485 0.9398,0.92075 0.50165,0.1651 0.762,0.27305 0.762,0.53975 0,0.29845 -0.2794,0.4318 -0.67945,0.4318 -0.42545,0 -0.8509,-0.1524 -1.1557,-0.48895 l -0.3302,0.3683 c 0.3048,0.34925 0.83185,0.5715 1.3843,0.5715 z m 4.229103,-2.793999 c 0.4191,0 0.67945,0.2667 0.67945,0.717549 0,0.05715 -0.0063,0.1143 -0.0127,0.17145 h -1.75895 c 0.1905,-0.558799 0.6604,-0.888999 1.0922,-0.888999 z m -0.4191,2.793999 c 0.5461,0 1.03505,-0.19685 1.3589,-0.45085 l -0.20955,-0.3937 c -0.28575,0.22225 -0.62865,0.38735 -1.02235,0.38735 -0.5207,0 -0.88265,-0.31115 -0.88265,-0.92075 0,-0.03175 0,-0.0635 0,-0.09525 h 2.3114 c 0.03175,-0.0889 0.0889,-0.3556 0.0889,-0.5842 0,-0.692149 -0.4318,-1.200149 -1.20015,-1.200149 -0.94615,0 -1.778,0.7874 -1.778,1.904999 0,0.889 0.5334,1.35255 1.3335,1.35255 z"
         id="path2" />
      <path
         style="font-weight:500;font-family:'Source Code Pro';-inkscape-font-specification:'Source Code Pro, Medium';fill:#cb3c33"
         d="m 45.880841,84.177701 c 0.42545,0 0.85725,-0.22225 1.18745,-0.47625 h 0.01905 l 0.0508,0.40005 h 0.51435 v -1.8669 c 0,-0.819149 -0.43815,-1.314449 -1.2954,-1.314449 -0.53975,0 -1.0541,0.2286 -1.397,0.43815 l 0.23495,0.425449 c 0.3048,-0.177799 0.6731,-0.349249 1.0541,-0.349249 0.55245,0 0.75565,0.31115 0.7747,0.692149 -1.5621,0.12065 -2.19075,0.4572 -2.19075,1.1557 0,0.5461 0.45085,0.89535 1.04775,0.89535 z m 0.1778,-0.50165 c -0.33655,0 -0.61595,-0.127 -0.61595,-0.43815 0,-0.37465 0.36195,-0.61595 1.58115,-0.7112 v 0.7366 c -0.3175,0.26035 -0.635,0.41275 -0.9652,0.41275 z m 3.797301,0.50165 c 0.3683,0 0.7239,-0.20955 0.97155,-0.4572 h 0.01905 l 0.0508,0.381 h 0.51435 v -4.502149 h -0.62865 v 1.1557 l 0.03175,0.55245 h -0.01905 c -0.254,-0.24765 -0.52705,-0.38735 -0.889,-0.38735 -0.71755,0 -1.39065,0.6223 -1.39065,1.631949 0,1.0287 0.5334,1.6256 1.33985,1.6256 z m 0.14605,-0.5207 c -0.52705,0 -0.8382,-0.40005 -0.8382,-1.11125 0,-0.6731 0.40005,-1.098549 0.88265,-1.098549 0.24765,0 0.48895,0.08255 0.7366,0.317499 v 1.4732 c -0.2413,0.2794 -0.50165,0.4191 -0.78105,0.4191 z m 3.530601,0.4445 h 0.7112 l 1.2446,-3.105149 h -0.60325 l -0.65405,1.689099 c -0.12065,0.31115 -0.2159,0.61595 -0.32385,0.92075 h -0.0254 c -0.10795,-0.3048 -0.20955,-0.6096 -0.3302,-0.92075 l -0.65405,-1.689099 h -0.635 z"
         id="path3" />
      <path
         style="font-weight:500;font-family:'Source Code Pro';-inkscape-font-specification:'Source Code Pro, Medium'"
         d="m 61.08275,84.101501 h 0.6223 v -2.597149 h 1.23825 v -0.508 h -1.23825 v -0.2286 c 0,-0.4699 0.2159,-0.74295 0.73025,-0.74295 0.26035,0 0.46355,0.0381 0.6985,0.1397 l 0.1397,-0.46355 c -0.28575,-0.1143 -0.59055,-0.1778 -0.90805,-0.1778 -0.88265,0 -1.2827,0.51435 -1.2827,1.2573 v 0.2159 l -0.86995,0.03175 v 0.47625 h 0.86995 z m 4.997451,1.1176 0.34925,-0.29845 c -0.8255,-0.7239 -1.2065,-1.5367 -1.2065,-2.58445 0,-1.047749 0.381,-1.860549 1.2065,-2.584449 l -0.34925,-0.29845 c -0.86995,0.69215 -1.40335,1.6637 -1.40335,2.882899 0,1.2192 0.5334,2.19075 1.40335,2.8829 z"
         id="path4" />
      <path
         style="font-weight:500;font-family:'Source Code Pro';-inkscape-font-specification:'Source Code Pro, Medium';fill:#808080"
         d="m 68.061406,85.403251 c 0.7239,0 1.1049,-0.4445 1.35255,-1.1049 l 1.32715,-3.301999 h -0.5969 l -0.61595,1.619249 c -0.1016,0.28575 -0.2159,0.6096 -0.3175,0.90805 h -0.0254 c -0.127,-0.3048 -0.24765,-0.62865 -0.36195,-0.90805 l -0.6985,-1.619249 h -0.62865 l 1.41605,3.086099 -0.08255,0.2159 c -0.1397,0.3429 -0.38735,0.5969 -0.8001,0.5969 -0.09525,0 -0.1905,-0.01905 -0.2667,-0.04445 l -0.127,0.48895 c 0.1143,0.0381 0.27305,0.0635 0.42545,0.0635 z"
         id="path5" />
      <path
         style="font-style:italic;font-weight:500;font-family:'Source Code Pro';-inkscape-font-specification:'Source Code Pro, Medium'"
         d="m 72.976308,81.961551 c 0.3556,0 0.62865,-0.304799 0.62865,-0.654049 0,-0.2794 -0.1778,-0.47625 -0.4445,-0.47625 -0.36195,0 -0.62865,0.3048 -0.62865,0.65405 0,0.27305 0.17145,0.476249 0.4445,0.476249 z m -0.4318,2.21615 c 0.3556,0 0.62865,-0.3048 0.62865,-0.65405 0,-0.2794 -0.1778,-0.47625 -0.4445,-0.47625 -0.36195,0 -0.62865,0.3048 -0.62865,0.65405 0,0.27305 0.17145,0.47625 0.4445,0.47625 z m 4.241801,-2.21615 c 0.3556,0 0.62865,-0.304799 0.62865,-0.654049 0,-0.2794 -0.1778,-0.47625 -0.4445,-0.47625 -0.36195,0 -0.62865,0.3048 -0.62865,0.65405 0,0.27305 0.17145,0.476249 0.4445,0.476249 z m -0.4318,2.21615 c 0.3556,0 0.62865,-0.3048 0.62865,-0.65405 0,-0.2794 -0.1778,-0.47625 -0.4445,-0.47625 -0.36195,0 -0.62865,0.3048 -0.62865,0.65405 0,0.27305 0.17145,0.47625 0.4445,0.47625 z"
         id="path6" />
      <path
         style="font-style:italic;font-weight:600;font-family:'Source Code Pro';-inkscape-font-specification:'Source Code Pro, Semi-Bold Italic'"
         d="m 80.316914,84.177701 c 0.8128,0 1.4605,-0.4572 1.4605,-1.2573 0,-0.52705 -0.2921,-0.81915 -0.6985,-1.0668 l -0.4699,-0.298449 c -0.2413,-0.14605 -0.43815,-0.3048 -0.43815,-0.5715 0,-0.29845 0.26035,-0.5334 0.6223,-0.5334 0.38735,0 0.67945,0.20955 0.88265,0.45085 l 0.43815,-0.37465 c -0.26035,-0.3683 -0.7366,-0.65405 -1.30175,-0.65405 -0.76835,0 -1.3462,0.4826 -1.3462,1.16205 0,0.51435 0.3175,0.844549 0.6858,1.060449 l 0.4318,0.26035 c 0.3048,0.1778 0.4953,0.3429 0.4953,0.6223 0,0.381 -0.32385,0.6096 -0.7747,0.6096 -0.4318,0 -0.7747,-0.2032 -1.016,-0.57785 l -0.45085,0.38735 c 0.28575,0.46355 0.7747,0.78105 1.47955,0.78105 z m 4.089398,0 c 0.4572,0 0.88265,-0.127 1.1557,-0.3048 l -0.20955,-0.4826 c -0.2032,0.12065 -0.46355,0.2286 -0.7493,0.2286 -0.3048,0 -0.51435,-0.15875 -0.51435,-0.51435 0,-0.0762 0.0063,-0.14605 0.03175,-0.26035 l 0.2794,-1.320799 h 1.4351 l 0.10795,-0.53975 h -1.42875 l 0.2032,-0.9779 h -0.5588 l -0.29845,0.9779 -0.89535,0.03175 -0.1016,0.508 h 0.8636 l -0.27305,1.327149 c -0.03175,0.15875 -0.0508,0.2794 -0.0508,0.41275 0,0.5461 0.3048,0.9144 1.0033,0.9144 z m 2.393955,-0.0762 h 0.67945 l 0.3048,-1.4986 c 0.3937,-0.65405 0.8636,-1.085849 1.31445,-1.085849 0.19685,0 0.34925,0.0381 0.4953,0.12065 l 0.254,-0.5842 c -0.13335,-0.0889 -0.34925,-0.14605 -0.6223,-0.14605 -0.508,0 -0.99695,0.3937 -1.33985,0.933449 h -0.0254 l 0.1143,-0.857249 -0.5588,-0.0064 z m 5.454648,0.0762 c 0.3683,0 0.62865,-0.0762 0.89535,-0.1905 l -0.14605,-0.51435 c -0.20955,0.0889 -0.3683,0.14605 -0.5461,0.14605 -0.24765,0 -0.4191,-0.12065 -0.4191,-0.41275 0,-0.05715 0.0063,-0.12065 0.0254,-0.18415 l 0.46355,-2.038349 h -1.75895 l -0.1143,0.53975 h 1.0795 l -0.3429,1.454149 c -0.03175,0.13335 -0.0508,0.24765 -0.0508,0.36195 0,0.5334 0.3683,0.8382 0.9144,0.8382 z m -0.0063,-3.771899 c 0.29845,0 0.5461,-0.2286 0.5461,-0.5207 0,-0.2667 -0.1905,-0.4191 -0.46355,-0.4191 -0.29845,0 -0.53975,0.2413 -0.53975,0.5207 0,0.2794 0.2159,0.4191 0.4572,0.4191 z m 1.797055,3.695699 h 0.67945 l 0.38735,-1.9558 c 0.3556,-0.419099 0.7366,-0.654049 1.07315,-0.654049 0.26035,0 0.4064,0.13335 0.4064,0.393699 0,0.1143 -0.01905,0.23495 -0.0508,0.381 l -0.3683,1.83515 h 0.67945 l 0.381,-1.9177 c 0.0381,-0.1651 0.05715,-0.32385 0.05715,-0.488949 0,-0.4953 -0.2667,-0.7874 -0.80645,-0.7874 -0.4953,0 -0.95885,0.32385 -1.30175,0.6604 h -0.0254 l 0.05715,-0.5842 h -0.55245 z m 4.940305,1.3081 c 0.78105,0 1.460505,-0.3302 1.644655,-1.2573 l 0.635,-3.168649 h -0.53975 l -0.1397,0.36195 h -0.0254 c -0.15875,-0.2667 -0.47625,-0.43815 -0.901705,-0.43815 -0.889,0 -1.6637,0.857249 -1.6637,1.968499 0,0.7239 0.41275,1.16205 1.07315,1.16205 0.3683,0 0.75565,-0.18415 1.028705,-0.4445 h 0.0254 l -0.133355,0.5588 c -0.1397,0.53975 -0.5461,0.7112 -1.00965,0.7112 -0.3302,0 -0.6858,-0.12065 -0.9271,-0.3302 l -0.3048,0.4826 c 0.29845,0.2286 0.6985,0.3937 1.23825,0.3937 z m 0.3048,-1.9304 c -0.37465,0 -0.59055,-0.22225 -0.59055,-0.7112 0,-0.7366 0.51435,-1.301749 1.0541,-1.301749 0.260355,0 0.488955,0.12065 0.666755,0.387349 l -0.24765,1.16205 c -0.273055,0.29845 -0.590555,0.46355 -0.882655,0.46355 z"
         id="path7" />
      <path
         style="font-weight:500;font-family:'Source Code Pro';-inkscape-font-specification:'Source Code Pro, Medium'"
         d="m 102.63082,85.219101 c 0.86995,-0.69215 1.40335,-1.6637 1.40335,-2.8829 0,-1.219199 -0.5334,-2.190749 -1.40335,-2.882899 l -0.34925,0.29845 c 0.8255,0.7239 1.2065,1.5367 1.2065,2.584449 0,1.04775 -0.381,1.86055 -1.2065,2.58445 z"
         id="path8" />
    </g>
    <g
       id="text11976-0"
       style="font-size:6.35px;line-height:1.25;font-family:'IBM Plex Sans';-inkscape-font-specification:'IBM Plex Sans,  weight=450';stroke-width:0.264583"
       aria-label="@advise adv g(x::Int)"
       transform="matrix(0.65436702,0,0,0.65436702,1.2956435,7.7412161)">
      <path
         style="font-style:italic;font-weight:bold;font-family:'Source Code Pro';-inkscape-font-specification:'Source Code Pro, Medium';fill:#583562"
         d="m 15.648472,67.043298 c 0.4318,0 0.8001,-0.12065 1.09855,-0.34925 l -0.254,-0.45085 c -0.2286,0.17145 -0.45085,0.2667 -0.74295,0.2667 -0.62865,0 -1.1684,-0.48895 -1.1684,-1.44145 0,-1.61925 0.9017,-2.5273 1.6891,-2.5273 0.5588,0 0.7239,0.31115 0.7239,0.7366 0,0.0889 -0.0127,0.1905 -0.0508,0.33655 -1.25095,0.1397 -1.80975,0.5207 -1.80975,1.2573 0,0.42545 0.3175,0.67945 0.69215,0.67945 0.3556,0 0.5969,-0.1524 0.81915,-0.40005 h 0.0254 l -0.0064,0.32385 h 0.46355 l 0.3683,-1.8542 c 0.0254,-0.14605 0.0508,-0.28575 0.0508,-0.4191 0,-0.71755 -0.37465,-1.17475 -1.2065,-1.17475 -1.2446,0 -2.3876,1.12395 -2.3876,3.1115 0,1.26365 0.762,1.905 1.69545,1.905 z m 0.43815,-2.032 c -0.1778,0 -0.3048,-0.1016 -0.3048,-0.28575 0,-0.3175 0.2413,-0.5334 1.016,-0.6477 l -0.1397,0.67945 c -0.19685,0.1651 -0.38735,0.254 -0.5715,0.254 z"
         id="path9" />
      <path
         style="font-style:italic;font-weight:500;font-family:'Source Code Pro';-inkscape-font-specification:'Source Code Pro, Medium';fill:#583562"
         d="m 19.033024,66.186048 c 0.38735,0 0.7874,-0.20955 1.1049,-0.5334 h 0.0254 l -0.0381,0.4572 h 0.47625 l 0.6223,-3.10515 h -0.4699 l -0.127,0.381 h -0.0254 c -0.1651,-0.2794 -0.48895,-0.4572 -0.92075,-0.4572 -0.93345,0 -1.69545,0.94615 -1.69545,2.06375 0,0.7747 0.41275,1.1938 1.04775,1.1938 z m 0.19685,-0.48895 c -0.3937,0 -0.64135,-0.2413 -0.64135,-0.7874 0,-0.79375 0.5207,-1.49225 1.17475,-1.49225 0.26035,0 0.5334,0.12065 0.7239,0.4191 l -0.27305,1.2954 c -0.31115,0.37465 -0.67945,0.56515 -0.98425,0.56515 z m 3.613153,0.48895 c 0.38735,0 0.7874,-0.20955 1.1049,-0.5334 h 0.0254 l -0.0381,0.4572 h 0.47625 l 0.9144,-4.50215 h -0.59055 l -0.2286,1.1557 -0.09525,0.60325 h -0.01905 c -0.17145,-0.2667 -0.4699,-0.43815 -0.9017,-0.43815 -0.93345,0 -1.69545,0.94615 -1.69545,2.06375 0,0.7747 0.41275,1.1938 1.04775,1.1938 z m 0.19685,-0.48895 c -0.3937,0 -0.64135,-0.24765 -0.64135,-0.7874 0,-0.79375 0.5207,-1.49225 1.17475,-1.49225 0.26035,0 0.5334,0.12065 0.71755,0.4191 l -0.2667,1.2954 c -0.31115,0.37465 -0.67945,0.56515 -0.98425,0.56515 z m 3.454402,0.41275 h 0.6858 l 1.84785,-3.10515 h -0.59055 l -0.99695,1.7272 c -0.18415,0.3175 -0.36195,0.635 -0.508,0.9271 h -0.0254 c -0.0508,-0.29845 -0.09525,-0.61595 -0.15875,-0.92075 l -0.3429,-1.73355 h -0.57785 z m 4.813302,0.0762 c 0.34925,0 0.60325,-0.0762 0.86995,-0.19685 l -0.13335,-0.4445 c -0.2159,0.09525 -0.381,0.1524 -0.56515,0.1524 -0.2667,0 -0.45085,-0.12065 -0.45085,-0.4318 0,-0.05715 0.0127,-0.12065 0.0254,-0.1905 l 0.46355,-2.0701 h -1.6891 l -0.09525,0.4699 h 1.1049 l -0.3556,1.55575 c -0.03175,0.127 -0.0508,0.2413 -0.0508,0.34925 0,0.5207 0.3556,0.80645 0.8763,0.80645 z m -0.01905,-3.79095 c 0.2667,0 0.48895,-0.2159 0.48895,-0.4826 0,-0.2413 -0.1651,-0.381 -0.41275,-0.381 -0.2667,0 -0.48895,0.22225 -0.48895,0.4826 0,0.24765 0.18415,0.381 0.41275,0.381 z m 3.340102,3.79095 c 0.74295,0 1.3335,-0.2794 1.3335,-0.95885 0,-0.50165 -0.3937,-0.71755 -0.9652,-0.9144 -0.4953,-0.1651 -0.7366,-0.28575 -0.7366,-0.53975 0,-0.24765 0.22225,-0.3937 0.5842,-0.3937 0.4318,0 0.78105,0.19685 1.03505,0.41275 l 0.32385,-0.3556 c -0.2667,-0.2667 -0.6985,-0.508 -1.2954,-0.508 -0.65405,0 -1.20015,0.3048 -1.20015,0.9144 0,0.43815 0.29845,0.70485 0.9398,0.92075 0.50165,0.1651 0.762,0.27305 0.762,0.53975 0,0.29845 -0.2794,0.4318 -0.67945,0.4318 -0.42545,0 -0.8509,-0.1524 -1.1557,-0.48895 l -0.3302,0.3683 c 0.3048,0.34925 0.83185,0.5715 1.3843,0.5715 z m 4.229103,-2.794 c 0.4191,0 0.67945,0.2667 0.67945,0.71755 0,0.05715 -0.0063,0.1143 -0.0127,0.17145 h -1.75895 c 0.1905,-0.5588 0.6604,-0.889 1.0922,-0.889 z m -0.4191,2.794 c 0.5461,0 1.03505,-0.19685 1.3589,-0.45085 l -0.20955,-0.3937 c -0.28575,0.22225 -0.62865,0.38735 -1.02235,0.38735 -0.5207,0 -0.88265,-0.31115 -0.88265,-0.92075 0,-0.03175 0,-0.0635 0,-0.09525 h 2.3114 c 0.03175,-0.0889 0.0889,-0.3556 0.0889,-0.5842 0,-0.69215 -0.4318,-1.20015 -1.20015,-1.20015 -0.94615,0 -1.778,0.7874 -1.778,1.905 0,0.889 0.5334,1.35255 1.3335,1.35255 z"
         id="path10" />
      <path
         style="font-weight:500;font-family:'Source Code Pro';-inkscape-font-specification:'Source Code Pro, Medium';fill:#cb3c33"
         d="m 45.880841,66.186048 c 0.42545,0 0.85725,-0.22225 1.18745,-0.47625 h 0.01905 l 0.0508,0.40005 h 0.51435 v -1.8669 c 0,-0.81915 -0.43815,-1.31445 -1.2954,-1.31445 -0.53975,0 -1.0541,0.2286 -1.397,0.43815 l 0.23495,0.42545 c 0.3048,-0.1778 0.6731,-0.34925 1.0541,-0.34925 0.55245,0 0.75565,0.31115 0.7747,0.69215 -1.5621,0.12065 -2.19075,0.4572 -2.19075,1.1557 0,0.5461 0.45085,0.89535 1.04775,0.89535 z m 0.1778,-0.50165 c -0.33655,0 -0.61595,-0.127 -0.61595,-0.43815 0,-0.37465 0.36195,-0.61595 1.58115,-0.7112 v 0.7366 c -0.3175,0.26035 -0.635,0.41275 -0.9652,0.41275 z m 3.797301,0.50165 c 0.3683,0 0.7239,-0.20955 0.97155,-0.4572 h 0.01905 l 0.0508,0.381 h 0.51435 v -4.50215 h -0.62865 v 1.1557 l 0.03175,0.55245 h -0.01905 c -0.254,-0.24765 -0.52705,-0.38735 -0.889,-0.38735 -0.71755,0 -1.39065,0.6223 -1.39065,1.63195 0,1.0287 0.5334,1.6256 1.33985,1.6256 z m 0.14605,-0.5207 c -0.52705,0 -0.8382,-0.40005 -0.8382,-1.11125 0,-0.6731 0.40005,-1.09855 0.88265,-1.09855 0.24765,0 0.48895,0.08255 0.7366,0.3175 v 1.4732 c -0.2413,0.2794 -0.50165,0.4191 -0.78105,0.4191 z m 3.530601,0.4445 h 0.7112 l 1.2446,-3.10515 h -0.60325 l -0.65405,1.6891 c -0.12065,0.31115 -0.2159,0.61595 -0.32385,0.92075 h -0.0254 c -0.10795,-0.3048 -0.20955,-0.6096 -0.3302,-0.92075 l -0.65405,-1.6891 h -0.635 z"
         id="path11" />
      <path
         style="font-weight:500;font-family:'Source Code Pro';-inkscape-font-specification:'Source Code Pro, Medium'"
         d="m 61.43835,67.513198 c 1.07315,0 1.75895,-0.4953 1.75895,-1.09855 0,-0.52705 -0.40005,-0.74295 -1.2065,-0.74295 h -0.6604 c -0.40005,0 -0.61595,-0.1016 -0.61595,-0.32385 0,-0.13335 0.0762,-0.23495 0.2159,-0.32385 0.1651,0.06985 0.34925,0.1016 0.50165,0.1016 0.67945,0 1.2192,-0.381 1.2192,-1.06045 0,-0.22225 -0.10795,-0.4318 -0.2286,-0.56515 h 0.75565 v -0.4953 H 61.9019 c -0.1397,-0.0508 -0.2921,-0.0762 -0.4699,-0.0762 -0.6731,0 -1.25095,0.42545 -1.25095,1.1176 0,0.3683 0.17145,0.64135 0.38735,0.8001 v 0.0254 c -0.2286,0.15875 -0.3683,0.381 -0.3683,0.5842 0,0.26035 0.1524,0.4191 0.3175,0.51435 v 0.0254 c -0.3302,0.18415 -0.50165,0.4191 -0.50165,0.6731 0,0.5461 0.53975,0.84455 1.4224,0.84455 z m -0.0063,-2.794 c -0.3556,0 -0.65405,-0.254 -0.65405,-0.6731 0,-0.4064 0.29845,-0.6731 0.65405,-0.6731 0.3556,0 0.6477,0.2667 0.6477,0.6731 0,0.4191 -0.2921,0.6731 -0.6477,0.6731 z m 0.06985,2.35585 c -0.61595,0 -0.95885,-0.18415 -0.95885,-0.4826 0,-0.15875 0.09525,-0.3175 0.3556,-0.46355 0.127,0.0381 0.2794,0.0508 0.4699,0.0508 H 61.921 c 0.43815,0 0.6604,0.06985 0.6604,0.3429 0,0.28575 -0.4191,0.55245 -1.0795,0.55245 z m 4.578351,0.1524 0.34925,-0.29845 c -0.8255,-0.7239 -1.2065,-1.5367 -1.2065,-2.58445 0,-1.04775 0.381,-1.86055 1.2065,-2.58445 l -0.34925,-0.29845 c -0.86995,0.69215 -1.40335,1.6637 -1.40335,2.8829 0,1.2192 0.5334,2.19075 1.40335,2.8829 z"
         id="path12" />
      <path
         style="font-weight:500;font-family:'Source Code Pro';-inkscape-font-specification:'Source Code Pro, Medium';fill:#808080"
         d="m 67.572456,66.109848 h 0.66675 l 0.4572,-0.6604 c 0.12065,-0.1905 0.2413,-0.37465 0.3556,-0.5588 h 0.0254 c 0.13335,0.1778 0.27305,0.381 0.3937,0.5588 l 0.4953,0.6604 h 0.6858 l -1.1557,-1.5494 1.0795,-1.55575 h -0.66675 l -0.41275,0.62865 c -0.1016,0.17145 -0.22225,0.36195 -0.3302,0.5334 h -0.0254 c -0.1143,-0.17145 -0.2413,-0.3556 -0.34925,-0.52705 l -0.45085,-0.635 h -0.6858 l 1.07315,1.49225 z"
         id="path13" />
      <path
         style="font-style:italic;font-weight:500;font-family:'Source Code Pro';-inkscape-font-specification:'Source Code Pro, Medium'"
         d="m 72.976308,63.969898 c 0.3556,0 0.62865,-0.3048 0.62865,-0.65405 0,-0.2794 -0.1778,-0.47625 -0.4445,-0.47625 -0.36195,0 -0.62865,0.3048 -0.62865,0.65405 0,0.27305 0.17145,0.47625 0.4445,0.47625 z m -0.4318,2.21615 c 0.3556,0 0.62865,-0.3048 0.62865,-0.65405 0,-0.2794 -0.1778,-0.47625 -0.4445,-0.47625 -0.36195,0 -0.62865,0.3048 -0.62865,0.65405 0,0.27305 0.17145,0.47625 0.4445,0.47625 z m 4.241801,-2.21615 c 0.3556,0 0.62865,-0.3048 0.62865,-0.65405 0,-0.2794 -0.1778,-0.47625 -0.4445,-0.47625 -0.36195,0 -0.62865,0.3048 -0.62865,0.65405 0,0.27305 0.17145,0.47625 0.4445,0.47625 z m -0.4318,2.21615 c 0.3556,0 0.62865,-0.3048 0.62865,-0.65405 0,-0.2794 -0.1778,-0.47625 -0.4445,-0.47625 -0.36195,0 -0.62865,0.3048 -0.62865,0.65405 0,0.27305 0.17145,0.47625 0.4445,0.47625 z"
         id="path14" />
      <path
         style="font-style:italic;font-weight:600;font-family:'Source Code Pro';-inkscape-font-specification:'Source Code Pro, Semi-Bold Italic'"
         d="m 78.799264,66.109848 h 2.6924 l 0.12065,-0.57785 h -1.00965 l 0.60325,-2.9972 h 1.00965 l 0.12065,-0.57785 h -2.69875 l -0.12065,0.57785 h 1.0033 l -0.60325,2.9972 h -0.99695 z m 3.816348,0 h 0.67945 l 0.38735,-1.9558 c 0.3556,-0.4191 0.7366,-0.65405 1.07315,-0.65405 0.26035,0 0.4064,0.13335 0.4064,0.3937 0,0.1143 -0.01905,0.23495 -0.0508,0.381 l -0.3683,1.83515 h 0.67945 l 0.381,-1.9177 c 0.0381,-0.1651 0.05715,-0.32385 0.05715,-0.48895 0,-0.4953 -0.2667,-0.7874 -0.80645,-0.7874 -0.4953,0 -0.95885,0.32385 -1.30175,0.6604 h -0.0254 l 0.05715,-0.5842 h -0.55245 z m 5.600705,0.0762 c 0.4572,0 0.88265,-0.127 1.1557,-0.3048 l -0.20955,-0.4826 c -0.2032,0.12065 -0.46355,0.2286 -0.7493,0.2286 -0.3048,0 -0.51435,-0.15875 -0.51435,-0.51435 0,-0.0762 0.0064,-0.14605 0.03175,-0.26035 l 0.2794,-1.3208 h 1.4351 l 0.10795,-0.53975 h -1.42875 l 0.2032,-0.9779 h -0.5588 l -0.29845,0.9779 -0.89535,0.03175 -0.1016,0.508 h 0.8636 l -0.27305,1.32715 c -0.03175,0.15875 -0.0508,0.2794 -0.0508,0.41275 0,0.5461 0.3048,0.9144 1.0033,0.9144 z"
         id="path15" />
      <path
         style="font-weight:500;font-family:'Source Code Pro';-inkscape-font-specification:'Source Code Pro, Medium'"
         d="m 91.200815,67.227448 c 0.86995,-0.69215 1.40335,-1.6637 1.40335,-2.8829 0,-1.2192 -0.5334,-2.19075 -1.40335,-2.8829 l -0.34925,0.29845 c 0.8255,0.7239 1.2065,1.5367 1.2065,2.58445 0,1.04775 -0.381,1.86055 -1.2065,2.58445 z"
         id="path16" />
    </g>
    <text
       xml:space="preserve"
       style="font-size:4.15523px;line-height:1.25;font-family:'IBM Plex Sans';-inkscape-font-specification:'IBM Plex Sans,  weight=450';opacity:0.7;stroke-width:0.173134"
       x="39.815437"
       y="20.377813"
       id="text11976-0-8"
       transform="matrix(0,1,1,0,0,0)"><tspan
         sodipodi:role="line"
         id="tspan11974-7-7"
         style="font-style:normal;font-variant:normal;font-weight:500;font-stretch:normal;font-size:4.15523px;font-family:'Source Code Pro';-inkscape-font-specification:'Source Code Pro, Medium';font-variant-ligatures:normal;font-variant-caps:normal;font-variant-numeric:normal;font-variant-east-asian:normal;stroke-width:0.173134"
         x="39.815437"
         y="20.377813">...</tspan></text>
    <text
       xml:space="preserve"
       style="font-size:4.15523px;line-height:1.25;font-family:'IBM Plex Sans';-inkscape-font-specification:'IBM Plex Sans,  weight=450';stroke-width:0.173134"
       x="28.042282"
       y="20.377813"
       id="text11976-0-8-99"
       transform="matrix(0,1,1,0,0,0)"><tspan
         sodipodi:role="line"
         id="tspan11974-7-7-2"
         style="font-style:normal;font-variant:normal;font-weight:500;font-stretch:normal;font-size:4.15523px;font-family:'Source Code Pro';-inkscape-font-specification:'Source Code Pro, Medium';font-variant-ligatures:normal;font-variant-caps:normal;font-variant-numeric:normal;font-variant-east-asian:normal;stroke-width:0.173134"
         x="28.042282"
         y="20.377813"><tspan
           style="fill:#cccccc;fill-opacity:1;stroke-width:0.173134"
           id="tspan13063">.</tspan><tspan
           style="fill:#4d4d4d;fill-opacity:1;stroke-width:0.173134"
           id="tspan13013"><tspan
   style="fill:#999999;fill-opacity:1;stroke-width:0.173134"
   id="tspan13121">.</tspan>.</tspan></tspan></text>
    <text
       xml:space="preserve"
       style="font-size:4.15523px;line-height:1.25;font-family:'IBM Plex Sans';-inkscape-font-specification:'IBM Plex Sans,  weight=450';stroke-width:0.173134"
       x="-71.533699"
       y="20.285015"
       id="text11976-0-8-99-5"
       transform="rotate(-90)"><tspan
         sodipodi:role="line"
         id="tspan11974-7-7-2-5"
         style="font-style:normal;font-variant:normal;font-weight:500;font-stretch:normal;font-size:4.15523px;font-family:'Source Code Pro';-inkscape-font-specification:'Source Code Pro, Medium';font-variant-ligatures:normal;font-variant-caps:normal;font-variant-numeric:normal;font-variant-east-asian:normal;stroke-width:0.173134"
         x="-71.533699"
         y="20.285015"><tspan
           style="fill:#cccccc;fill-opacity:1;stroke-width:0.173134"
           id="tspan13063-3">.</tspan><tspan
           style="fill:#4d4d4d;fill-opacity:1;stroke-width:0.173134"
           id="tspan13013-8"><tspan
   style="fill:#999999;fill-opacity:1;stroke-width:0.173134"
   id="tspan13121-6">.</tspan>.</tspan></tspan></text>
    <text
       xml:space="preserve"
       style="font-size:4.15523px;line-height:1.25;font-family:'IBM Plex Sans';-inkscape-font-specification:'IBM Plex Sans,  weight=450';opacity:0.7;stroke-width:0.173134"
       x="51.93486"
       y="20.285015"
       id="text11976-0-8-9"
       transform="matrix(0,1,1,0,0,0)"><tspan
         sodipodi:role="line"
         id="tspan11974-7-7-4"
         style="font-style:normal;font-variant:normal;font-weight:500;font-stretch:normal;font-size:4.15523px;font-family:'Source Code Pro';-inkscape-font-specification:'Source Code Pro, Medium';font-variant-ligatures:normal;font-variant-caps:normal;font-variant-numeric:normal;font-variant-east-asian:normal;stroke-width:0.173134"
         x="51.93486"
         y="20.285015">...</tspan></text>
    <path
       style="opacity:0.4;fill:none;stroke:url(#linearGradient14145);stroke-width:0.173407;stroke-linecap:butt;stroke-linejoin:miter;stroke-dasharray:none;stroke-opacity:1"
       d="M 8.1343226,28.568614 V 71.852265"
       id="path13801" />
    <rect
       style="opacity:1;fill:none;fill-opacity:1;fill-rule:evenodd;stroke:#cb3c33;stroke-width:0.435154;stroke-linecap:round;stroke-linejoin:round;stroke-dasharray:none;stroke-dashoffset:1.51181"
       id="rect14447"
       width="33.956539"
       height="44.062756"
       x="100.82589"
       y="22.645334"
       rx="4.7612014"
       ry="4.7612014" />
    <path
       d="m 108.53386,30.646228 v -0.369815 h -0.22854 v -1.084515 c 0,-0.482007 -0.31165,-0.756253 -0.86844,-0.756253 -0.41968,0 -0.67316,0.178675 -0.81444,0.419679 l 0.27009,0.245157 c 0.10804,-0.170364 0.26179,-0.295019 0.51526,-0.295019 0.30333,0 0.4446,0.153743 0.4446,0.415522 v 0.18283 h -0.39058 c -0.60251,0 -0.92247,0.220228 -0.92247,0.648216 0,0.390592 0.25347,0.644061 0.69808,0.644061 0.31579,0 0.54849,-0.141278 0.6316,-0.411368 h 0.0207 c 0.0292,0.211916 0.15375,0.361505 0.3906,0.361505 z m -1.16763,-0.295022 c -0.22438,0 -0.36566,-0.09972 -0.36566,-0.290866 v -0.0748 c 0,-0.186985 0.15375,-0.290866 0.46954,-0.290866 h 0.38228 v 0.311642 c 0,0.211918 -0.20776,0.344884 -0.48616,0.344884 z"
       id="text11976-3-1"
       style="font-weight:500;font-size:6.35px;line-height:1.25;font-family:'IBM Plex Sans';-inkscape-font-specification:'IBM Plex Sans, Medium';fill:#ffffff;stroke-width:0.173134"
       aria-label="a" />
    <path
       d="m 112.65998,30.23486 h 0.22438 v -1.160694 h 0.56512 v -0.1856 h -0.56512 V 28.76668 c 0,-0.218842 0.0997,-0.35181 0.34073,-0.35181 0.11635,0 0.20222,0.01386 0.31303,0.06371 l 0.0526,-0.17175 c -0.12742,-0.05263 -0.25485,-0.07756 -0.38783,-0.07756 -0.3712,0 -0.54295,0.21607 -0.54295,0.54572 v 0.113576 l -0.38504,0.01386 v 0.171751 h 0.38504 z m 2.19119,0.487547 0.12466,-0.116346 c -0.3712,-0.313027 -0.54294,-0.675918 -0.54294,-1.141303 0,-0.465386 0.17174,-0.828275 0.54294,-1.141303 l -0.12466,-0.116346 c -0.38505,0.299178 -0.62327,0.72301 -0.62327,1.257649 0,0.534639 0.23822,0.958471 0.62327,1.257649 z m 1.29366,-1.44602 c 0.12467,0 0.22438,-0.09418 0.22438,-0.232692 0,-0.141277 -0.0997,-0.235463 -0.22438,-0.235463 -0.12465,0 -0.22437,0.09418 -0.22437,0.235463 0,0.138507 0.0997,0.232692 0.22437,0.232692 z m 0,0.991715 c 0.12467,0 0.22438,-0.09418 0.22438,-0.232693 0,-0.141277 -0.0997,-0.235463 -0.22438,-0.235463 -0.12465,0 -0.22437,0.09418 -0.22437,0.235463 0,0.138507 0.0997,0.232693 0.22437,0.232693 z m 1.6621,-0.991715 c 0.12466,0 0.22438,-0.09418 0.22438,-0.232692 0,-0.141277 -0.0997,-0.235463 -0.22438,-0.235463 -0.12466,0 -0.22438,0.09418 -0.22438,0.235463 0,0.138507 0.0997,0.232692 0.22438,0.232692 z m 0,0.991715 c 0.12466,0 0.22438,-0.09418 0.22438,-0.232693 0,-0.141277 -0.0997,-0.235463 -0.22438,-0.235463 -0.12466,0 -0.22438,0.09418 -0.22438,0.235463 0,0.138507 0.0997,0.232693 0.22438,0.232693 z m 1.67594,0 c 0.39891,0 0.64267,-0.229923 0.64267,-0.518018 0,-0.268704 -0.17728,-0.393362 -0.40167,-0.484777 l -0.25486,-0.110806 c -0.15511,-0.06371 -0.3241,-0.127427 -0.3241,-0.301947 0,-0.163439 0.14128,-0.265934 0.35182,-0.265934 0.18836,0 0.32687,0.06649 0.44598,0.17175 l 0.12189,-0.149589 c -0.13297,-0.132968 -0.33242,-0.224382 -0.55956,-0.224382 -0.34627,0 -0.59559,0.20499 -0.59559,0.482006 0,0.265935 0.21053,0.396132 0.39336,0.468156 l 0.26041,0.113576 c 0.18559,0.08033 0.32686,0.135738 0.32686,0.329647 0,0.16898 -0.14682,0.288097 -0.39613,0.288097 -0.20776,0 -0.39612,-0.09142 -0.53187,-0.227153 l -0.1385,0.160669 c 0.16343,0.16344 0.39336,0.268705 0.65929,0.268705 z m 1.90863,0 c 0.16899,0 0.29918,-0.03601 0.42107,-0.08033 l -0.0499,-0.166208 c -0.097,0.03601 -0.19668,0.06094 -0.32411,0.06094 -0.26039,0 -0.34074,-0.127427 -0.34074,-0.36843 V 29.07417 h 0.66207 v -0.185601 h -0.66207 v -0.432143 h -0.18835 l -0.0306,0.432143 -0.38782,0.01386 v 0.171749 h 0.37952 v 0.637135 c 0,0.332418 0.12743,0.556801 0.52078,0.556801 z m 0.9751,-0.03324 h 0.22715 v -0.789491 c 0.16066,-0.279787 0.35182,-0.385053 0.55404,-0.385053 0.10521,0 0.15512,0.01386 0.24931,0.0471 l 0.0526,-0.19668 c -0.0832,-0.04156 -0.16622,-0.0554 -0.26595,-0.0554 -0.24932,0 -0.45984,0.135737 -0.60112,0.351809 h -0.009 l -0.0193,-0.318567 h -0.18838 z m 2.13302,0 h 0.22715 V 28.88857 h -0.8532 v 0.1856 h 0.62605 z m 0.0887,-1.628849 c 0.10251,0 0.18283,-0.06926 0.18283,-0.177291 0,-0.10527 -0.0804,-0.177289 -0.18283,-0.177289 -0.10251,0 -0.18283,0.07203 -0.18283,0.177289 0,0.108031 0.0804,0.177291 0.18283,0.177291 z m 0.9557,1.628849 h 0.22717 V 29.29578 c 0.15788,-0.163439 0.26592,-0.243773 0.4266,-0.243773 0.2216,0 0.31025,0.121886 0.31025,0.376741 v 0.806114 h 0.22715 v -0.836585 c 0,-0.35458 -0.14681,-0.54295 -0.46538,-0.54295 -0.21053,0 -0.36567,0.113576 -0.50694,0.263164 h -0.011 l -0.0193,-0.229923 h -0.18837 z m 2.22445,0.620513 c 0.45707,0 0.74792,-0.218842 0.74792,-0.470925 0,-0.227153 -0.16619,-0.315797 -0.51246,-0.315797 h -0.30195 c -0.1773,0 -0.27979,-0.04986 -0.27979,-0.155129 0,-0.06371 0.0388,-0.113576 0.10532,-0.155128 0.0749,0.03324 0.1579,0.04986 0.22715,0.04986 0.29087,0 0.52079,-0.174519 0.52079,-0.462615 0,-0.10803 -0.0526,-0.207761 -0.11357,-0.271475 h 0.34903 v -0.1856 h -0.55679 c -0.0581,-0.02217 -0.12189,-0.03324 -0.19946,-0.03324 -0.28531,0 -0.5291,0.18837 -0.5291,0.482007 0,0.160669 0.0748,0.279785 0.16622,0.349038 v 0.01107 c -0.10251,0.06926 -0.16068,0.166208 -0.16068,0.252083 0,0.113576 0.0664,0.182829 0.13851,0.221613 v 0.01107 c -0.14405,0.0831 -0.22161,0.191142 -0.22161,0.299176 0,0.238233 0.22714,0.373971 0.62052,0.373971 z m -0.0138,-1.199474 c -0.16898,0 -0.31024,-0.124658 -0.31024,-0.318568 0,-0.18837 0.14126,-0.315797 0.31024,-0.315797 0.17176,0 0.31026,0.127427 0.31026,0.315797 0,0.19391 -0.1385,0.318568 -0.31026,0.318568 z m 0.0306,1.033267 c -0.2881,0 -0.44044,-0.08864 -0.44044,-0.229924 0,-0.07756 0.0443,-0.155128 0.17174,-0.224382 0.0581,0.01661 0.12743,0.02216 0.20499,0.02216 h 0.26317 c 0.20499,0 0.30749,0.03601 0.30749,0.163438 0,0.138508 -0.19392,0.268706 -0.50695,0.268706 z m 1.28812,0.03324 c 0.38505,-0.299178 0.62329,-0.72301 0.62329,-1.257649 0,-0.534639 -0.23824,-0.958471 -0.62329,-1.257649 l -0.12465,0.116346 c 0.3712,0.313028 0.54295,0.675917 0.54295,1.141303 0,0.465385 -0.17175,0.828276 -0.54295,1.141303 z"
       id="text11976-3-1-8"
       style="font-size:4.23333px;line-height:1.25;font-family:'Source Code Pro';-inkscape-font-specification:'Source Code Pro, Normal';fill:#ffffff;stroke-width:0.173134"
       aria-label="f(::String)" />
    <path
       d="m 111.79433,40.067522 h 0.22436 v -1.160694 h 0.56512 v -0.185599 h -0.56512 v -0.121888 c 0,-0.218841 0.0997,-0.351809 0.34074,-0.351809 0.11634,0 0.20222,0.01386 0.31303,0.06371 l 0.0526,-0.171749 c -0.12742,-0.05263 -0.25485,-0.07756 -0.38782,-0.07756 -0.3712,0 -0.54295,0.216072 -0.54295,0.54572 v 0.113576 l -0.38506,0.01386 v 0.17175 h 0.38506 z m 2.19118,0.487547 0.12466,-0.116347 c -0.37121,-0.313027 -0.54295,-0.675916 -0.54295,-1.141302 0,-0.465386 0.17174,-0.828276 0.54295,-1.141303 l -0.12466,-0.116345 c -0.38504,0.299175 -0.62329,0.723009 -0.62329,1.257648 0,0.534639 0.23825,0.958472 0.62329,1.257649 z m 1.29367,-1.446019 c 0.12465,0 0.22437,-0.09418 0.22437,-0.232693 0,-0.141278 -0.0997,-0.235463 -0.22437,-0.235463 -0.12467,0 -0.22439,0.09418 -0.22439,0.235463 0,0.138508 0.0997,0.232693 0.22439,0.232693 z m 0,0.991713 c 0.12465,0 0.22437,-0.09418 0.22437,-0.232692 0,-0.141279 -0.0997,-0.235463 -0.22437,-0.235463 -0.12467,0 -0.22439,0.09418 -0.22439,0.235463 0,0.138508 0.0997,0.232692 0.22439,0.232692 z m 1.66209,-0.991713 c 0.12465,0 0.22438,-0.09418 0.22438,-0.232693 0,-0.141278 -0.0997,-0.235463 -0.22438,-0.235463 -0.12466,0 -0.22439,0.09418 -0.22439,0.235463 0,0.138508 0.0997,0.232693 0.22439,0.232693 z m 0,0.991713 c 0.12465,0 0.22438,-0.09418 0.22438,-0.232692 0,-0.141279 -0.0997,-0.235463 -0.22438,-0.235463 -0.12466,0 -0.22439,0.09418 -0.22439,0.235463 0,0.138508 0.0997,0.232692 0.22439,0.232692 z m 1.09421,-0.03324 h 1.13576 v -0.196681 h -0.45154 v -1.426627 h 0.45154 v -0.19391 h -1.13576 v 0.19391 h 0.45153 v 1.426627 h -0.45153 z m 1.65655,0 h 0.22714 v -0.939081 c 0.15791,-0.163438 0.26595,-0.243773 0.4266,-0.243773 0.22162,0 0.31027,0.121887 0.31027,0.37674 v 0.806114 h 0.22715 v -0.836591 c 0,-0.354578 -0.14682,-0.542949 -0.46539,-0.542949 -0.21053,0 -0.36566,0.113576 -0.50693,0.263165 h -0.011 l -0.0193,-0.229922 h -0.18837 z m 2.4959,0.03324 c 0.16898,0 0.29918,-0.03601 0.42106,-0.08033 l -0.0499,-0.166209 c -0.097,0.03601 -0.19668,0.06095 -0.32411,0.06095 -0.2604,0 -0.34072,-0.127427 -0.34072,-0.36843 V 38.90683 h 0.66206 v -0.185597 h -0.66206 v -0.432144 h -0.18838 l -0.0306,0.432144 -0.38782,0.01386 v 0.17175 h 0.3795 v 0.637136 c 0,0.332418 0.12744,0.5568 0.5208,0.5568 z m 1.03328,0.454306 c 0.38505,-0.299177 0.62327,-0.72301 0.62327,-1.257649 0,-0.534639 -0.23822,-0.958473 -0.62327,-1.257648 l -0.12467,0.116345 c 0.37121,0.313027 0.54295,0.675917 0.54295,1.141303 0,0.465386 -0.17174,0.828275 -0.54295,1.141302 z"
       id="text11976-3-1-8-1"
       style="font-size:4.23333px;line-height:1.25;font-family:'Source Code Pro';-inkscape-font-specification:'Source Code Pro, Normal';fill:#ffffff;stroke-width:0.173134"
       aria-label="f(::Int)" />
    <path
       d="m 112.3442,60.976642 h 0.22437 v -1.160693 h 0.56512 v -0.185601 h -0.56512 v -0.121886 c 0,-0.218842 0.0997,-0.351808 0.34073,-0.351808 0.11634,0 0.20222,0.01386 0.31303,0.06371 l 0.0526,-0.171749 c -0.12742,-0.05263 -0.25485,-0.07756 -0.38782,-0.07756 -0.3712,0 -0.54294,0.216072 -0.54294,0.545719 v 0.113577 l -0.38505,0.01386 v 0.171749 h 0.38505 z m 2.19119,0.487546 0.12465,-0.116346 c -0.3712,-0.313027 -0.54295,-0.675916 -0.54295,-1.141302 0,-0.465385 0.17175,-0.828275 0.54295,-1.141302 l -0.12465,-0.116347 c -0.38506,0.299176 -0.62329,0.72301 -0.62329,1.257649 0,0.534639 0.23823,0.958473 0.62329,1.257648 z m 1.29366,-1.446018 c 0.12465,0 0.22438,-0.09418 0.22438,-0.232693 0,-0.141277 -0.0997,-0.235463 -0.22438,-0.235463 -0.12466,0 -0.22439,0.09418 -0.22439,0.235463 0,0.138507 0.0997,0.232693 0.22439,0.232693 z m 0,0.991714 c 0.12465,0 0.22438,-0.09418 0.22438,-0.232693 0,-0.141277 -0.0997,-0.235463 -0.22438,-0.235463 -0.12466,0 -0.22439,0.09418 -0.22439,0.235463 0,0.138508 0.0997,0.232693 0.22439,0.232693 z m 1.66208,-0.991714 c 0.12466,0 0.22438,-0.09418 0.22438,-0.232693 0,-0.141277 -0.0997,-0.235463 -0.22438,-0.235463 -0.12465,0 -0.22437,0.09418 -0.22437,0.235463 0,0.138507 0.0997,0.232693 0.22437,0.232693 z m 0,0.991714 c 0.12466,0 0.22438,-0.09418 0.22438,-0.232693 0,-0.141277 -0.0997,-0.235463 -0.22438,-0.235463 -0.12465,0 -0.22437,0.09418 -0.22437,0.235463 0,0.138508 0.0997,0.232693 0.22437,0.232693 z m 1.09422,-0.03324 h 1.13576 v -0.196679 h -0.45154 v -1.42663 h 0.45154 v -0.193911 h -1.13576 v 0.193911 h 0.45153 v 1.42663 h -0.45153 z m 1.65655,0 h 0.22716 v -0.93908 c 0.1579,-0.163439 0.26593,-0.243773 0.4266,-0.243773 0.2216,0 0.31025,0.121886 0.31025,0.376741 v 0.806113 h 0.22716 V 60.14006 c 0,-0.35458 -0.14682,-0.542951 -0.46539,-0.542951 -0.21053,0 -0.36566,0.113577 -0.50693,0.263165 h -0.011 l -0.0193,-0.229923 h -0.18842 z m 2.4959,0.03324 c 0.16899,0 0.29918,-0.03601 0.42107,-0.08033 l -0.0499,-0.166209 c -0.097,0.03601 -0.19668,0.06094 -0.3241,0.06094 -0.2604,0 -0.34073,-0.127426 -0.34073,-0.36843 V 59.81595 h 0.66206 v -0.185599 h -0.66206 v -0.432144 h -0.18837 l -0.0306,0.432144 -0.38782,0.01386 v 0.171749 h 0.37952 v 0.637134 c 0,0.332418 0.12742,0.5568 0.52078,0.5568 z m 1.03328,0.454304 c 0.38505,-0.299175 0.62327,-0.723009 0.62327,-1.257648 0,-0.534639 -0.23822,-0.958473 -0.62327,-1.257649 l -0.12466,0.116347 c 0.37121,0.313027 0.54295,0.675917 0.54295,1.141302 0,0.465386 -0.17174,0.828275 -0.54295,1.141302 z"
       id="text11976-3-1-8-1-4"
       style="font-size:4.23333px;line-height:1.25;font-family:'Source Code Pro';-inkscape-font-specification:'Source Code Pro, Normal';fill:#ffffff;stroke-width:0.173134"
       aria-label="f(::Int)" />
    <path
       d="m 112.49379,51.99303 c 0.45707,0 0.74793,-0.218841 0.74793,-0.470925 0,-0.227153 -0.16621,-0.315798 -0.51247,-0.315798 h -0.30195 c -0.17729,0 -0.27979,-0.04986 -0.27979,-0.155128 0,-0.06371 0.0388,-0.113577 0.10532,-0.155129 0.0749,0.03324 0.1579,0.04986 0.22715,0.04986 0.29086,0 0.52079,-0.174519 0.52079,-0.462615 0,-0.10803 -0.0526,-0.207761 -0.11357,-0.271474 h 0.34903 v -0.1856 h -0.55681 c -0.0581,-0.02215 -0.12186,-0.03324 -0.19944,-0.03324 -0.28533,0 -0.52909,0.188371 -0.52909,0.482008 0,0.160668 0.0747,0.279784 0.16621,0.349037 v 0.01107 c -0.10251,0.06925 -0.16066,0.16621 -0.16066,0.252084 0,0.113576 0.0664,0.18283 0.13849,0.221612 v 0.01108 c -0.14404,0.0831 -0.22161,0.19114 -0.22161,0.299177 0,0.238232 0.22716,0.37397 0.62052,0.37397 z m -0.0138,-1.199475 c -0.16898,0 -0.31026,-0.124656 -0.31026,-0.318567 0,-0.188371 0.14128,-0.315799 0.31026,-0.315799 0.17176,0 0.31026,0.127428 0.31026,0.315799 0,0.193911 -0.1385,0.318567 -0.31026,0.318567 z m 0.0306,1.033266 c -0.28809,0 -0.44044,-0.08864 -0.44044,-0.229923 0,-0.07756 0.0443,-0.155128 0.17174,-0.224381 0.0581,0.01661 0.12743,0.02215 0.205,0.02215 h 0.26316 c 0.20499,0 0.30749,0.03601 0.30749,0.163438 0,0.138508 -0.19392,0.268706 -0.50695,0.268706 z m 2.02499,0.03324 0.12465,-0.116347 c -0.3712,-0.313026 -0.54294,-0.675917 -0.54294,-1.141302 0,-0.465385 0.17174,-0.828275 0.54294,-1.141302 l -0.12465,-0.116346 c -0.38506,0.299176 -0.62328,0.723009 -0.62328,1.257648 0,0.53464 0.23822,0.958473 0.62328,1.257649 z m 1.29366,-1.446019 c 0.12466,0 0.22438,-0.09418 0.22438,-0.232692 0,-0.141279 -0.0997,-0.235463 -0.22438,-0.235463 -0.12466,0 -0.22439,0.09418 -0.22439,0.235463 0,0.138508 0.0997,0.232692 0.22439,0.232692 z m 0,0.991715 c 0.12466,0 0.22438,-0.09418 0.22438,-0.232694 0,-0.141277 -0.0997,-0.235462 -0.22438,-0.235462 -0.12466,0 -0.22439,0.09418 -0.22439,0.235462 0,0.138508 0.0997,0.232694 0.22439,0.232694 z m 1.66208,-0.991715 c 0.12466,0 0.22439,-0.09418 0.22439,-0.232692 0,-0.141279 -0.0997,-0.235463 -0.22439,-0.235463 -0.12464,0 -0.22437,0.09418 -0.22437,0.235463 0,0.138508 0.0997,0.232692 0.22437,0.232692 z m 0,0.991715 c 0.12466,0 0.22439,-0.09418 0.22439,-0.232694 0,-0.141277 -0.0997,-0.235462 -0.22439,-0.235462 -0.12464,0 -0.22437,0.09418 -0.22437,0.235462 0,0.138508 0.0997,0.232694 0.22437,0.232694 z m 1.09422,-0.03324 h 1.13577 v -0.196681 h -0.45154 v -1.426628 h 0.45154 v -0.193911 h -1.13577 v 0.193911 h 0.45153 v 1.426628 h -0.45153 z m 1.65655,0 h 0.22717 v -0.939081 c 0.15789,-0.16344 0.26592,-0.243774 0.4266,-0.243774 0.2216,0 0.31024,0.121886 0.31024,0.37674 v 0.806115 h 0.22716 v -0.836586 c 0,-0.354579 -0.14681,-0.54295 -0.46538,-0.54295 -0.21053,0 -0.36567,0.113577 -0.50694,0.263164 h -0.011 l -0.0193,-0.229922 h -0.18855 z m 2.49591,0.03324 c 0.16899,0 0.29917,-0.03601 0.42107,-0.08033 l -0.0499,-0.16621 c -0.097,0.03601 -0.19669,0.06095 -0.3241,0.06095 -0.2604,0 -0.34074,-0.127428 -0.34074,-0.36843 v -0.639905 h 0.66206 v -0.185597 h -0.66206 V 49.59408 h -0.18837 l -0.0306,0.432144 -0.38781,0.01386 v 0.17175 h 0.37952 v 0.637134 c 0,0.332418 0.12741,0.556802 0.52077,0.556802 z m 1.03327,0.454304 c 0.38505,-0.299176 0.62329,-0.723009 0.62329,-1.257649 0,-0.534639 -0.23824,-0.958472 -0.62329,-1.257648 l -0.12465,0.116346 c 0.3712,0.313027 0.54295,0.675917 0.54295,1.141302 0,0.465385 -0.17175,0.828276 -0.54295,1.141302 z"
       id="text11976-3-1-8-1-4-1"
       style="font-size:4.23333px;line-height:1.25;font-family:'Source Code Pro';-inkscape-font-specification:'Source Code Pro, Normal';fill:#ffffff;stroke-width:0.173134"
       aria-label="g(::Int)" />
    <path
       d="m 106.53933,40.688036 h 0.45293 v -0.357351 h 0.0208 c 0.0914,0.253469 0.31995,0.407212 0.60666,0.407212 0.54434,0 0.86015,-0.419678 0.86015,-1.130222 0,-0.710545 -0.31581,-1.130222 -0.86015,-1.130222 -0.28671,0 -0.51524,0.149588 -0.60666,0.407212 h -0.0208 v -1.271501 h -0.45293 z m 0.94324,-0.340729 c -0.27424,0 -0.49031,-0.149589 -0.49031,-0.369816 V 39.23786 c 0,-0.220228 0.21607,-0.369816 0.49031,-0.369816 0.31165,0 0.5194,0.220228 0.5194,0.552646 v 0.373971 c 0,0.332419 -0.20775,0.552646 -0.5194,0.552646 z"
       id="text11976-3-1-3"
       style="font-weight:500;font-size:6.35px;line-height:1.25;font-family:'IBM Plex Sans';-inkscape-font-specification:'IBM Plex Sans, Medium';fill:#ffffff;stroke-width:0.173134"
       aria-label="b" />
    <path
       d="m 107.51998,51.472243 c 0.41552,0 0.71054,-0.195295 0.85183,-0.548491 l -0.3449,-0.182829 c -0.0914,0.216072 -0.24515,0.35735 -0.50693,0.35735 -0.33242,0 -0.50278,-0.228538 -0.50278,-0.560957 V 50.15088 c 0,-0.332419 0.17036,-0.560955 0.50278,-0.560955 0.24516,0 0.3989,0.128812 0.46123,0.328262 l 0.37396,-0.174519 c -0.1288,-0.319953 -0.40304,-0.53187 -0.83519,-0.53187 -0.62329,0 -0.98064,0.440454 -0.98064,1.130223 0,0.689768 0.35735,1.130222 0.98064,1.130222 z"
       id="text11976-3-1-3-6"
       style="font-weight:500;font-size:6.35px;line-height:1.25;font-family:'IBM Plex Sans';-inkscape-font-specification:'IBM Plex Sans, Medium';fill:#ffffff;stroke-width:0.173134"
       aria-label="c" />
    <path
       d="m 108.02691,61.464187 h 0.45293 v -3.074871 h -0.45293 v 1.271502 h -0.0207 c -0.0914,-0.257625 -0.31996,-0.407212 -0.60667,-0.407212 -0.54433,0 -0.86013,0.419678 -0.86013,1.130222 0,0.710544 0.3158,1.130222 0.86013,1.130222 0.28671,0 0.51525,-0.153743 0.60667,-0.407212 h 0.0207 z m -0.49031,-0.340729 c -0.31165,0 -0.5194,-0.220227 -0.5194,-0.552645 v -0.373971 c 0,-0.332419 0.20775,-0.552645 0.5194,-0.552645 0.27424,0 0.49031,0.149588 0.49031,0.369815 v 0.739631 c 0,0.220227 -0.21607,0.369815 -0.49031,0.369815 z"
       id="text11976-3-1-3-5"
       style="font-weight:500;font-size:6.35px;line-height:1.25;font-family:'IBM Plex Sans';-inkscape-font-specification:'IBM Plex Sans, Medium';fill:#ffffff;stroke-width:0.173134"
       aria-label="d" />
    <path
       d="m 113.38207,70.899793 c 0.10663,-0.350424 0.20315,-0.726243 0.28949,-1.091904 h 0.0202 c 0.0964,0.360583 0.19299,0.74148 0.29964,1.091904 l 0.11172,0.396132 h -0.83289 z m -1.11729,1.7572 h 0.6145 l 0.25394,-0.888757 h 1.10205 l 0.25393,0.888757 h 0.63991 l -1.07666,-3.321414 h -0.71101 z m 4.09844,0.06095 c 0.26409,0 0.51801,-0.147281 0.70084,-0.330111 h 0.0202 l 0.0458,0.269167 h 0.48753 v -3.585501 h -0.59927 v 0.898914 l 0.0254,0.401211 c -0.19298,-0.167595 -0.37074,-0.274245 -0.65006,-0.274245 -0.54849,0 -1.05635,0.497703 -1.05635,1.31536 0,0.822736 0.4012,1.305205 1.02588,1.305205 z m 0.14728,-0.497705 c -0.35551,0 -0.55865,-0.279324 -0.55865,-0.817656 0,-0.51294 0.25901,-0.807501 0.5688,-0.807501 0.1676,0 0.33012,0.05079 0.49771,0.203145 v 1.147768 c -0.15743,0.192986 -0.31996,0.274244 -0.50786,0.274244 z m 2.40727,0.436761 h 0.69068 l 0.84814,-2.498678 h -0.57897 l -0.39105,1.28489 c -0.066,0.248851 -0.1422,0.502783 -0.20823,0.756712 h -0.0202 c -0.0711,-0.253929 -0.1422,-0.507861 -0.2133,-0.756712 l -0.38597,-1.28489 h -0.60945 z m 1.96541,0 h 0.60436 v -2.498677 h -0.60436 z m 0.30471,-2.925281 c 0.21331,0 0.36059,-0.137123 0.36059,-0.340269 0,-0.203145 -0.14728,-0.340267 -0.36059,-0.340267 -0.21329,0 -0.36057,0.137122 -0.36057,0.340267 0,0.203146 0.14728,0.340269 0.36057,0.340269 z m 2.07717,2.986225 c 0.28439,0 0.57895,-0.09649 0.81765,-0.304717 l -0.24377,-0.380896 c -0.14221,0.116808 -0.31487,0.198066 -0.51294,0.198066 -0.38091,0 -0.65008,-0.325032 -0.65008,-0.817658 0,-0.497704 0.27426,-0.822735 0.67039,-0.822735 0.15745,0 0.2844,0.05079 0.41136,0.162516 l 0.2895,-0.375817 c -0.18284,-0.162516 -0.41646,-0.279324 -0.73133,-0.279324 -0.67038,0 -1.2595,0.482468 -1.2595,1.31536 0,0.827815 0.52818,1.305205 1.20872,1.305205 z m 2.23966,0 c 0.32504,0 0.62976,-0.09142 0.86337,-0.264089 l -0.20316,-0.375817 c -0.17266,0.11173 -0.36566,0.172673 -0.57894,0.172673 -0.39615,0 -0.66023,-0.243774 -0.72117,-0.660221 h 1.57436 c 0.0202,-0.09142 0.0306,-0.182829 0.0306,-0.304716 0,-0.700849 -0.36565,-1.188395 -1.0411,-1.188395 -0.58405,0 -1.15285,0.497703 -1.15285,1.310282 0,0.832893 0.53833,1.310283 1.22903,1.310283 z m -0.6399,-1.574371 c 0.0508,-0.375818 0.29455,-0.578962 0.57896,-0.578962 0.32503,0 0.49772,0.213302 0.49772,0.578962 z"
       id="text15298"
       style="font-weight:600;font-size:7.76111px;line-height:1.25;font-family:'Source Sans Pro';-inkscape-font-specification:'Source Sans Pro, Semi-Bold';stroke-width:0.173134"
       aria-label="Advice" />
    <path
       d="m 40.334956,72.717937 c 0.726243,0 1.036039,-0.502784 1.036039,-1.127454 v -2.254904 h -0.604356 v 2.204119 c 0,0.482467 -0.157436,0.655141 -0.482467,0.655141 -0.213302,0 -0.391054,-0.106657 -0.507863,-0.319953 l -0.391052,0.264088 c 0.203143,0.396131 0.51294,0.578963 0.949699,0.578963 z m 2.838949,0 c 0.61959,0 1.188395,-0.477391 1.188395,-1.305205 0,-0.832893 -0.568805,-1.315362 -1.188395,-1.315362 -0.62467,0 -1.193475,0.482469 -1.193475,1.315362 0,0.827814 0.568805,1.305205 1.193475,1.305205 z m 0,-0.487547 c -0.360583,0 -0.573885,-0.325032 -0.573885,-0.817658 0,-0.497704 0.213302,-0.822735 0.573885,-0.822735 0.360581,0 0.573883,0.325031 0.573883,0.822735 0,0.492626 -0.213302,0.817658 -0.573883,0.817658 z m 1.757198,0.426603 h 0.604355 v -2.498679 h -0.604355 z m 0.304718,-2.925281 c 0.213301,0 0.360581,-0.137124 0.360581,-0.340269 0,-0.203145 -0.14728,-0.340267 -0.360581,-0.340267 -0.213303,0 -0.360582,0.137122 -0.360582,0.340267 0,0.203145 0.147279,0.340269 0.360582,0.340269 z m 1.030961,2.925281 h 0.604355 v -1.736886 c 0.198066,-0.203145 0.340267,-0.304717 0.558647,-0.304717 0.264088,0 0.380895,0.147279 0.380895,0.553569 v 1.488034 h 0.599277 V 71.09278 c 0,-0.629749 -0.233616,-0.99541 -0.771948,-0.99541 -0.340269,0 -0.594198,0.182832 -0.817658,0.396134 h -0.01523 l -0.04571,-0.33519 h -0.492625 z m 3.920697,0 h 0.604356 v -1.213789 h 0.467232 c 0.716085,0 1.269653,-0.335188 1.269653,-1.076667 0,-0.771949 -0.553568,-1.030958 -1.289967,-1.030958 h -1.051274 z m 0.604356,-1.696258 v -1.142688 h 0.40121 c 0.482468,0 0.7364,0.142201 0.7364,0.54849 0,0.401211 -0.228538,0.594198 -0.716085,0.594198 z m 3.219845,1.757202 c 0.619591,0 1.188395,-0.477391 1.188395,-1.305205 0,-0.832893 -0.568804,-1.315362 -1.188395,-1.315362 -0.62467,0 -1.193474,0.482469 -1.193474,1.315362 0,0.827814 0.568804,1.305205 1.193474,1.305205 z m 0,-0.487547 c -0.360581,0 -0.573883,-0.325032 -0.573883,-0.817658 0,-0.497704 0.213302,-0.822735 0.573883,-0.822735 0.360581,0 0.573883,0.325031 0.573883,0.822735 0,0.492626 -0.213302,0.817658 -0.573883,0.817658 z m 1.757201,0.426603 h 0.604354 v -2.498679 h -0.604354 z m 0.304717,-2.925281 c 0.213301,0 0.360582,-0.137124 0.360582,-0.340269 0,-0.203145 -0.147281,-0.340267 -0.360582,-0.340267 -0.213303,0 -0.360582,0.137122 -0.360582,0.340267 0,0.203145 0.147279,0.340269 0.360582,0.340269 z m 1.03096,2.925281 h 0.604355 v -1.736886 c 0.198067,-0.203145 0.340268,-0.304717 0.558649,-0.304717 0.264087,0 0.380896,0.147279 0.380896,0.553569 v 1.488034 h 0.599276 V 71.09278 c 0,-0.629749 -0.233616,-0.99541 -0.771949,-0.99541 -0.340268,0 -0.594198,0.182832 -0.817657,0.396134 h -0.01523 l -0.04571,-0.33519 h -0.492626 z m 3.737864,0.06095 c 0.203145,0 0.385975,-0.04571 0.51802,-0.106646 l -0.106657,-0.421524 c -0.08634,0.03555 -0.172673,0.05079 -0.259009,0.05079 -0.233617,0 -0.350424,-0.1422 -0.350424,-0.431681 v -1.173173 h 0.634826 v -0.477393 h -0.634826 v -0.777027 h -0.497705 l -0.07109,0.777027 -0.385975,0.03047 v 0.446917 h 0.355503 v 1.173162 c 0,0.543411 0.213301,0.909071 0.797342,0.909071 z m 1.604846,0 c 0.634825,0 0.980172,-0.345347 0.980172,-0.777029 0,-0.431683 -0.340267,-0.629748 -0.726242,-0.761792 -0.314874,-0.106657 -0.492626,-0.177751 -0.492626,-0.360581 0,-0.14728 0.11173,-0.269166 0.360582,-0.269166 0.198065,0 0.380897,0.06094 0.558647,0.192986 l 0.25901,-0.340267 c -0.203145,-0.177751 -0.492626,-0.304716 -0.832894,-0.304716 -0.558647,0 -0.91415,0.314875 -0.91415,0.751634 0,0.396132 0.335189,0.604355 0.69577,0.736399 0.279324,0.101569 0.523097,0.182831 0.523097,0.391053 0,0.167595 -0.126964,0.289482 -0.391052,0.289482 -0.253931,0 -0.482469,-0.07617 -0.700849,-0.253931 l -0.264088,0.340267 c 0.243773,0.233617 0.599276,0.365661 0.944623,0.365661 z"
       id="text15298-8"
       style="font-weight:600;font-size:7.76111px;line-height:1.25;font-family:'Source Sans Pro';-inkscape-font-specification:'Source Sans Pro, Semi-Bold';stroke-width:0.173134"
       aria-label="Join Points" />
    <path
       d="m 74.877847,72.656993 h 0.604359 v -1.213789 h 0.467232 c 0.71608,0 1.269655,-0.335188 1.269655,-1.076667 0,-0.771949 -0.553575,-1.030958 -1.289973,-1.030958 h -1.051273 z m 0.604359,-1.696258 v -1.142688 h 0.401207 c 0.482471,0 0.736398,0.142201 0.736398,0.54849 0,0.401211 -0.228538,0.594198 -0.716081,0.594198 z m 3.219847,1.757202 c 0.619586,0 1.188395,-0.477391 1.188395,-1.305205 0,-0.832893 -0.568809,-1.315362 -1.188395,-1.315362 -0.624672,0 -1.19348,0.482469 -1.19348,1.315362 0,0.827814 0.568808,1.305205 1.19348,1.305205 z m 0,-0.487547 c -0.360583,0 -0.573887,-0.325032 -0.573887,-0.817658 0,-0.497704 0.213304,-0.822735 0.573887,-0.822735 0.360575,0 0.573879,0.325031 0.573879,0.822735 0,0.492626 -0.213304,0.817658 -0.573879,0.817658 z m 1.757197,0.426603 h 0.604355 V 70.158314 H 80.45925 Z m 0.304712,-2.925281 c 0.213304,0 0.360583,-0.137124 0.360583,-0.340269 0,-0.203145 -0.147279,-0.340267 -0.360583,-0.340267 -0.213296,0 -0.360575,0.137122 -0.360575,0.340267 0,0.203145 0.147279,0.340269 0.360575,0.340269 z m 1.030962,2.925281 h 0.604361 v -1.736886 c 0.198065,-0.203145 0.340264,-0.304717 0.558646,-0.304717 0.26409,0 0.380894,0.147279 0.380894,0.553569 v 1.488034 H 83.9381 V 71.09278 c 0,-0.629749 -0.233614,-0.99541 -0.771949,-0.99541 -0.340265,0 -0.594199,0.182832 -0.817658,0.396134 h -0.01524 l -0.04574,-0.33519 h -0.492628 z m 3.737869,0.06095 c 0.203143,0 0.385972,-0.04571 0.518017,-0.106646 l -0.106646,-0.421524 c -0.08634,0.03555 -0.172674,0.05079 -0.259012,0.05079 -0.233615,0 -0.350426,-0.1422 -0.350426,-0.431681 v -1.173179 h 0.634828 v -0.477387 h -0.634828 v -0.777027 h -0.497704 l -0.0711,0.777027 -0.385978,0.03047 v 0.446917 h 0.355505 v 1.173162 c 0,0.543411 0.213303,0.909071 0.797345,0.909071 z m 1.919717,0 c 0.2844,0 0.578958,-0.09649 0.817657,-0.304717 L 88.026389,72.03233 c -0.1422,0.116808 -0.314875,0.198066 -0.512938,0.198066 -0.380894,0 -0.650061,-0.325032 -0.650061,-0.817658 0,-0.497704 0.274245,-0.822735 0.670379,-0.822735 0.157434,0 0.284401,0.05079 0.411369,0.162516 l 0.289477,-0.375817 c -0.18283,-0.162516 -0.416445,-0.279324 -0.73132,-0.279324 -0.670378,0 -1.259499,0.482468 -1.259499,1.31536 0,0.827815 0.528179,1.305205 1.208714,1.305205 z m 2.041599,0 c 0.345348,0 0.584042,-0.167595 0.802424,-0.426605 h 0.01525 l 0.04574,0.365661 h 0.492628 v -2.498677 h -0.599276 v 1.706415 c -0.182831,0.238695 -0.32503,0.340267 -0.543414,0.340267 -0.264088,0 -0.380893,-0.152359 -0.380893,-0.558647 V 70.15832 h -0.599285 v 1.564214 c 0,0.629748 0.233615,0.995409 0.766866,0.995409 z m 2.981151,0 c 0.203142,0 0.385973,-0.04571 0.518016,-0.106646 l -0.106644,-0.421524 c -0.08634,0.03555 -0.172674,0.05079 -0.259012,0.05079 -0.233616,0 -0.35042,-0.1422 -0.35042,-0.431681 v -1.173173 h 0.634821 V 70.15832 H 92.2772 v -0.777027 h -0.497705 l -0.07111,0.777027 -0.385973,0.03047 v 0.446917 h 0.355506 v 1.173162 c 0,0.543411 0.213296,0.909071 0.797338,0.909071 z m 1.604843,0 c 0.634827,0 0.980176,-0.345347 0.980176,-0.777029 0,-0.431683 -0.34027,-0.629748 -0.726243,-0.761792 -0.314875,-0.106657 -0.492627,-0.177751 -0.492627,-0.360581 0,-0.14728 0.111733,-0.269166 0.360582,-0.269166 0.198064,0 0.380895,0.06094 0.558647,0.192986 l 0.259011,-0.340267 c -0.203148,-0.177751 -0.492628,-0.304716 -0.832891,-0.304716 -0.558646,0 -0.914151,0.314875 -0.914151,0.751634 0,0.396132 0.335187,0.604355 0.695768,0.736399 0.279324,0.101569 0.523095,0.182831 0.523095,0.391053 0,0.167595 -0.126961,0.289482 -0.391049,0.289482 -0.253935,0 -0.482472,-0.07617 -0.700848,-0.253931 l -0.264088,0.340267 c 0.243771,0.233617 0.599275,0.365661 0.944618,0.365661 z"
       id="text15298-8-0"
       style="font-weight:600;font-size:7.76111px;line-height:1.25;font-family:'Source Sans Pro';-inkscape-font-specification:'Source Sans Pro, Semi-Bold';stroke-width:0.173134"
       aria-label="Pointcuts" />
    <path
       style="fill:none;stroke:#9558b2;stroke-width:0.327183;stroke-linecap:round;stroke-linejoin:miter;stroke-dasharray:none;stroke-opacity:1;marker-end:url(#RoundedArrow)"
       d="M 103.44506,32.031305 72.280828,57.135825"
       id="path15786"
       sodipodi:nodetypes="cc" />
    <path
       style="fill:none;stroke:#4063d8;stroke-width:0.327183;stroke-linecap:round;stroke-linejoin:miter;stroke-dasharray:none;stroke-opacity:1;marker-end:url(#RoundedArrow-6)"
       d="M 102.57938,50.210439 H 66.221117"
       id="path15786-6"
       sodipodi:nodetypes="cc" />
    <path
       style="fill:none;stroke:#389826;stroke-width:0.327183;stroke-linecap:round;stroke-linejoin:miter;stroke-dasharray:none;stroke-opacity:1;marker-end:url(#RoundedArrow-6-7)"
       d="M 102.57938,38.956691 66.221117,36.359671"
       id="path15786-6-6"
       sodipodi:nodetypes="cc" />
    <path
       style="fill:none;stroke:#389826;stroke-width:0.327183;stroke-linecap:round;stroke-linejoin:miter;stroke-dasharray:none;stroke-opacity:1;marker-end:url(#RoundedArrow-6-7-4)"
       d="M 103.44506,58.001497 66.221117,38.956691"
       id="path15786-6-6-0"
       sodipodi:nodetypes="cc" />
    <path
       style="fill:none;stroke:#cb3c33;stroke-width:0.173134px;stroke-linecap:butt;stroke-linejoin:miter;stroke-opacity:1;marker-end:url(#marker16603)"
       d="M 102.02551,24.240248 H 41.982273 c -5.194037,0 -7.791056,2.273586 -7.791056,7.791057 v 1.731347"
       id="path16599"
       sodipodi:nodetypes="cccc" />
    <path
       style="fill:none;stroke:#cb3c33;stroke-width:0.173134px;stroke-linecap:butt;stroke-linejoin:miter;stroke-opacity:1"
       d="m 34.191217,39.822363 10e-7,6.059711"
       id="path16827"
       sodipodi:nodetypes="cc" />
    <path
       style="fill:none;stroke:#cb3c33;stroke-width:0.173134px;stroke-linecap:butt;stroke-linejoin:miter;stroke-opacity:1"
       d="m 34.191217,52.374622 10e-7,6.059711"
       id="path16827-3"
       sodipodi:nodetypes="cc" />
  </g>
</svg>
