<?xml version="1.0" encoding="UTF-8" standalone="no"?>
<!-- Created with Inkscape (http://www.inkscape.org/) -->

<svg
   width="119.26517mm"
   height="67.359413mm"
   viewBox="0 0 119.26517 67.359414"
   version="1.1"
   id="svg5"
   inkscape:version="1.3.2 (091e20ef0f, 2023-11-25)"
   sodipodi:docname="advice-flow.svg"
   xmlns:inkscape="http://www.inkscape.org/namespaces/inkscape"
   xmlns:sodipodi="http://sodipodi.sourceforge.net/DTD/sodipodi-0.dtd"
   xmlns="http://www.w3.org/2000/svg"
   xmlns:svg="http://www.w3.org/2000/svg">
  <sodipodi:namedview
     id="namedview7"
     pagecolor="#ffffff"
     bordercolor="#999999"
     borderopacity="1"
     inkscape:showpageshadow="0"
     inkscape:pageopacity="0"
     inkscape:pagecheckerboard="0"
     inkscape:deskcolor="#d1d1d1"
     inkscape:document-units="mm"
     showgrid="true"
     inkscape:zoom="1.5679012"
     inkscape:cx="522.99214"
     inkscape:cy="175.07481"
     inkscape:window-width="2429"
     inkscape:window-height="1187"
     inkscape:window-x="0"
     inkscape:window-y="0"
     inkscape:window-maximized="0"
     inkscape:current-layer="text209">
    <inkscape:grid
       type="xygrid"
       id="grid153"
       originx="-0.029831063"
       originy="-68.031046"
       visible="true"
       enabled="true"
       spacingy="1"
       spacingx="1"
       units="mm" />
  </sodipodi:namedview>
  <defs
     id="defs2">
    <marker
       style="overflow:visible"
       id="marker3440"
       refX="0"
       refY="0"
       orient="auto-start-reverse"
       inkscape:stockid="RoundedArrow"
       markerWidth="5.0997982"
       markerHeight="4.9299998"
       viewBox="0 0 6.1347524 5.9304951"
       inkscape:isstock="true"
       inkscape:collect="always"
       preserveAspectRatio="xMidYMid">
      <path
         transform="scale(0.7)"
         d="m -0.21114562,-4.1055728 6.42229122,3.21114561 a 1,1 90 0 1 0,1.78885438 L -0.21114562,4.1055728 A 1.236068,1.236068 31.717474 0 1 -2,3 v -6 a 1.236068,1.236068 148.28253 0 1 1.78885438,-1.1055728 z"
         style="fill:context-stroke;fill-rule:evenodd;stroke:none"
         id="path3438" />
    </marker>
    <marker
       style="overflow:visible"
       id="RoundedArrow"
       refX="0"
       refY="0"
       orient="auto-start-reverse"
       inkscape:stockid="RoundedArrow"
       markerWidth="6.1694117"
       markerHeight="5.9640002"
       viewBox="0 0 6.1347524 5.9304951"
       inkscape:isstock="true"
       inkscape:collect="always"
       preserveAspectRatio="xMidYMid">
      <path
         transform="scale(0.7)"
         d="m -0.21114562,-4.1055728 6.42229122,3.21114561 a 1,1 90 0 1 0,1.78885438 L -0.21114562,4.1055728 A 1.236068,1.236068 31.717474 0 1 -2,3 v -6 a 1.236068,1.236068 148.28253 0 1 1.78885438,-1.1055728 z"
         style="fill:context-stroke;fill-rule:evenodd;stroke:none"
         id="path1367" />
    </marker>
    <marker
       style="overflow:visible"
       id="marker2886"
       refX="0"
       refY="0"
       orient="auto"
       inkscape:stockid="Dot"
       markerWidth="4.6669998"
       markerHeight="4.6669998"
       viewBox="0 0 5.6666667 5.6666667"
       inkscape:isstock="true"
       inkscape:collect="always"
       preserveAspectRatio="xMidYMid">
      <path
         transform="scale(0.5)"
         style="fill:context-stroke;fill-rule:evenodd;stroke:context-stroke;stroke-width:1pt"
         d="M 5,0 C 5,2.76 2.76,5 0,5 -2.76,5 -5,2.76 -5,0 c 0,-2.76 2.3,-5 5,-5 2.76,0 5,2.24 5,5 z"
         id="path2884"
         sodipodi:nodetypes="sssss" />
    </marker>
    <marker
       style="overflow:visible"
       id="marker2886-3"
       refX="0"
       refY="0"
       orient="auto"
       inkscape:stockid="Dot"
       markerWidth="3.6670001"
       markerHeight="3.6670001"
       viewBox="0 0 5.6666667 5.6666667"
       inkscape:isstock="true"
       inkscape:collect="always"
       preserveAspectRatio="xMidYMid">
      <path
         transform="scale(0.5)"
         style="fill:context-stroke;fill-rule:evenodd;stroke:context-stroke;stroke-width:1pt"
         d="M 5,0 C 5,2.76 2.76,5 0,5 -2.76,5 -5,2.76 -5,0 c 0,-2.76 2.3,-5 5,-5 2.76,0 5,2.24 5,5 z"
         id="path2884-8"
         sodipodi:nodetypes="sssss" />
    </marker>
    <marker
       style="overflow:visible"
       id="RoundedArrow-2"
       refX="0"
       refY="0"
       orient="auto-start-reverse"
       inkscape:stockid="RoundedArrow"
       markerWidth="6.1694117"
       markerHeight="5.9640002"
       viewBox="0 0 6.1347524 5.9304951"
       inkscape:isstock="true"
       inkscape:collect="always"
       preserveAspectRatio="xMidYMid">
      <path
         transform="scale(0.7)"
         d="m -0.21114562,-4.1055728 6.42229122,3.21114561 a 1,1 90 0 1 0,1.78885438 L -0.21114562,4.1055728 A 1.236068,1.236068 31.717474 0 1 -2,3 v -6 a 1.236068,1.236068 148.28253 0 1 1.78885438,-1.1055728 z"
         style="fill:context-stroke;fill-rule:evenodd;stroke:none"
         id="path1367-3" />
    </marker>
    <marker
       style="overflow:visible"
       id="marker2886-3-9"
       refX="0"
       refY="0"
       orient="auto"
       inkscape:stockid="Dot"
       markerWidth="3.6670001"
       markerHeight="3.6670001"
       viewBox="0 0 5.6666667 5.6666667"
       inkscape:isstock="true"
       inkscape:collect="always"
       preserveAspectRatio="xMidYMid">
      <path
         transform="scale(0.5)"
         style="fill:context-stroke;fill-rule:evenodd;stroke:context-stroke;stroke-width:1pt"
         d="M 5,0 C 5,2.76 2.76,5 0,5 -2.76,5 -5,2.76 -5,0 c 0,-2.76 2.3,-5 5,-5 2.76,0 5,2.24 5,5 z"
         id="path2884-8-1"
         sodipodi:nodetypes="sssss" />
    </marker>
    <marker
       style="overflow:visible"
       id="RoundedArrow-2-1"
       refX="0"
       refY="0"
       orient="auto-start-reverse"
       inkscape:stockid="RoundedArrow"
       markerWidth="6.1694117"
       markerHeight="5.9640002"
       viewBox="0 0 6.1347524 5.9304951"
       inkscape:isstock="true"
       inkscape:collect="always"
       preserveAspectRatio="xMidYMid">
      <path
         transform="scale(0.7)"
         d="m -0.21114562,-4.1055728 6.42229122,3.21114561 a 1,1 90 0 1 0,1.78885438 L -0.21114562,4.1055728 A 1.236068,1.236068 31.717474 0 1 -2,3 v -6 a 1.236068,1.236068 148.28253 0 1 1.78885438,-1.1055728 z"
         style="fill:context-stroke;fill-rule:evenodd;stroke:none"
         id="path1367-3-9" />
    </marker>
  </defs>
  <g
     inkscape:label="Layer 1"
     inkscape:groupmode="layer"
     id="layer1"
     transform="translate(-0.02983107,-68.031049)">
    <rect
       style="fill:#e9deed;fill-opacity:1;fill-rule:evenodd;stroke:#d3bdda;stroke-width:0.600001;stroke-linecap:round;stroke-linejoin:round;stroke-dashoffset:1.51181"
       id="rect1095-6"
       width="36.795895"
       height="5.7950397"
       x="11.112499"
       y="90.487503"
       rx="0.66145831"
       ry="0.66145831" />
    <rect
       style="fill:#f4d8d6;fill-opacity:1;fill-rule:evenodd;stroke:#eab1ad;stroke-width:0.600001;stroke-linecap:round;stroke-linejoin:round;stroke-dashoffset:1.51181"
       id="rect1095-6-5"
       width="3.7080562"
       height="6.6145782"
       x="38.364582"
       y="82.160217"
       rx="0.66145831"
       ry="0.66145831" />
    <rect
       style="fill:#d7eada;fill-opacity:1;fill-rule:evenodd;stroke:#b0d5b5;stroke-width:0.600001;stroke-linecap:round;stroke-linejoin:round;stroke-dashoffset:1.51181"
       id="rect1095-6-5-8"
       width="33.805202"
       height="6.0854187"
       x="31.75"
       y="74.612503"
       rx="0.66145831"
       ry="0.66145831" />
    <g
       id="text209"
       style="font-size:6.35px;line-height:1.2;font-family:'IBM Plex Sans';-inkscape-font-specification:'IBM Plex Sans,  weight=450';stroke-width:0.264583"
       aria-label="function advised_call(f, args...)&#10;    args = pre_process(args)&#10;    result = f(args...)&#10;    post_process(result)&#10;end">
      <path
         style="font-size:4.93889px;font-family:'Source Code Pro';-inkscape-font-specification:'Source Code Pro, Normal';fill:#4063d8"
         d="M 1.2250424,71.646317 H 1.6250925 V 69.576922 H 2.6326261 V 69.246016 H 1.6250925 v -0.217311 c 0,-0.390172 0.1778001,-0.627239 0.6074835,-0.627239 0.2074334,0 0.360539,0.02469 0.5580946,0.113594 l 0.093839,-0.306211 C 2.6573205,68.11501 2.4301316,68.07056 2.1930649,68.07056 c -0.6618113,0 -0.9680225,0.385234 -0.9680225,0.972962 v 0.202494 l -0.68650567,0.02469 v 0.306212 H 1.2250424 Z m 2.9830916,0.05927 c 0.3704167,0 0.6519335,-0.197555 0.8939391,-0.479072 h 0.019755 l 0.034572,0.419806 h 0.3309056 v -2.400301 h -0.404989 v 1.664406 c -0.2667,0.31115 -0.4691945,0.4445 -0.7457724,0.4445 -0.4000501,0 -0.5531556,-0.217311 -0.5531556,-0.671689 V 69.246016 H 3.3734616 v 1.491545 c 0,0.632178 0.2617612,0.968022 0.8346724,0.968022 z m 2.2076858,-0.05927 h 0.404989 v -1.674284 c 0.2815167,-0.291395 0.4741334,-0.434622 0.7605891,-0.434622 0.3951112,0 0.5531556,0.217311 0.5531556,0.671689 v 1.437217 h 0.404989 v -1.491545 c 0,-0.632178 -0.2617612,-0.968023 -0.8297335,-0.968023 -0.3753556,0 -0.6519335,0.202495 -0.9038169,0.469195 H 6.7862366 L 6.7516643,69.246016 H 6.4158198 Z m 4.2128752,0.05927 c 0.3556,0 0.686506,-0.138289 0.953206,-0.375355 l -0.182739,-0.261762 c -0.197556,0.167923 -0.4445,0.301273 -0.740834,0.301273 -0.553155,0 -0.9235721,-0.370417 -0.9235721,-0.918634 0,-0.553156 0.3802941,-0.928511 0.9334501,-0.928511 0.251883,0 0.459317,0.103717 0.656872,0.276578 l 0.202495,-0.261761 c -0.197556,-0.192617 -0.484011,-0.350662 -0.874184,-0.350662 -0.7260164,0 -1.3384388,0.459317 -1.3384388,1.264356 0,0.795161 0.5630335,1.254478 1.3137448,1.254478 z m 3.200403,0 c 0.301272,0 0.5334,-0.06421 0.750711,-0.143228 l -0.0889,-0.296333 c -0.172861,0.06421 -0.350661,0.108656 -0.57785,0.108656 -0.464256,0 -0.607484,-0.227189 -0.607484,-0.656873 v -1.140883 h 1.180395 v -0.330906 h -1.180395 v -0.770467 h -0.335844 l -0.05433,0.770467 -0.691445,0.02469 v 0.306212 h 0.676628 v 1.135944 c 0,0.592667 0.227189,0.992717 0.928512,0.992717 z m 2.578102,-0.05927 h 0.404989 v -2.400301 h -1.521178 v 0.330906 H 16.4072 Z m 0.158045,-2.904068 c 0.182739,0 0.325966,-0.123472 0.325966,-0.316089 0,-0.187678 -0.143227,-0.316089 -0.325966,-0.316089 -0.182739,0 -0.325967,0.128411 -0.325967,0.316089 0,0.192617 0.143228,0.316089 0.325967,0.316089 z m 2.726269,2.963334 c 0.632178,0 1.185334,-0.459317 1.185334,-1.254478 0,-0.805039 -0.553156,-1.264356 -1.185334,-1.264356 -0.632178,0 -1.185334,0.459317 -1.185334,1.264356 0,0.795161 0.553156,1.254478 1.185334,1.254478 z m 0,-0.335844 c -0.459317,0 -0.765528,-0.370417 -0.765528,-0.918634 0,-0.553156 0.306211,-0.928511 0.765528,-0.928511 0.459317,0 0.765528,0.375355 0.765528,0.928511 0,0.548217 -0.306211,0.918634 -0.765528,0.918634 z m 1.940985,0.276578 h 0.404989 v -1.674284 c 0.281517,-0.291395 0.474133,-0.434622 0.760589,-0.434622 0.395111,0 0.553156,0.217311 0.553156,0.671689 v 1.437217 h 0.404989 v -1.491545 c 0,-0.632178 -0.261762,-0.968023 -0.829734,-0.968023 -0.375356,0 -0.651933,0.202495 -0.903817,0.469195 h -0.01975 l -0.03457,-0.409928 h -0.335844 z"
         id="path1" />
      <path
         style="font-size:4.93889px;font-family:'Source Code Pro';-inkscape-font-specification:'Source Code Pro, Normal';fill:#cb3c33"
         d="m 27.914823,71.705583 c 0.340783,0 0.681567,-0.1778 0.948267,-0.385233 h 0.01482 l 0.03457,0.325967 h 0.330905 v -1.47179 c 0,-0.597605 -0.316089,-0.987778 -0.972961,-0.987778 -0.419806,0 -0.824795,0.187678 -1.0668,0.345723 l 0.158044,0.276577 c 0.22225,-0.138288 0.528461,-0.286455 0.839611,-0.286455 0.464256,0 0.62724,0.276578 0.637117,0.602544 -1.239661,0.09878 -1.738489,0.360539 -1.738489,0.898878 0,0.429684 0.365478,0.681567 0.814917,0.681567 z m 0.108655,-0.325967 c -0.276577,0 -0.528461,-0.113594 -0.528461,-0.385233 0,-0.316089 0.316089,-0.518583 1.343378,-0.602545 v 0.632178 c -0.271639,0.227189 -0.543278,0.3556 -0.814917,0.3556 z m 2.978152,0.325967 c 0.296334,0 0.582789,-0.172861 0.780345,-0.375355 h 0.01482 l 0.03457,0.316089 h 0.335844 v -3.51649 h -0.404989 v 0.923572 l 0.01976,0.4445 h -0.01482 c -0.207433,-0.197555 -0.429683,-0.31115 -0.716139,-0.31115 -0.567972,0 -1.091495,0.484012 -1.091495,1.264356 0,0.8001 0.414867,1.254478 1.042106,1.254478 z m 0.08396,-0.340783 c -0.4445,0 -0.706261,-0.345722 -0.706261,-0.918634 0,-0.548217 0.335845,-0.918633 0.750711,-0.918633 0.207434,0 0.414867,0.07902 0.632178,0.281516 v 1.195212 C 31.549847,71.241328 31.322658,71.3648 31.085591,71.3648 Z m 2.805291,0.281517 h 0.454378 l 0.992717,-2.400301 h -0.390173 l -0.553155,1.363134 c -0.09878,0.242005 -0.1778,0.479072 -0.261762,0.706261 h -0.01975 c -0.08396,-0.227189 -0.172861,-0.464256 -0.271639,-0.706261 l -0.553156,-1.363134 h -0.409928 z m 3.25967,0 h 0.404989 v -2.400301 h -1.521178 v 0.330906 h 1.116189 z m 0.158045,-2.904068 c 0.182739,0 0.325966,-0.123472 0.325966,-0.316089 0,-0.187678 -0.143227,-0.316089 -0.325966,-0.316089 -0.182739,0 -0.325967,0.128411 -0.325967,0.316089 0,0.192617 0.143228,0.316089 0.325967,0.316089 z m 2.775659,2.963334 c 0.686506,0 1.0668,-0.325967 1.0668,-0.716139 0,-0.365478 -0.192617,-0.567972 -0.992717,-0.740833 -0.48895,-0.103717 -0.696383,-0.192617 -0.696383,-0.40005 0,-0.182739 0.143227,-0.345723 0.553155,-0.345723 0.306212,0 0.582789,0.09878 0.805039,0.251884 l 0.197556,-0.261762 c -0.237067,-0.162983 -0.602545,-0.306211 -0.968022,-0.306211 -0.656873,0 -0.997656,0.296334 -0.997656,0.681567 0,0.360539 0.316089,0.572911 0.938389,0.701323 0.651933,0.13335 0.750711,0.261761 0.750711,0.4445 0,0.202494 -0.202494,0.375355 -0.607483,0.375355 -0.4445,0 -0.765528,-0.128411 -1.042106,-0.325966 l -0.187678,0.2667 c 0.291395,0.202494 0.7112,0.375355 1.180395,0.375355 z M 43.0871,69.507777 c 0.409928,0 0.681567,0.242006 0.716139,0.735895 h -1.531056 c 0.07408,-0.474134 0.419806,-0.735895 0.814917,-0.735895 z m 0.05927,2.197806 c 0.385233,0 0.691444,-0.128411 0.928511,-0.286455 l -0.148167,-0.2667 c -0.217311,0.138288 -0.4445,0.227188 -0.730955,0.227188 -0.498828,0 -0.884062,-0.276577 -0.933451,-0.819855 H 44.1539 c 0.0099,-0.06421 0.01976,-0.153106 0.01976,-0.246945 0,-0.676628 -0.404989,-1.126067 -1.096434,-1.126067 -0.642055,0 -1.224844,0.474134 -1.224844,1.254478 0,0.800101 0.572911,1.264356 1.293989,1.264356 z m 2.671942,0 c 0.296334,0 0.582789,-0.172861 0.780345,-0.375355 h 0.01482 l 0.03457,0.316089 h 0.335844 v -3.51649 h -0.404989 v 0.923572 l 0.01976,0.4445 h -0.01482 c -0.207433,-0.197555 -0.429683,-0.31115 -0.716139,-0.31115 -0.567972,0 -1.091495,0.484012 -1.091495,1.264356 0,0.8001 0.414867,1.254478 1.042106,1.254478 z M 45.90227,71.3648 c -0.4445,0 -0.706261,-0.345722 -0.706261,-0.918634 0,-0.548217 0.335845,-0.918633 0.750711,-0.918633 0.207434,0 0.414867,0.07902 0.632178,0.281516 v 1.195212 C 46.366526,71.241328 46.139337,71.3648 45.90227,71.3648 Z m 1.83727,0.972961 h 2.370668 V 71.9871 H 47.73954 Z m 4.37586,-0.632178 c 0.3556,0 0.686506,-0.138289 0.953206,-0.375355 l -0.182739,-0.261762 c -0.197556,0.167923 -0.4445,0.301273 -0.740834,0.301273 -0.553156,0 -0.923572,-0.370417 -0.923572,-0.918634 0,-0.553156 0.380294,-0.928511 0.93345,-0.928511 0.251883,0 0.459317,0.103717 0.656872,0.276578 l 0.202495,-0.261761 c -0.197556,-0.192617 -0.484011,-0.350662 -0.874184,-0.350662 -0.726017,0 -1.338439,0.459317 -1.338439,1.264356 0,0.795161 0.563034,1.254478 1.313745,1.254478 z m 2.469448,0 c 0.340783,0 0.681567,-0.1778 0.948267,-0.385233 h 0.01482 l 0.03457,0.325967 h 0.330905 v -1.47179 c 0,-0.597605 -0.316089,-0.987778 -0.972961,-0.987778 -0.419806,0 -0.824795,0.187678 -1.0668,0.345723 l 0.158044,0.276577 c 0.22225,-0.138288 0.528461,-0.286455 0.839611,-0.286455 0.464256,0 0.627239,0.276578 0.637117,0.602544 -1.239661,0.09878 -1.738489,0.360539 -1.738489,0.898878 0,0.429684 0.365478,0.681567 0.814917,0.681567 z m 0.108655,-0.325967 c -0.276578,0 -0.528461,-0.113594 -0.528461,-0.385233 0,-0.316089 0.316089,-0.518583 1.343378,-0.602545 v 0.632178 c -0.271639,0.227189 -0.543278,0.3556 -0.814917,0.3556 z m 3.649839,0.325967 c 0.261761,0 0.419806,-0.04939 0.642056,-0.143228 l -0.103717,-0.301272 c -0.162983,0.07408 -0.31115,0.108656 -0.449439,0.108656 -0.286455,0 -0.474133,-0.148167 -0.474133,-0.498828 v -2.741084 h -1.259417 v 0.330905 h 0.854428 v 2.380545 c 0,0.567973 0.281516,0.864306 0.790222,0.864306 z m 2.963337,0 c 0.261761,0 0.419806,-0.04939 0.642056,-0.143228 l -0.103717,-0.301272 c -0.162983,0.07408 -0.31115,0.108656 -0.449439,0.108656 -0.286455,0 -0.474133,-0.148167 -0.474133,-0.498828 v -2.741084 h -1.259417 v 0.330905 h 0.854428 v 2.380545 c 0,0.567973 0.281516,0.864306 0.790222,0.864306 z"
         id="path2" />
      <path
         style="font-size:4.93889px;font-family:'Source Code Pro';-inkscape-font-specification:'Source Code Pro, Normal';fill:#4063d8"
         d="m 64.398427,72.515561 0.22225,-0.207433 c -0.661811,-0.558095 -0.968022,-1.205089 -0.968022,-2.034823 0,-0.829733 0.306211,-1.476728 0.968022,-2.034823 l -0.22225,-0.207433 c -0.686506,0.5334 -1.11125,1.28905 -1.11125,2.242256 0,0.953206 0.424744,1.708856 1.11125,2.242256 z"
         id="path3" />
      <path
         style="font-size:4.93889px;font-family:'Source Code Pro';-inkscape-font-specification:'Source Code Pro, Normal'"
         d="m 66.418432,71.646317 h 0.40005 v -2.069395 h 1.007534 v -0.330906 h -1.007534 v -0.217311 c 0,-0.390172 0.1778,-0.627239 0.607484,-0.627239 0.207433,0 0.360539,0.02469 0.558094,0.113594 l 0.09384,-0.306211 C 67.85071,68.11501 67.623521,68.07056 67.386455,68.07056 c -0.661811,0 -0.968023,0.385234 -0.968023,0.972962 v 0.202494 l -0.686505,0.02469 v 0.306212 h 0.686505 z m 2.854686,1.051983 c 0.543277,-0.202494 0.869244,-0.607483 0.869244,-1.185334 0,-0.385233 -0.153105,-0.632177 -0.4445,-0.632177 -0.212372,0 -0.395111,0.13335 -0.395111,0.375355 0,0.246945 0.172861,0.370417 0.385233,0.370417 0.02963,0 0.06421,0 0.09384,-0.0099 -0.01482,0.390172 -0.217311,0.642056 -0.6223,0.824795 z"
         id="path4" />
      <path
         style="font-size:4.93889px;font-family:'Source Code Pro';-inkscape-font-specification:'Source Code Pro, Normal';fill:#202020"
         d="m 75.328195,71.705583 c 0.340783,0 0.681567,-0.1778 0.948267,-0.385233 h 0.01482 l 0.03457,0.325967 h 0.330905 v -1.47179 c 0,-0.597605 -0.316089,-0.987778 -0.972961,-0.987778 -0.419806,0 -0.824795,0.187678 -1.0668,0.345723 l 0.158044,0.276577 c 0.22225,-0.138288 0.528461,-0.286455 0.839612,-0.286455 0.464255,0 0.627239,0.276578 0.637116,0.602544 -1.239661,0.09878 -1.738489,0.360539 -1.738489,0.898878 0,0.429684 0.365478,0.681567 0.814917,0.681567 z m 0.108655,-0.325967 c -0.276577,0 -0.528461,-0.113594 -0.528461,-0.385233 0,-0.316089 0.316089,-0.518583 1.343378,-0.602545 v 0.632178 c -0.271639,0.227189 -0.543278,0.3556 -0.814917,0.3556 z m 2.360797,0.266701 h 0.404989 v -1.407584 c 0.286455,-0.498828 0.627239,-0.686506 0.987778,-0.686506 0.187677,0 0.276577,0.02469 0.4445,0.08396 l 0.09384,-0.350661 c -0.148167,-0.07408 -0.296334,-0.09878 -0.474134,-0.09878 -0.4445,0 -0.819856,0.242006 -1.071739,0.627239 h -0.01482 l -0.03457,-0.567972 h -0.335844 z m 3.704166,1.106311 c 0.814917,0 1.333501,-0.390172 1.333501,-0.839611 0,-0.404989 -0.296334,-0.563034 -0.913695,-0.563034 H 81.38328 c -0.316089,0 -0.498828,-0.0889 -0.498828,-0.276578 0,-0.113594 0.06915,-0.202494 0.187678,-0.276578 0.13335,0.05927 0.281517,0.0889 0.404989,0.0889 0.518583,0 0.928511,-0.31115 0.928511,-0.824794 0,-0.192617 -0.09384,-0.370417 -0.202494,-0.484011 h 0.6223 v -0.330906 h -0.992717 c -0.103717,-0.03951 -0.217311,-0.05927 -0.3556,-0.05927 -0.508706,0 -0.943328,0.335845 -0.943328,0.859367 0,0.286456 0.13335,0.498828 0.296333,0.6223 v 0.01976 c -0.182739,0.123472 -0.286455,0.296333 -0.286455,0.449439 0,0.202494 0.118533,0.325967 0.246944,0.395111 v 0.01976 c -0.256822,0.148166 -0.395111,0.340783 -0.395111,0.5334 0,0.424744 0.404989,0.66675 1.106311,0.66675 z m -0.02469,-2.138539 c -0.301272,0 -0.553156,-0.222251 -0.553156,-0.567973 0,-0.335844 0.251884,-0.563033 0.553156,-0.563033 0.306211,0 0.553156,0.227189 0.553156,0.563033 0,0.345722 -0.246945,0.567973 -0.553156,0.567973 z m 0.05433,1.842205 c -0.513645,0 -0.785284,-0.158044 -0.785284,-0.409927 0,-0.138289 0.07902,-0.276578 0.306211,-0.40005 0.103717,0.02963 0.227189,0.03951 0.365478,0.03951 h 0.469195 c 0.365478,0 0.548217,0.06421 0.548217,0.291394 0,0.246945 -0.345723,0.479072 -0.903817,0.479072 z m 3.002844,-0.750711 c 0.686506,0 1.0668,-0.325967 1.0668,-0.716139 0,-0.365478 -0.192617,-0.567972 -0.992717,-0.740833 -0.48895,-0.103717 -0.696383,-0.192617 -0.696383,-0.40005 0,-0.182739 0.143228,-0.345723 0.553155,-0.345723 0.306212,0 0.582789,0.09878 0.805039,0.251884 l 0.197556,-0.261762 c -0.237067,-0.162983 -0.602544,-0.306211 -0.968022,-0.306211 -0.656873,0 -0.997656,0.296334 -0.997656,0.681567 0,0.360539 0.316089,0.572911 0.938389,0.701323 0.651933,0.13335 0.750711,0.261761 0.750711,0.4445 0,0.202494 -0.202494,0.375355 -0.607483,0.375355 -0.4445,0 -0.765528,-0.128411 -1.042106,-0.325966 l -0.187678,0.2667 c 0.291395,0.202494 0.7112,0.375355 1.180395,0.375355 z m 2.913952,0 c 0.22225,0 0.40005,-0.167922 0.40005,-0.414867 0,-0.251883 -0.1778,-0.419805 -0.40005,-0.419805 -0.22225,0 -0.40005,0.167922 -0.40005,0.419805 0,0.246945 0.1778,0.414867 0.40005,0.414867 z m 2.963333,0 c 0.22225,0 0.40005,-0.167922 0.40005,-0.414867 0,-0.251883 -0.1778,-0.419805 -0.40005,-0.419805 -0.22225,0 -0.40005,0.167922 -0.40005,0.419805 0,0.246945 0.1778,0.414867 0.40005,0.414867 z m 2.963341,0 c 0.22225,0 0.40005,-0.167922 0.40005,-0.414867 0,-0.251883 -0.1778,-0.419805 -0.40005,-0.419805 -0.22225,0 -0.40005,0.167922 -0.40005,0.419805 0,0.246945 0.1778,0.414867 0.40005,0.414867 z"
         id="path5" />
      <path
         style="font-size:4.93889px;font-family:'Source Code Pro';-inkscape-font-specification:'Source Code Pro, Normal';fill:#4063d8"
         d="m 95.681377,72.515561 c 0.686506,-0.5334 1.111251,-1.28905 1.111251,-2.242256 0,-0.953206 -0.424745,-1.708856 -1.111251,-2.242256 l -0.22225,0.207433 c 0.661812,0.558095 0.968023,1.20509 0.968023,2.034823 0,0.829734 -0.306211,1.476728 -0.968023,2.034823 z"
         id="path6" />
      <path
         style="font-size:4.93889px;font-family:'Source Code Pro';-inkscape-font-specification:'Source Code Pro, Normal'"
         d="m 13.098142,79.325583 c 0.340783,0 0.681567,-0.1778 0.948267,-0.385233 h 0.01482 l 0.03457,0.325967 h 0.330905 v -1.471789 c 0,-0.597606 -0.316089,-0.987778 -0.972961,-0.987778 -0.419806,0 -0.824795,0.187677 -1.0668,0.345722 l 0.158044,0.276578 c 0.22225,-0.138289 0.528462,-0.286456 0.839612,-0.286456 0.464255,0 0.627239,0.276578 0.637116,0.602545 -1.239661,0.09878 -1.738489,0.360539 -1.738489,0.898878 0,0.429683 0.365478,0.681566 0.814917,0.681566 z m 0.108656,-0.325966 c -0.276578,0 -0.528462,-0.113595 -0.528462,-0.385234 0,-0.316089 0.316089,-0.518583 1.343378,-0.602544 v 0.632178 c -0.271639,0.227189 -0.543278,0.3556 -0.814916,0.3556 z m 2.360791,0.2667 h 0.404989 v -1.407584 c 0.286456,-0.498828 0.627239,-0.686506 0.987778,-0.686506 0.187678,0 0.276578,0.02469 0.4445,0.08396 l 0.09384,-0.350661 c -0.148167,-0.07408 -0.296333,-0.09878 -0.474133,-0.09878 -0.444501,0 -0.819856,0.242005 -1.07174,0.627239 h -0.01482 l -0.03457,-0.567973 h -0.335844 z m 3.704169,1.106311 c 0.814917,0 1.333501,-0.390172 1.333501,-0.839611 0,-0.404989 -0.296334,-0.563034 -0.913695,-0.563034 h -0.538339 c -0.316089,0 -0.498828,-0.0889 -0.498828,-0.276578 0,-0.113594 0.06914,-0.202494 0.187678,-0.276577 0.13335,0.05927 0.281517,0.0889 0.404989,0.0889 0.518583,0 0.928511,-0.31115 0.928511,-0.824795 0,-0.192617 -0.09384,-0.370417 -0.202494,-0.484011 h 0.6223 v -0.330906 h -0.992717 c -0.103717,-0.03951 -0.217311,-0.05927 -0.3556,-0.05927 -0.508706,0 -0.943328,0.335844 -0.943328,0.859366 0,0.286456 0.13335,0.498828 0.296333,0.622301 v 0.01976 c -0.182739,0.123472 -0.286455,0.296333 -0.286455,0.449439 0,0.202495 0.118533,0.325967 0.246944,0.395111 v 0.01976 c -0.256822,0.148167 -0.395111,0.340783 -0.395111,0.5334 0,0.424744 0.404989,0.66675 1.106311,0.66675 z m -0.02469,-2.138539 c -0.301272,0 -0.553156,-0.22225 -0.553156,-0.567973 0,-0.335844 0.251884,-0.563033 0.553156,-0.563033 0.306211,0 0.553156,0.227189 0.553156,0.563033 0,0.345723 -0.246945,0.567973 -0.553156,0.567973 z m 0.05433,1.842206 c -0.513645,0 -0.785284,-0.158045 -0.785284,-0.409928 0,-0.138289 0.07902,-0.276578 0.306211,-0.40005 0.103717,0.02963 0.227189,0.03951 0.365478,0.03951 h 0.469195 c 0.365478,0 0.548217,0.06421 0.548217,0.291394 0,0.246945 -0.345723,0.479073 -0.903817,0.479073 z m 3.002846,-0.750712 c 0.686506,0 1.0668,-0.325966 1.0668,-0.716139 0,-0.365478 -0.192617,-0.567972 -0.992717,-0.740833 -0.48895,-0.103717 -0.696383,-0.192617 -0.696383,-0.40005 0,-0.182739 0.143228,-0.345723 0.553155,-0.345723 0.306212,0 0.58279,0.09878 0.80504,0.251884 l 0.197555,-0.261761 c -0.237067,-0.162984 -0.602544,-0.306211 -0.968022,-0.306211 -0.656873,0 -0.997656,0.296333 -0.997656,0.681566 0,0.360539 0.316089,0.572912 0.938389,0.701323 0.651934,0.13335 0.750711,0.261761 0.750711,0.4445 0,0.202494 -0.202494,0.375355 -0.607483,0.375355 -0.4445,0 -0.765528,-0.128411 -1.042106,-0.325966 l -0.187678,0.2667 c 0.291395,0.202494 0.7112,0.375355 1.180395,0.375355 z m 4.815424,-2.064456 h 2.123722 v -0.306211 h -2.123722 z m 0,1.056923 h 2.123722 v -0.306211 h -2.123722 z"
         id="path7" />
      <path
         style="font-size:4.93889px;font-family:'Source Code Pro';-inkscape-font-specification:'Source Code Pro, Normal';fill:#202020"
         d="m 33.085843,80.278789 h 0.404989 v -0.809978 l -0.01976,-0.454378 h 0.01482 c 0.212372,0.197556 0.493889,0.31115 0.716139,0.31115 0.57785,0 1.091495,-0.479072 1.091495,-1.293989 0,-0.745772 -0.345723,-1.224844 -0.992717,-1.224844 -0.296334,0 -0.607484,0.153105 -0.829734,0.365477 h -0.01482 l -0.03457,-0.306211 H 33.085843 Z M 34.132887,78.9848 c -0.162983,0 -0.414866,-0.07902 -0.642055,-0.281517 v -1.195211 c 0.246944,-0.246945 0.493889,-0.360539 0.706261,-0.360539 0.479072,0 0.676628,0.3556 0.676628,0.884061 0,0.592667 -0.31115,0.953206 -0.740834,0.953206 z m 2.178054,0.281517 h 0.404989 v -1.407584 c 0.286455,-0.498828 0.627239,-0.686506 0.987778,-0.686506 0.187678,0 0.276578,0.02469 0.4445,0.08396 l 0.09384,-0.350661 c -0.148167,-0.07408 -0.296334,-0.09878 -0.474134,-0.09878 -0.4445,0 -0.819855,0.242005 -1.071739,0.627239 h -0.01482 l -0.03457,-0.567973 h -0.335844 z m 3.812826,-2.13854 c 0.409928,0 0.681567,0.242006 0.716139,0.735895 H 39.30885 c 0.07408,-0.474133 0.419806,-0.735895 0.814917,-0.735895 z m 0.05927,2.197806 c 0.385233,0 0.691444,-0.128411 0.928511,-0.286455 l -0.148167,-0.2667 c -0.217311,0.138289 -0.4445,0.227189 -0.730956,0.227189 -0.498827,0 -0.884061,-0.276578 -0.93345,-0.819856 h 1.891595 c 0.0099,-0.06421 0.01976,-0.153106 0.01976,-0.246945 0,-0.676628 -0.404989,-1.126066 -1.096434,-1.126066 -0.642056,0 -1.224845,0.474133 -1.224845,1.254478 0,0.8001 0.572912,1.264355 1.29399,1.264355 z m 1.629832,0.632178 h 2.370668 V 79.6071 h -2.370668 z m 3.126321,0.321028 h 0.404989 v -0.809978 l -0.01976,-0.454378 h 0.01482 c 0.212372,0.197556 0.493889,0.31115 0.716139,0.31115 0.57785,0 1.091495,-0.479072 1.091495,-1.293989 0,-0.745772 -0.345723,-1.224844 -0.992717,-1.224844 -0.296334,0 -0.607484,0.153105 -0.829734,0.365477 h -0.01482 l -0.03457,-0.306211 H 44.939187 Z M 45.986231,78.9848 c -0.162983,0 -0.414866,-0.07902 -0.642055,-0.281517 v -1.195211 c 0.246944,-0.246945 0.493889,-0.360539 0.706261,-0.360539 0.479072,0 0.676628,0.3556 0.676628,0.884061 0,0.592667 -0.31115,0.953206 -0.740834,0.953206 z m 2.178054,0.281517 h 0.404989 v -1.407584 c 0.286455,-0.498828 0.627239,-0.686506 0.987778,-0.686506 0.187678,0 0.276578,0.02469 0.4445,0.08396 l 0.09384,-0.350661 c -0.148167,-0.07408 -0.296334,-0.09878 -0.474134,-0.09878 -0.4445,0 -0.819855,0.242005 -1.071739,0.627239 h -0.01482 l -0.03457,-0.567973 h -0.335844 z m 3.723926,0.05927 c 0.632178,0 1.185333,-0.459316 1.185333,-1.254478 0,-0.805039 -0.553155,-1.264355 -1.185333,-1.264355 -0.632178,0 -1.185334,0.459316 -1.185334,1.264355 0,0.795162 0.553156,1.254478 1.185334,1.254478 z m 0,-0.335844 c -0.459317,0 -0.765528,-0.370417 -0.765528,-0.918634 0,-0.553155 0.306211,-0.928511 0.765528,-0.928511 0.459317,0 0.765528,0.375356 0.765528,0.928511 0,0.548217 -0.306211,0.918634 -0.765528,0.918634 z m 3.190526,0.335844 c 0.3556,0 0.686505,-0.138289 0.953206,-0.375355 l -0.182739,-0.261761 c -0.197556,0.167922 -0.444501,0.301272 -0.740834,0.301272 -0.553156,0 -0.923572,-0.370417 -0.923572,-0.918634 0,-0.553155 0.380294,-0.928511 0.93345,-0.928511 0.251883,0 0.459317,0.103717 0.656872,0.276578 l 0.202495,-0.261761 c -0.197556,-0.192617 -0.484011,-0.350661 -0.874184,-0.350661 -0.726017,0 -1.338439,0.459316 -1.338439,1.264355 0,0.795162 0.563033,1.254478 1.313745,1.254478 z m 2.825044,-2.197806 c 0.409928,0 0.681567,0.242006 0.716139,0.735895 h -1.531056 c 0.07408,-0.474133 0.419806,-0.735895 0.814917,-0.735895 z m 0.05927,2.197806 c 0.385233,0 0.691444,-0.128411 0.928511,-0.286455 l -0.148167,-0.2667 c -0.217311,0.138289 -0.4445,0.227189 -0.730955,0.227189 -0.498828,0 -0.884062,-0.276578 -0.933451,-0.819856 h 1.891595 c 0.0099,-0.06421 0.01976,-0.153106 0.01976,-0.246945 0,-0.676628 -0.404989,-1.126066 -1.096434,-1.126066 -0.642056,0 -1.224845,0.474133 -1.224845,1.254478 0,0.8001 0.572912,1.264355 1.29399,1.264355 z m 2.864559,0 c 0.686505,0 1.0668,-0.325966 1.0668,-0.716139 0,-0.365478 -0.192617,-0.567972 -0.992717,-0.740833 -0.48895,-0.103717 -0.696383,-0.192617 -0.696383,-0.40005 0,-0.182739 0.143227,-0.345723 0.553155,-0.345723 0.306211,0 0.582789,0.09878 0.805039,0.251884 l 0.197556,-0.261761 C 61.52399,76.949977 61.158512,76.80675 60.793035,76.80675 c -0.656873,0 -0.997656,0.296333 -0.997656,0.681566 0,0.360539 0.316089,0.572912 0.938389,0.701323 0.651933,0.13335 0.750711,0.261761 0.750711,0.4445 0,0.202494 -0.202494,0.375355 -0.607483,0.375355 -0.4445,0 -0.765528,-0.128411 -1.042106,-0.325966 l -0.187678,0.2667 c 0.291395,0.202494 0.7112,0.375355 1.180395,0.375355 z m 2.963337,0 c 0.686505,0 1.0668,-0.325966 1.0668,-0.716139 0,-0.365478 -0.192617,-0.567972 -0.992717,-0.740833 -0.48895,-0.103717 -0.696383,-0.192617 -0.696383,-0.40005 0,-0.182739 0.143227,-0.345723 0.553155,-0.345723 0.306211,0 0.582789,0.09878 0.805039,0.251884 l 0.197556,-0.261761 c -0.237067,-0.162984 -0.602545,-0.306211 -0.968023,-0.306211 -0.656872,0 -0.997655,0.296333 -0.997655,0.681566 0,0.360539 0.316089,0.572912 0.938389,0.701323 0.651933,0.13335 0.750711,0.261761 0.750711,0.4445 0,0.202494 -0.202494,0.375355 -0.607483,0.375355 -0.4445,0 -0.765528,-0.128411 -1.042106,-0.325966 l -0.187678,0.2667 c 0.291395,0.202494 0.7112,0.375355 1.180395,0.375355 z"
         id="path8" />
      <path
         style="font-size:4.93889px;font-family:'Source Code Pro';-inkscape-font-specification:'Source Code Pro, Normal';fill:#4063d8"
         d="m 67.36176,80.135561 0.22225,-0.207433 c -0.661811,-0.558095 -0.968022,-1.205089 -0.968022,-2.034823 0,-0.829733 0.306211,-1.476728 0.968022,-2.034822 l -0.22225,-0.207434 c -0.686505,0.5334 -1.11125,1.289051 -1.11125,2.242256 0,0.953206 0.424745,1.708856 1.11125,2.242256 z"
         id="path9" />
      <path
         style="font-size:4.93889px;font-family:'Source Code Pro';-inkscape-font-specification:'Source Code Pro, Normal'"
         d="m 69.401529,79.325583 c 0.340783,0 0.681566,-0.1778 0.948267,-0.385233 h 0.01482 l 0.03457,0.325967 h 0.330906 v -1.471789 c 0,-0.597606 -0.316089,-0.987778 -0.972961,-0.987778 -0.419806,0 -0.824795,0.187677 -1.066801,0.345722 l 0.158045,0.276578 c 0.22225,-0.138289 0.528461,-0.286456 0.839611,-0.286456 0.464256,0 0.627239,0.276578 0.637117,0.602545 -1.239661,0.09878 -1.738489,0.360539 -1.738489,0.898878 0,0.429683 0.365478,0.681566 0.814917,0.681566 z m 0.108655,-0.325966 c -0.276578,0 -0.528461,-0.113595 -0.528461,-0.385234 0,-0.316089 0.316089,-0.518583 1.343378,-0.602544 v 0.632178 c -0.271639,0.227189 -0.543278,0.3556 -0.814917,0.3556 z m 2.360789,0.2667 h 0.404989 v -1.407584 c 0.286455,-0.498828 0.627239,-0.686506 0.987778,-0.686506 0.187678,0 0.276578,0.02469 0.4445,0.08396 l 0.09384,-0.350661 c -0.148167,-0.07408 -0.296334,-0.09878 -0.474134,-0.09878 -0.4445,0 -0.819855,0.242005 -1.071739,0.627239 h -0.01482 l -0.03457,-0.567973 h -0.335844 z m 3.704166,1.106311 c 0.814917,0 1.333501,-0.390172 1.333501,-0.839611 0,-0.404989 -0.296334,-0.563034 -0.913695,-0.563034 h -0.538339 c -0.316089,0 -0.498828,-0.0889 -0.498828,-0.276578 0,-0.113594 0.06914,-0.202494 0.187678,-0.276577 0.13335,0.05927 0.281517,0.0889 0.404989,0.0889 0.518583,0 0.928511,-0.31115 0.928511,-0.824795 0,-0.192617 -0.09384,-0.370417 -0.202494,-0.484011 h 0.6223 v -0.330906 h -0.992717 c -0.103717,-0.03951 -0.217311,-0.05927 -0.3556,-0.05927 -0.508706,0 -0.943328,0.335844 -0.943328,0.859366 0,0.286456 0.13335,0.498828 0.296333,0.622301 v 0.01976 c -0.182739,0.123472 -0.286455,0.296333 -0.286455,0.449439 0,0.202495 0.118533,0.325967 0.246944,0.395111 v 0.01976 c -0.256822,0.148167 -0.395111,0.340783 -0.395111,0.5334 0,0.424744 0.404989,0.66675 1.106311,0.66675 z m -0.02469,-2.138539 c -0.301272,0 -0.553156,-0.22225 -0.553156,-0.567973 0,-0.335844 0.251884,-0.563033 0.553156,-0.563033 0.306211,0 0.553156,0.227189 0.553156,0.563033 0,0.345723 -0.246945,0.567973 -0.553156,0.567973 z m 0.05433,1.842206 c -0.513645,0 -0.785284,-0.158045 -0.785284,-0.409928 0,-0.138289 0.07902,-0.276578 0.306211,-0.40005 0.103717,0.02963 0.227189,0.03951 0.365478,0.03951 h 0.469195 c 0.365478,0 0.548217,0.06421 0.548217,0.291394 0,0.246945 -0.345723,0.479073 -0.903817,0.479073 z m 3.002852,-0.750712 c 0.686505,0 1.0668,-0.325966 1.0668,-0.716139 0,-0.365478 -0.192617,-0.567972 -0.992717,-0.740833 -0.48895,-0.103717 -0.696384,-0.192617 -0.696384,-0.40005 0,-0.182739 0.143228,-0.345723 0.553156,-0.345723 0.306211,0 0.582789,0.09878 0.805039,0.251884 l 0.197556,-0.261761 C 79.304008,76.949977 78.93853,76.80675 78.573052,76.80675 c -0.656872,0 -0.997655,0.296333 -0.997655,0.681566 0,0.360539 0.316089,0.572912 0.938389,0.701323 0.651933,0.13335 0.750711,0.261761 0.750711,0.4445 0,0.202494 -0.202494,0.375355 -0.607483,0.375355 -0.444501,0 -0.765528,-0.128411 -1.042106,-0.325966 l -0.187678,0.2667 c 0.291394,0.202494 0.7112,0.375355 1.180395,0.375355 z"
         id="path10" />
      <path
         style="font-size:4.93889px;font-family:'Source Code Pro';-inkscape-font-specification:'Source Code Pro, Normal';fill:#4063d8"
         d="m 80.864696,80.135561 c 0.686506,-0.5334 1.111251,-1.28905 1.111251,-2.242256 0,-0.953205 -0.424745,-1.708856 -1.111251,-2.242256 l -0.22225,0.207434 c 0.661812,0.558094 0.968023,1.205089 0.968023,2.034822 0,0.829734 -0.306211,1.476728 -0.968023,2.034823 z"
         id="path11" />
      <path
         style="font-size:4.93889px;font-family:'Source Code Pro';-inkscape-font-specification:'Source Code Pro, Normal'"
         d="m 12.604253,86.886317 h 0.404989 v -1.407584 c 0.286456,-0.498828 0.627239,-0.686505 0.987778,-0.686505 0.187678,0 0.276578,0.02469 0.4445,0.08396 l 0.09384,-0.350662 c -0.148167,-0.07408 -0.296333,-0.09878 -0.474133,-0.09878 -0.444501,0 -0.819856,0.242005 -1.07174,0.627239 h -0.01482 l -0.03457,-0.567973 h -0.335844 z m 3.812825,-2.138539 c 0.409928,0 0.681567,0.242005 0.716139,0.735894 h -1.531056 c 0.07408,-0.474133 0.419806,-0.735894 0.814917,-0.735894 z m 0.05927,2.197806 c 0.385233,0 0.691444,-0.128412 0.928511,-0.286456 l -0.148167,-0.2667 c -0.217311,0.138289 -0.4445,0.227189 -0.730955,0.227189 -0.498828,0 -0.884062,-0.276578 -0.933451,-0.819856 h 1.891595 c 0.0099,-0.06421 0.01976,-0.153105 0.01976,-0.246944 0,-0.676628 -0.404989,-1.126067 -1.096434,-1.126067 -0.642055,0 -1.224844,0.474133 -1.224844,1.254478 0,0.8001 0.572911,1.264356 1.293989,1.264356 z m 2.864558,0 c 0.686506,0 1.0668,-0.325967 1.0668,-0.716139 0,-0.365478 -0.192617,-0.567973 -0.992717,-0.740834 -0.48895,-0.103717 -0.696383,-0.192617 -0.696383,-0.40005 0,-0.182739 0.143228,-0.345722 0.553155,-0.345722 0.306212,0 0.582789,0.09878 0.80504,0.251883 l 0.197555,-0.261761 c -0.237067,-0.162983 -0.602544,-0.306211 -0.968022,-0.306211 -0.656873,0 -0.997656,0.296333 -0.997656,0.681567 0,0.360538 0.316089,0.572911 0.938389,0.701322 0.651933,0.13335 0.750711,0.261761 0.750711,0.4445 0,0.202494 -0.202494,0.375356 -0.607483,0.375356 -0.4445,0 -0.765528,-0.128412 -1.042106,-0.325967 l -0.187678,0.2667 c 0.291395,0.202494 0.7112,0.375356 1.180395,0.375356 z m 2.647246,0 c 0.370417,0 0.651933,-0.197556 0.893939,-0.479073 h 0.01976 l 0.03457,0.419806 h 0.330905 v -2.400301 h -0.404988 v 1.664406 c -0.266701,0.31115 -0.469195,0.4445 -0.745773,0.4445 -0.40005,0 -0.553156,-0.217311 -0.553156,-0.671689 v -1.437217 h -0.409927 v 1.491545 c 0,0.632178 0.261761,0.968023 0.834672,0.968023 z m 3.758498,0 c 0.261761,0 0.419806,-0.04939 0.642056,-0.143228 l -0.103717,-0.301273 c -0.162983,0.07408 -0.31115,0.108656 -0.449439,0.108656 -0.286455,0 -0.474133,-0.148167 -0.474133,-0.498828 v -2.741084 h -1.259417 v 0.330906 h 0.854428 v 2.380545 c 0,0.567972 0.281517,0.864306 0.790222,0.864306 z m 2.899132,0 c 0.301272,0 0.5334,-0.06421 0.750711,-0.143228 l -0.0889,-0.296334 c -0.172861,0.06421 -0.350661,0.108656 -0.57785,0.108656 -0.464256,0 -0.607484,-0.227189 -0.607484,-0.656872 v -1.140884 h 1.180395 V 84.486016 H 28.122256 V 83.71555 h -0.335844 l -0.05433,0.770466 -0.691445,0.02469 v 0.306211 h 0.676628 v 1.135945 c 0,0.592666 0.227189,0.992717 0.928512,0.992717 z m 4.400553,-2.064456 h 2.123722 v -0.306212 h -2.123722 z m 0,1.056922 h 2.123722 v -0.306211 h -2.123722 z"
         id="path12" />
      <path
         style="font-size:4.93889px;font-family:'Source Code Pro';-inkscape-font-specification:'Source Code Pro, Normal';fill:#cb3c33"
         d="m 39.748411,86.886317 h 0.40005 v -2.069395 h 1.007534 v -0.330906 h -1.007534 v -0.217311 c 0,-0.390172 0.1778,-0.627239 0.607484,-0.627239 0.207433,0 0.360539,0.0247 0.558094,0.113595 l 0.09384,-0.306212 c -0.227189,-0.09384 -0.454378,-0.138288 -0.691444,-0.138288 -0.661812,0 -0.968023,0.385233 -0.968023,0.972961 v 0.202494 l -0.686505,0.02469 v 0.306211 h 0.686505 z"
         id="path13" />
      <path
         style="font-size:4.93889px;font-family:'Source Code Pro';-inkscape-font-specification:'Source Code Pro, Normal';fill:#4063d8"
         d="m 43.655072,87.755562 0.22225,-0.207434 C 43.215511,86.990034 42.9093,86.343039 42.9093,85.513305 c 0,-0.829733 0.306211,-1.476728 0.968022,-2.034822 l -0.22225,-0.207434 c -0.686505,0.533401 -1.11125,1.289051 -1.11125,2.242256 0,0.953206 0.424745,1.708856 1.11125,2.242257 z"
         id="path14" />
      <path
         style="font-size:4.93889px;font-family:'Source Code Pro';-inkscape-font-specification:'Source Code Pro, Normal';fill:#202020"
         d="m 45.694837,86.945584 c 0.340783,0 0.681567,-0.1778 0.948267,-0.385234 h 0.01482 l 0.03457,0.325967 h 0.330905 v -1.471789 c 0,-0.597606 -0.316089,-0.987778 -0.972961,-0.987778 -0.419806,0 -0.824795,0.187678 -1.0668,0.345722 l 0.158044,0.276578 c 0.22225,-0.138289 0.528461,-0.286456 0.839612,-0.286456 0.464255,0 0.627239,0.276578 0.637116,0.602545 -1.239661,0.09878 -1.738489,0.360539 -1.738489,0.898878 0,0.429683 0.365478,0.681567 0.814917,0.681567 z m 0.108655,-0.325967 c -0.276577,0 -0.528461,-0.113595 -0.528461,-0.385234 0,-0.316089 0.316089,-0.518583 1.343378,-0.602544 v 0.632178 c -0.271639,0.227189 -0.543278,0.3556 -0.814917,0.3556 z m 2.360793,0.2667 h 0.404989 v -1.407584 c 0.286455,-0.498828 0.627239,-0.686505 0.987778,-0.686505 0.187678,0 0.276578,0.02469 0.4445,0.08396 l 0.09384,-0.350662 c -0.148167,-0.07408 -0.296334,-0.09878 -0.474134,-0.09878 -0.4445,0 -0.819855,0.242005 -1.071739,0.627239 h -0.01482 l -0.03457,-0.567973 h -0.335844 z m 3.70417,1.106311 c 0.814917,0 1.333501,-0.390172 1.333501,-0.839611 0,-0.404989 -0.296334,-0.563033 -0.913695,-0.563033 h -0.538339 c -0.316089,0 -0.498828,-0.0889 -0.498828,-0.276578 0,-0.113595 0.06914,-0.202495 0.187678,-0.276578 0.13335,0.05927 0.281517,0.0889 0.404989,0.0889 0.518583,0 0.928511,-0.31115 0.928511,-0.824795 0,-0.192616 -0.09384,-0.370417 -0.202494,-0.484011 h 0.6223 v -0.330906 h -0.992717 c -0.103717,-0.03951 -0.217311,-0.05927 -0.3556,-0.05927 -0.508706,0 -0.943328,0.335844 -0.943328,0.859367 0,0.286455 0.13335,0.498827 0.296333,0.6223 v 0.01976 c -0.182739,0.123472 -0.286455,0.296334 -0.286455,0.449439 0,0.202495 0.118533,0.325967 0.246944,0.395111 v 0.01976 c -0.256822,0.148167 -0.395111,0.340783 -0.395111,0.5334 0,0.424745 0.404989,0.66675 1.106311,0.66675 z m -0.02469,-2.138539 c -0.301272,0 -0.553156,-0.22225 -0.553156,-0.567972 0,-0.335845 0.251884,-0.563034 0.553156,-0.563034 0.306211,0 0.553156,0.227189 0.553156,0.563034 0,0.345722 -0.246945,0.567972 -0.553156,0.567972 z m 0.05433,1.842206 c -0.513645,0 -0.785284,-0.158045 -0.785284,-0.409928 0,-0.138289 0.07902,-0.276578 0.306211,-0.40005 0.103717,0.02963 0.227189,0.03951 0.365478,0.03951 h 0.469195 c 0.365478,0 0.548217,0.06421 0.548217,0.291395 0,0.246944 -0.345723,0.479072 -0.903817,0.479072 z m 3.002848,-0.750711 c 0.686505,0 1.0668,-0.325967 1.0668,-0.716139 0,-0.365478 -0.192617,-0.567973 -0.992717,-0.740834 -0.48895,-0.103717 -0.696383,-0.192617 -0.696383,-0.40005 0,-0.182739 0.143227,-0.345722 0.553155,-0.345722 0.306211,0 0.582789,0.09878 0.805039,0.251883 l 0.197556,-0.261761 C 55.59732,84.569978 55.231842,84.42675 54.866364,84.42675 c -0.656872,0 -0.997655,0.296333 -0.997655,0.681567 0,0.360538 0.316089,0.572911 0.938389,0.701322 0.651933,0.13335 0.750711,0.261761 0.750711,0.4445 0,0.202494 -0.202494,0.375356 -0.607483,0.375356 -0.4445,0 -0.765528,-0.128412 -1.042106,-0.325967 l -0.187678,0.2667 c 0.291395,0.202494 0.7112,0.375356 1.180395,0.375356 z m 2.913944,0 c 0.22225,0 0.40005,-0.167923 0.40005,-0.414867 0,-0.251884 -0.1778,-0.419806 -0.40005,-0.419806 -0.22225,0 -0.40005,0.167922 -0.40005,0.419806 0,0.246944 0.1778,0.414867 0.40005,0.414867 z m 2.963337,0 c 0.22225,0 0.40005,-0.167923 0.40005,-0.414867 0,-0.251884 -0.1778,-0.419806 -0.40005,-0.419806 -0.22225,0 -0.40005,0.167922 -0.40005,0.419806 0,0.246944 0.1778,0.414867 0.40005,0.414867 z m 2.963337,0 c 0.22225,0 0.40005,-0.167923 0.40005,-0.414867 0,-0.251884 -0.1778,-0.419806 -0.40005,-0.419806 -0.22225,0 -0.40005,0.167922 -0.40005,0.419806 0,0.246944 0.1778,0.414867 0.40005,0.414867 z"
         id="path15" />
      <path
         style="font-size:4.93889px;font-family:'Source Code Pro';-inkscape-font-specification:'Source Code Pro, Normal';fill:#4063d8"
         d="m 66.048016,87.755562 c 0.686505,-0.533401 1.11125,-1.289051 1.11125,-2.242257 0,-0.953205 -0.424745,-1.708855 -1.11125,-2.242256 l -0.22225,0.207434 c 0.661811,0.558094 0.968022,1.205089 0.968022,2.034822 0,0.829734 -0.306211,1.476729 -0.968022,2.034823 z"
         id="path16" />
      <path
         style="font-size:4.93889px;font-family:'Source Code Pro';-inkscape-font-specification:'Source Code Pro, Normal';fill:#202020"
         d="m 12.342492,95.51879 h 0.404989 v -0.809978 l -0.01976,-0.454378 h 0.01482 c 0.212372,0.197555 0.493889,0.31115 0.716139,0.31115 0.57785,0 1.091495,-0.479073 1.091495,-1.293989 0,-0.745773 -0.345723,-1.224845 -0.992717,-1.224845 -0.296334,0 -0.607484,0.153105 -0.829734,0.365478 h -0.01482 l -0.03457,-0.306211 h -0.335844 z m 1.047044,-1.29399 c -0.162983,0 -0.414866,-0.07902 -0.642055,-0.281516 v -1.195212 c 0.246944,-0.246944 0.493889,-0.360539 0.706261,-0.360539 0.479072,0 0.676628,0.3556 0.676628,0.884062 0,0.592666 -0.31115,0.953205 -0.740834,0.953205 z m 2.938642,0.340784 c 0.632178,0 1.185334,-0.459317 1.185334,-1.254478 0,-0.805039 -0.553156,-1.264356 -1.185334,-1.264356 -0.632178,0 -1.185334,0.459317 -1.185334,1.264356 0,0.795161 0.553156,1.254478 1.185334,1.254478 z m 0,-0.335845 c -0.459317,0 -0.765528,-0.370416 -0.765528,-0.918633 0,-0.553156 0.306211,-0.928512 0.765528,-0.928512 0.459317,0 0.765528,0.375356 0.765528,0.928512 0,0.548217 -0.306211,0.918633 -0.765528,0.918633 z m 3.012725,0.335845 c 0.686506,0 1.0668,-0.325967 1.0668,-0.716139 0,-0.365478 -0.192617,-0.567973 -0.992717,-0.740834 -0.48895,-0.103716 -0.696383,-0.192616 -0.696383,-0.40005 0,-0.182739 0.143228,-0.345722 0.553155,-0.345722 0.306212,0 0.582789,0.09878 0.80504,0.251883 l 0.197555,-0.261761 c -0.237067,-0.162983 -0.602544,-0.306211 -0.968022,-0.306211 -0.656873,0 -0.997656,0.296333 -0.997656,0.681567 0,0.360539 0.316089,0.572911 0.938389,0.701322 0.651933,0.13335 0.750711,0.261761 0.750711,0.4445 0,0.202495 -0.202494,0.375356 -0.607483,0.375356 -0.4445,0 -0.765528,-0.128411 -1.042106,-0.325967 l -0.187678,0.2667 c 0.291395,0.202495 0.7112,0.375356 1.180395,0.375356 z m 3.378202,0 c 0.301272,0 0.5334,-0.06421 0.750711,-0.143228 l -0.0889,-0.296333 c -0.172861,0.06421 -0.350661,0.108655 -0.57785,0.108655 -0.464256,0 -0.607484,-0.227189 -0.607484,-0.656872 v -1.140884 h 1.180395 V 92.106017 H 22.195582 V 91.33555 h -0.335844 l -0.05433,0.770467 -0.691445,0.02469 v 0.306211 h 0.676628 v 1.135945 c 0,0.592667 0.227189,0.992717 0.928512,0.992717 z m 1.313747,0.632178 h 2.370668 v -0.350661 h -2.370668 z m 3.126321,0.321028 h 0.404989 v -0.809978 l -0.01976,-0.454378 h 0.01482 c 0.212372,0.197555 0.493889,0.31115 0.716139,0.31115 0.57785,0 1.091495,-0.479073 1.091495,-1.293989 0,-0.745773 -0.345723,-1.224845 -0.992717,-1.224845 -0.296334,0 -0.607484,0.153105 -0.829734,0.365478 h -0.01482 l -0.03457,-0.306211 h -0.335844 z m 1.047044,-1.29399 c -0.162983,0 -0.414866,-0.07902 -0.642055,-0.281516 v -1.195212 c 0.246944,-0.246944 0.493889,-0.360539 0.706261,-0.360539 0.479072,0 0.676628,0.3556 0.676628,0.884062 0,0.592666 -0.31115,0.953205 -0.740834,0.953205 z m 2.178052,0.281517 h 0.404989 v -1.407584 c 0.286456,-0.498827 0.627239,-0.686505 0.987778,-0.686505 0.187678,0 0.276578,0.02469 0.4445,0.08396 l 0.09384,-0.350661 c -0.148167,-0.07408 -0.296334,-0.09878 -0.474134,-0.09878 -0.4445,0 -0.819855,0.242005 -1.071739,0.627239 h -0.01482 l -0.03457,-0.567972 h -0.335844 z m 3.723924,0.05927 c 0.632178,0 1.185334,-0.459317 1.185334,-1.254478 0,-0.805039 -0.553156,-1.264356 -1.185334,-1.264356 -0.632178,0 -1.185334,0.459317 -1.185334,1.264356 0,0.795161 0.553156,1.254478 1.185334,1.254478 z m 0,-0.335845 c -0.459317,0 -0.765528,-0.370416 -0.765528,-0.918633 0,-0.553156 0.306211,-0.928512 0.765528,-0.928512 0.459317,0 0.765528,0.375356 0.765528,0.928512 0,0.548217 -0.306211,0.918633 -0.765528,0.918633 z m 3.190526,0.335845 c 0.3556,0 0.686506,-0.138289 0.953206,-0.375356 l -0.182739,-0.261761 c -0.197556,0.167922 -0.4445,0.301272 -0.740834,0.301272 -0.553155,0 -0.923572,-0.370416 -0.923572,-0.918633 0,-0.553156 0.380294,-0.928512 0.93345,-0.928512 0.251883,0 0.459317,0.103717 0.656872,0.276578 l 0.202495,-0.261761 c -0.197556,-0.192617 -0.484011,-0.350661 -0.874184,-0.350661 -0.726016,0 -1.338439,0.459317 -1.338439,1.264356 0,0.795161 0.563034,1.254478 1.313745,1.254478 z m 2.825048,-2.197806 c 0.409928,0 0.681567,0.242005 0.716139,0.735894 H 39.30885 c 0.07408,-0.474133 0.419806,-0.735894 0.814917,-0.735894 z m 0.05927,2.197806 c 0.385233,0 0.691444,-0.128411 0.928511,-0.286456 l -0.148167,-0.2667 c -0.217311,0.138289 -0.4445,0.227189 -0.730956,0.227189 -0.498827,0 -0.884061,-0.276578 -0.93345,-0.819856 h 1.891595 c 0.0099,-0.0642 0.01976,-0.153105 0.01976,-0.246944 0,-0.676628 -0.404989,-1.126067 -1.096434,-1.126067 -0.642056,0 -1.224845,0.474133 -1.224845,1.254478 0,0.8001 0.572912,1.264356 1.29399,1.264356 z m 2.864555,0 c 0.686506,0 1.0668,-0.325967 1.0668,-0.716139 0,-0.365478 -0.192617,-0.567973 -0.992717,-0.740834 -0.48895,-0.103716 -0.696383,-0.192616 -0.696383,-0.40005 0,-0.182739 0.143228,-0.345722 0.553155,-0.345722 0.306212,0 0.582789,0.09878 0.80504,0.251883 l 0.197555,-0.261761 c -0.237067,-0.162983 -0.602544,-0.306211 -0.968022,-0.306211 -0.656873,0 -0.997656,0.296333 -0.997656,0.681567 0,0.360539 0.316089,0.572911 0.938389,0.701322 0.651933,0.13335 0.750711,0.261761 0.750711,0.4445 0,0.202495 -0.202494,0.375356 -0.607483,0.375356 -0.4445,0 -0.765528,-0.128411 -1.042106,-0.325967 l -0.187678,0.2667 c 0.291395,0.202495 0.7112,0.375356 1.180395,0.375356 z m 2.963337,0 c 0.686506,0 1.0668,-0.325967 1.0668,-0.716139 0,-0.365478 -0.192617,-0.567973 -0.992717,-0.740834 -0.48895,-0.103716 -0.696383,-0.192616 -0.696383,-0.40005 0,-0.182739 0.143228,-0.345722 0.553155,-0.345722 0.306212,0 0.582789,0.09878 0.805039,0.251883 l 0.197556,-0.261761 c -0.237067,-0.162983 -0.602545,-0.306211 -0.968022,-0.306211 -0.656873,0 -0.997656,0.296333 -0.997656,0.681567 0,0.360539 0.316089,0.572911 0.938389,0.701322 0.651933,0.13335 0.750711,0.261761 0.750711,0.4445 0,0.202495 -0.202494,0.375356 -0.607483,0.375356 -0.4445,0 -0.765528,-0.128411 -1.042106,-0.325967 l -0.187678,0.2667 c 0.291395,0.202495 0.7112,0.375356 1.180395,0.375356 z"
         id="path17" />
      <path
         style="font-size:4.93889px;font-family:'Source Code Pro';-inkscape-font-specification:'Source Code Pro, Normal';fill:#4063d8"
         d="m 49.581746,95.375562 0.22225,-0.207434 c -0.661811,-0.558094 -0.968022,-1.205089 -0.968022,-2.034822 0,-0.829734 0.306211,-1.476728 0.968022,-2.034823 l -0.22225,-0.207433 c -0.686505,0.5334 -1.11125,1.28905 -1.11125,2.242256 0,0.953205 0.424745,1.708856 1.11125,2.242256 z"
         id="path18" />
      <path
         style="font-size:4.93889px;font-family:'Source Code Pro';-inkscape-font-specification:'Source Code Pro, Normal'"
         d="m 51.127622,94.506317 h 0.404989 v -1.407584 c 0.286455,-0.498827 0.627239,-0.686505 0.987778,-0.686505 0.187678,0 0.276578,0.02469 0.4445,0.08396 l 0.09384,-0.350661 c -0.148167,-0.07408 -0.296334,-0.09878 -0.474134,-0.09878 -0.4445,0 -0.819855,0.242005 -1.071739,0.627239 h -0.01482 l -0.03457,-0.567972 h -0.335844 z m 3.812826,-2.138539 c 0.409928,0 0.681567,0.242005 0.716139,0.735894 h -1.531056 c 0.07408,-0.474133 0.419806,-0.735894 0.814917,-0.735894 z m 0.05927,2.197806 c 0.385233,0 0.691444,-0.128411 0.928511,-0.286456 l -0.148167,-0.2667 c -0.217311,0.138289 -0.4445,0.227189 -0.730956,0.227189 -0.498827,0 -0.884061,-0.276578 -0.93345,-0.819856 h 1.891595 c 0.0099,-0.0642 0.01976,-0.153105 0.01976,-0.246944 0,-0.676628 -0.404989,-1.126067 -1.096434,-1.126067 -0.642056,0 -1.224845,0.474133 -1.224845,1.254478 0,0.8001 0.572912,1.264356 1.29399,1.264356 z m 2.864555,0 c 0.686506,0 1.0668,-0.325967 1.0668,-0.716139 0,-0.365478 -0.192617,-0.567973 -0.992717,-0.740834 -0.48895,-0.103716 -0.696383,-0.192616 -0.696383,-0.40005 0,-0.182739 0.143228,-0.345722 0.553155,-0.345722 0.306212,0 0.582789,0.09878 0.805039,0.251883 l 0.197556,-0.261761 c -0.237067,-0.162983 -0.602545,-0.306211 -0.968022,-0.306211 -0.656873,0 -0.997656,0.296333 -0.997656,0.681567 0,0.360539 0.316089,0.572911 0.938389,0.701322 0.651933,0.13335 0.750711,0.261761 0.750711,0.4445 0,0.202495 -0.202494,0.375356 -0.607483,0.375356 -0.4445,0 -0.765528,-0.128411 -1.042106,-0.325967 l -0.187678,0.2667 c 0.291395,0.202495 0.7112,0.375356 1.180395,0.375356 z m 2.647248,0 c 0.370417,0 0.651933,-0.197556 0.893939,-0.479073 h 0.01976 l 0.03457,0.419806 h 0.330905 v -2.4003 h -0.404989 v 1.664405 c -0.2667,0.311151 -0.469194,0.444501 -0.745772,0.444501 -0.40005,0 -0.553156,-0.217312 -0.553156,-0.671689 v -1.437217 h -0.409928 v 1.491544 c 0,0.632178 0.261762,0.968023 0.834673,0.968023 z m 3.758498,0 c 0.261761,0 0.419806,-0.04939 0.642056,-0.143228 l -0.103717,-0.301272 c -0.162983,0.07408 -0.31115,0.108655 -0.449439,0.108655 -0.286456,0 -0.474133,-0.148166 -0.474133,-0.498828 v -2.741084 h -1.259417 v 0.330906 h 0.854428 v 2.380545 c 0,0.567972 0.281516,0.864306 0.790222,0.864306 z m 2.899128,0 c 0.301272,0 0.5334,-0.06421 0.750711,-0.143228 l -0.0889,-0.296333 c -0.172861,0.06421 -0.350661,0.108655 -0.57785,0.108655 -0.464256,0 -0.607484,-0.227189 -0.607484,-0.656872 v -1.140884 h 1.180395 V 92.106017 H 66.645621 V 91.33555 h -0.335844 l -0.05433,0.770467 -0.691445,0.02469 v 0.306211 h 0.676628 v 1.135945 c 0,0.592667 0.227189,0.992717 0.928512,0.992717 z"
         id="path19" />
      <path
         style="font-size:4.93889px;font-family:'Source Code Pro';-inkscape-font-specification:'Source Code Pro, Normal';fill:#4063d8"
         d="m 69.011356,95.375562 c 0.686506,-0.5334 1.111251,-1.289051 1.111251,-2.242256 0,-0.953206 -0.424745,-1.708856 -1.111251,-2.242256 l -0.22225,0.207433 c 0.661812,0.558095 0.968023,1.205089 0.968023,2.034823 0,0.829733 -0.306211,1.476728 -0.968023,2.034822 z"
         id="path20" />
      <path
         style="font-size:4.93889px;font-family:'Source Code Pro';-inkscape-font-specification:'Source Code Pro, Normal';fill:#4063d8"
         d="m 1.6003981,99.987778 c 0.4099278,0 0.6815668,0.242002 0.716139,0.735892 H 0.78548123 c 0.0740833,-0.47413 0.41980567,-0.735892 0.81491687,-0.735892 z m 0.059267,2.197802 c 0.3852334,0 0.6914446,-0.12841 0.9285113,-0.28645 l -0.1481667,-0.2667 c -0.2173112,0.13829 -0.4445001,0.22719 -0.7309557,0.22719 -0.4988279,0 -0.88406135,-0.27658 -0.93345025,-0.81986 H 2.6671983 c 0.00988,-0.0642 0.019756,-0.1531 0.019756,-0.24694 0,-0.67663 -0.404989,-1.12607 -1.0964336,-1.12607 -0.6420557,0 -1.22484471,0.47413 -1.22484471,1.25448 0,0.8001 0.57291123,1.26435 1.29398921,1.26435 z m 1.792819,-0.0593 h 0.404989 v -1.67429 c 0.2815167,-0.29139 0.4741334,-0.43462 0.7605891,-0.43462 0.3951112,0 0.5531556,0.21731 0.5531556,0.67169 v 1.43722 h 0.404989 v -1.49155 c 0,-0.63218 -0.2617612,-0.96802 -0.8297335,-0.96802 -0.3753556,0 -0.6519335,0.202495 -0.9038169,0.46919 H 3.8229006 L 3.7883283,99.726017 H 3.4524838 Z m 3.8424584,0.0593 c 0.2963334,0 0.5827891,-0.17286 0.7803447,-0.37535 h 0.014817 l 0.034572,0.31609 H 8.4605203 V 98.609828 H 8.0555313 V 99.5334 l 0.019756,0.4445 H 8.0604702 C 7.8530368,99.780345 7.6307868,99.66675 7.3443311,99.66675 c -0.5679723,0 -1.0914947,0.48401 -1.0914947,1.26436 0,0.8001 0.4148668,1.25447 1.0421058,1.25447 z m 0.083961,-0.34078 c -0.4445001,0 -0.7062613,-0.34572 -0.7062613,-0.91863 0,-0.54822 0.3358445,-0.91864 0.7507113,-0.91864 0.2074334,0 0.4148667,0.079 0.6321779,0.28152 v 1.19521 c -0.2123723,0.23707 -0.4395612,0.36054 -0.6766279,0.36054 z"
         id="path21" />
    </g>
    <rect
       style="opacity:0.2;fill:#202020;fill-rule:evenodd;stroke:none;stroke-width:0.499999;stroke-linecap:round;stroke-linejoin:round;stroke-dashoffset:1.51181;stroke-opacity:1"
       id="rect2156"
       width="5.2916665"
       height="29.104166"
       x="39.6875"
       y="105.83334"
       rx="0.66145831"
       ry="0.66145831" />
    <rect
       style="opacity:0.12;fill:#202020;fill-rule:evenodd;stroke:none;stroke-width:0.499999;stroke-linecap:round;stroke-linejoin:round;stroke-dashoffset:1.51181;stroke-opacity:1"
       id="rect2156-6"
       width="5.2916679"
       height="28.574993"
       x="47.625"
       y="105.83334"
       rx="0.66145831"
       ry="0.66145831" />
    <rect
       style="opacity:0.06;fill:#202020;fill-rule:evenodd;stroke:none;stroke-width:0.499999;stroke-linecap:round;stroke-linejoin:round;stroke-dashoffset:1.51181;stroke-opacity:1"
       id="rect2156-0"
       width="5.2916679"
       height="28.20314"
       x="55.5625"
       y="105.83334"
       rx="0.66145831"
       ry="0.66145831" />
    <rect
       style="opacity:0.02;fill:#202020;fill-rule:evenodd;stroke:none;stroke-width:0.499999;stroke-linecap:round;stroke-linejoin:round;stroke-dashoffset:1.51181;stroke-opacity:1"
       id="rect2156-62"
       width="5.2916641"
       height="27.252075"
       x="63.5"
       y="106.46619"
       rx="0.66145831"
       ry="0.66145831" />
    <rect
       style="opacity:0.05;fill:#202020;fill-rule:evenodd;stroke:none;stroke-width:0.499999;stroke-linecap:round;stroke-linejoin:round;stroke-dashoffset:1.51181;stroke-opacity:1"
       id="rect2156-61"
       width="5.2916718"
       height="26.440121"
       x="71.4375"
       y="106.67713"
       rx="0.66145831"
       ry="0.66145831" />
    <rect
       style="opacity:0.1;fill:#202020;fill-rule:evenodd;stroke:none;stroke-width:0.499999;stroke-linecap:round;stroke-linejoin:round;stroke-dashoffset:1.51181;stroke-opacity:1"
       id="rect2156-8"
       width="5.2916565"
       height="25.914558"
       x="79.375"
       y="106.90269"
       rx="0.66145831"
       ry="0.66145831" />
    <rect
       style="opacity:0.15;fill:#202020;fill-rule:evenodd;stroke:none;stroke-width:0.499999;stroke-linecap:round;stroke-linejoin:round;stroke-dashoffset:1.51181;stroke-opacity:1"
       id="rect2156-7"
       width="5.2916641"
       height="23.812496"
       x="87.3125"
       y="107.15625"
       rx="0.66145831"
       ry="0.66145831" />
    <rect
       style="fill:#61ac6b;fill-opacity:1;fill-rule:evenodd;stroke:#389826;stroke-width:0.600001;stroke-linecap:round;stroke-linejoin:round;stroke-dashoffset:1.51181"
       id="rect1616"
       width="5.2916665"
       height="11.90625"
       x="39.6875"
       y="105.83334"
       rx="0.66145831"
       ry="0.66145831" />
    <rect
       style="opacity:0.6;fill:#61ac6b;fill-opacity:1;fill-rule:evenodd;stroke:#389826;stroke-width:0.600001;stroke-linecap:round;stroke-linejoin:round;stroke-dashoffset:1.51181"
       id="rect1616-6"
       width="5.2916679"
       height="11.377075"
       x="47.625"
       y="106.04429"
       rx="0.66145831"
       ry="0.66145831" />
    <rect
       style="opacity:0.3;fill:#61ac6b;fill-opacity:1;fill-rule:evenodd;stroke:#389826;stroke-width:0.600001;stroke-linecap:round;stroke-linejoin:round;stroke-dashoffset:1.51181"
       id="rect1616-2"
       width="5.2916679"
       height="10.583326"
       x="55.5625"
       y="106.25524"
       rx="0.66145831"
       ry="0.66145831" />
    <rect
       style="opacity:0.3;fill:#61ac6b;fill-opacity:1;fill-rule:evenodd;stroke:#389826;stroke-width:0.600001;stroke-linecap:round;stroke-linejoin:round;stroke-dashoffset:1.51181"
       id="rect1616-8"
       width="5.2916641"
       height="9.2604246"
       x="71.4375"
       y="106.67713"
       rx="0.66145831"
       ry="0.66145831" />
    <rect
       style="opacity:0.6;fill:#61ac6b;fill-opacity:1;fill-rule:evenodd;stroke:#389826;stroke-width:0.600001;stroke-linecap:round;stroke-linejoin:round;stroke-dashoffset:1.51181"
       id="rect1616-6-4"
       width="5.2916641"
       height="8.7312498"
       x="79.374992"
       y="106.88809"
       rx="0.66145831"
       ry="0.66145831" />
    <rect
       style="fill:#61ac6b;fill-opacity:1;fill-rule:evenodd;stroke:#389826;stroke-width:0.600001;stroke-linecap:round;stroke-linejoin:round;stroke-dashoffset:1.51181"
       id="rect1616-2-7"
       width="5.2916641"
       height="7.9375081"
       x="87.312492"
       y="107.09903"
       rx="0.66145831"
       ry="0.66145831" />
    <rect
       style="fill:#a87ab5;fill-opacity:1;fill-rule:evenodd;stroke:#9558b2;stroke-width:0.600001;stroke-linecap:round;stroke-linejoin:round;stroke-dashoffset:1.51181"
       id="rect1616-24"
       width="5.2916665"
       height="11.90625"
       x="39.6875"
       y="123.16354"
       rx="0.66145831"
       ry="0.66145831" />
    <rect
       style="opacity:0.6;fill:#a87ab5;fill-opacity:1;fill-rule:evenodd;stroke:#9558b2;stroke-width:0.600001;stroke-linecap:round;stroke-linejoin:round;stroke-dashoffset:1.51181"
       id="rect1616-6-0"
       width="5.2916679"
       height="11.244781"
       x="47.625"
       y="123.37452"
       rx="0.66145831"
       ry="0.66145831" />
    <rect
       style="opacity:0.3;fill:#a87ab5;fill-opacity:1;fill-rule:evenodd;stroke:#9558b2;stroke-width:0.600001;stroke-linecap:round;stroke-linejoin:round;stroke-dashoffset:1.51181"
       id="rect1616-2-6"
       width="5.2916679"
       height="10.451042"
       x="55.5625"
       y="123.58544"
       rx="0.66145831"
       ry="0.66145831" />
    <rect
       style="opacity:0.1;fill:#61ac6b;fill-opacity:1;fill-rule:evenodd;stroke:#389826;stroke-width:0.600001;stroke-linecap:round;stroke-linejoin:round;stroke-dashoffset:1.51181"
       id="rect1616-2-0"
       width="5.2916641"
       height="10.054159"
       x="63.5"
       y="106.46619"
       rx="0.66145831"
       ry="0.66145831" />
    <rect
       style="opacity:0.1;fill:#a87ab5;fill-opacity:1;fill-rule:evenodd;stroke:#9558b2;stroke-width:0.600001;stroke-linecap:round;stroke-linejoin:round;stroke-dashoffset:1.51181"
       id="rect1616-2-6-8"
       width="5.2916641"
       height="9.921875"
       x="63.5"
       y="123.79639"
       rx="0.66145831"
       ry="0.66145831" />
    <rect
       style="opacity:0.3;fill:#a87ab5;fill-opacity:1;fill-rule:evenodd;stroke:#9558b2;stroke-width:0.600001;stroke-linecap:round;stroke-linejoin:round;stroke-dashoffset:1.51181"
       id="rect1616-8-2"
       width="5.2916641"
       height="9.1281261"
       x="71.4375"
       y="124.00734"
       rx="0.66145831"
       ry="0.66145831" />
    <rect
       style="opacity:0.6;fill:#a87ab5;fill-opacity:1;fill-rule:evenodd;stroke:#9558b2;stroke-width:0.600001;stroke-linecap:round;stroke-linejoin:round;stroke-dashoffset:1.51181"
       id="rect1616-6-4-9"
       width="5.2916641"
       height="8.598959"
       x="79.374992"
       y="124.21829"
       rx="0.66145831"
       ry="0.66145831" />
    <rect
       style="fill:#a87ab5;fill-opacity:1;fill-rule:evenodd;stroke:#9558b2;stroke-width:0.600001;stroke-linecap:round;stroke-linejoin:round;stroke-dashoffset:1.51181"
       id="rect1616-2-7-9"
       width="5.2916641"
       height="7.8052092"
       x="87.312492"
       y="124.42924"
       rx="0.66145831"
       ry="0.66145831" />
    <circle
       style="fill:#d5635b;fill-opacity:1;fill-rule:evenodd;stroke:#cb3c33;stroke-width:0.600001;stroke-linecap:round;stroke-linejoin:round;stroke-dashoffset:1.51181"
       id="path2065"
       cx="103.1875"
       cy="120.3854"
       r="3.9687293" />
    <path
       style="fill:none;stroke:#000000;stroke-width:0.265;stroke-linecap:butt;stroke-linejoin:miter;stroke-dasharray:none;stroke-opacity:1;marker-start:url(#marker2886);marker-mid:url(#marker3440);marker-end:url(#RoundedArrow)"
       d="m 27.78125,112.44792 h 38.364583 29.104165 c 6.614582,0 7.937502,-1e-5 7.937502,7.93749 0,7.9375 -1.46457,9.26041 -7.937502,9.26041 H 66.145833 27.78125"
       id="path2511"
       sodipodi:nodetypes="ccccccc" />
    <path
       d="m 93.927085,108.93212 h 0.461433 v -1.21073 h 0.02117 c 0.09313,0.25823 0.325966,0.41487 0.618066,0.41487 0.554566,0 0.876299,-0.42757 0.876299,-1.15147 0,-0.7239 -0.321733,-1.15146 -0.876299,-1.15146 -0.2921,0 -0.524933,0.1524 -0.618066,0.41486 h -0.02117 v -0.36406 h -0.461433 z m 0.960966,-1.1938 c -0.2794,0 -0.499533,-0.1524 -0.499533,-0.37676 v -0.75354 c 0,-0.22436 0.220133,-0.37676 0.499533,-0.37676 0.3175,0 0.529166,0.22436 0.529166,0.56303 v 0.381 c 0,0.33867 -0.211666,0.56303 -0.529166,0.56303 z m 2.006603,0.34714 v -1.40547 c 0,-0.2286 0.203199,-0.35137 0.567266,-0.35137 h 0.182033 v -0.44449 h -0.122767 c -0.351366,0 -0.541866,0.19896 -0.605366,0.42333 h -0.02117 v -0.42333 h -0.461433 v 2.20133 z m 2.002365,0.0508 c 0.410633,0 0.732366,-0.1778 0.897466,-0.4445 l -0.270933,-0.2667 c -0.127,0.2032 -0.309033,0.3302 -0.579966,0.3302 -0.372533,0 -0.579966,-0.2413 -0.579966,-0.57997 v -0.072 h 1.511299 v -0.17356 c 0,-0.6096 -0.3302,-1.09643 -0.9779,-1.09643 -0.626532,0 -1.011765,0.44873 -1.011765,1.15146 0,0.70273 0.385233,1.15147 1.011765,1.15147 z m 0,-1.9431 c 0.3048,0 0.491067,0.22436 0.491067,0.56303 v 0.0423 H 98.36362 v -0.0296 c 0,-0.33867 0.2159,-0.57573 0.533399,-0.57573 z"
       id="text3664"
       style="font-weight:500;font-size:4.23333px;line-height:1.25;font-family:'IBM Plex Sans';-inkscape-font-specification:'IBM Plex Sans, Medium';fill:#389826;stroke-width:0.264583"
       aria-label="pre" />
    <path
       d="m 19.229915,113.68193 v -0.37677 h -0.232833 v -1.10489 c 0,-0.49107 -0.3175,-0.77047 -0.884766,-0.77047 -0.427566,0 -0.685799,0.18203 -0.829733,0.42757 l 0.275167,0.24976 c 0.110066,-0.17356 0.2667,-0.30056 0.524933,-0.30056 0.309033,0 0.452966,0.15663 0.452966,0.42333 v 0.18626 h -0.397933 c -0.613833,0 -0.939799,0.22437 -0.939799,0.6604 0,0.39794 0.258233,0.65617 0.711199,0.65617 0.321733,0 0.5588,-0.14393 0.643466,-0.4191 h 0.02117 c 0.02963,0.2159 0.156633,0.3683 0.397933,0.3683 z m -1.189566,-0.30057 c -0.228599,0 -0.372533,-0.1016 -0.372533,-0.29633 v -0.0762 c 0,-0.1905 0.156634,-0.29633 0.478367,-0.29633 h 0.389466 v 0.3175 c 0,0.2159 -0.211667,0.35136 -0.4953,0.35136 z m 2.103964,0.30057 v -1.40546 c 0,-0.2286 0.2032,-0.35137 0.567267,-0.35137 h 0.182033 v -0.4445 h -0.122767 c -0.351366,0 -0.541866,0.19897 -0.605366,0.42333 h -0.02117 V 111.4806 H 19.68288 v 2.20133 z m 3.009899,0.20743 c 0,-0.381 -0.2286,-0.6096 -0.770466,-0.6096 H 21.84188 c -0.194733,0 -0.309033,-0.0466 -0.309033,-0.1651 0,-0.11006 0.1016,-0.18203 0.211666,-0.22013 0.08043,0.0212 0.182034,0.0339 0.287867,0.0339 0.558799,0 0.880532,-0.30057 0.880532,-0.74507 0,-0.254 -0.110066,-0.46566 -0.309033,-0.5969 v -0.0889 h 0.448733 V 111.125 h -0.338666 c -0.194733,0 -0.287867,0.11853 -0.287867,0.31327 v 0.0593 c -0.114299,-0.0466 -0.249766,-0.0677 -0.397933,-0.0677 -0.558799,0 -0.876299,0.3048 -0.876299,0.75353 0,0.29633 0.143933,0.52917 0.402166,0.65193 v 0.0169 c -0.211666,0.0508 -0.389466,0.16086 -0.389466,0.38946 0,0.1651 0.0889,0.28787 0.249767,0.33867 v 0.0466 c -0.232834,0.0508 -0.376767,0.18203 -0.376767,0.42333 0,0.33443 0.2794,0.52917 0.999066,0.52917 0.791633,0 1.117599,-0.23284 1.117599,-0.69004 z m -0.431799,0.0508 c 0,0.2032 -0.1778,0.3048 -0.537633,0.3048 h -0.287867 c -0.3429,0 -0.474133,-0.12276 -0.474133,-0.30056 0,-0.10584 0.0508,-0.19474 0.1524,-0.254 h 0.745066 c 0.300567,0 0.402167,0.0974 0.402167,0.24976 z m -0.690033,-1.3462 c -0.270933,0 -0.427567,-0.12276 -0.427567,-0.37253 v -0.0847 c 0,-0.24977 0.156634,-0.37254 0.427567,-0.37254 0.270933,0 0.427566,0.12277 0.427566,0.37254 v 0.0847 c 0,0.24977 -0.156633,0.37253 -0.427566,0.37253 z m 2.163234,1.13877 c 0.529166,0 0.872066,-0.28363 0.872066,-0.70697 0,-0.3556 -0.2159,-0.56726 -0.698499,-0.63923 l -0.2032,-0.0254 c -0.232833,-0.0381 -0.338667,-0.1143 -0.338667,-0.28363 0,-0.1651 0.118534,-0.27517 0.372533,-0.27517 0.237067,0 0.423333,0.1143 0.537633,0.24977 l 0.283633,-0.27093 c -0.198966,-0.22014 -0.423333,-0.35137 -0.821266,-0.35137 -0.482599,0 -0.817032,0.24977 -0.817032,0.67733 0,0.4064 0.275166,0.60113 0.723899,0.65617 l 0.2032,0.0254 c 0.2286,0.0296 0.313266,0.13546 0.313266,0.27516 0,0.18627 -0.135466,0.29634 -0.402166,0.29634 -0.262466,0 -0.461433,-0.11854 -0.622299,-0.31327 l -0.296334,0.27093 c 0.207434,0.25824 0.478367,0.41487 0.893233,0.41487 z"
       id="text3664-95"
       style="font-weight:500;font-size:4.23333px;line-height:1.25;font-family:'IBM Plex Sans';-inkscape-font-specification:'IBM Plex Sans, Medium';fill:#202020;stroke-width:0.264583"
       aria-label="args" />
    <path
       d="m 15.013516,130.91795 v -1.40546 c 0,-0.2286 0.2032,-0.35137 0.567267,-0.35137 h 0.182033 v -0.4445 h -0.122767 c -0.351366,0 -0.541866,0.19897 -0.605366,0.42333 h -0.02117 v -0.42333 h -0.461433 v 2.20133 z m 2.002366,0.0508 c 0.410633,0 0.732367,-0.1778 0.897466,-0.4445 l -0.270933,-0.2667 c -0.127,0.2032 -0.309033,0.3302 -0.579966,0.3302 -0.372533,0 -0.579966,-0.2413 -0.579966,-0.57996 v -0.072 h 1.511299 v -0.17357 c 0,-0.6096 -0.3302,-1.09643 -0.9779,-1.09643 -0.626532,0 -1.011765,0.44874 -1.011765,1.15147 0,0.70273 0.385233,1.15146 1.011765,1.15146 z m 0,-1.94309 c 0.3048,0 0.491067,0.22436 0.491067,0.56303 v 0.0423 h -1.024466 v -0.0296 c 0,-0.33867 0.2159,-0.57573 0.533399,-0.57573 z m 2.188631,1.94309 c 0.529166,0 0.872066,-0.28363 0.872066,-0.70696 0,-0.3556 -0.2159,-0.56727 -0.6985,-0.63924 l -0.203199,-0.0254 c -0.232834,-0.0381 -0.338667,-0.1143 -0.338667,-0.28363 0,-0.1651 0.118533,-0.27516 0.372533,-0.27516 0.237067,0 0.423333,0.11429 0.537633,0.24976 l 0.283633,-0.27093 c -0.198966,-0.22013 -0.423333,-0.35137 -0.821266,-0.35137 -0.482599,0 -0.817033,0.24977 -0.817033,0.67733 0,0.4064 0.275167,0.60114 0.7239,0.65617 l 0.2032,0.0254 c 0.2286,0.0296 0.313266,0.13547 0.313266,0.27517 0,0.18626 -0.135466,0.29633 -0.402166,0.29633 -0.262467,0 -0.461433,-0.11853 -0.6223,-0.31327 l -0.296333,0.27094 c 0.207433,0.25823 0.478366,0.41486 0.893233,0.41486 z m 2.726262,-0.0508 h 0.461433 v -2.20133 h -0.461433 v 1.4732 c 0,0.25823 -0.232833,0.381 -0.4699,0.381 -0.283633,0 -0.423332,-0.1778 -0.423332,-0.51223 v -1.34197 H 20.57611 v 1.40123 c 0,0.54187 0.266699,0.8509 0.719666,0.8509 0.364066,0 0.537633,-0.19896 0.618066,-0.41486 h 0.01693 z m 1.888065,0 v -0.37676 h -0.3048 v -2.7559 h -0.461433 v 2.67546 c 0,0.28364 0.156633,0.4572 0.4699,0.4572 z m 1.430868,0 v -0.37676 h -0.427566 v -1.4478 h 0.461433 v -0.37677 h -0.461433 v -0.60113 h -0.414867 v 0.38523 c 0,0.1524 -0.0508,0.2159 -0.203199,0.2159 h -0.186267 v 0.37677 h 0.3429 v 1.3462 c 0,0.30056 0.169333,0.47836 0.486833,0.47836 z"
       id="text3664-95-6"
       style="font-weight:500;font-size:4.23333px;line-height:1.25;font-family:'IBM Plex Sans';-inkscape-font-specification:'IBM Plex Sans, Medium';fill:#202020;stroke-width:0.264583"
       aria-label="result" />
    <path
       d="m 93.927085,135.39046 h 0.461433 v -1.21073 h 0.02117 c 0.09313,0.25823 0.325966,0.41486 0.618066,0.41486 0.554566,0 0.876299,-0.42756 0.876299,-1.15146 0,-0.7239 -0.321733,-1.15147 -0.876299,-1.15147 -0.2921,0 -0.524933,0.1524 -0.618066,0.41487 h -0.02117 v -0.36407 h -0.461433 z m 0.960966,-1.1938 c -0.2794,0 -0.499533,-0.1524 -0.499533,-0.37677 v -0.75353 c 0,-0.22437 0.220133,-0.37677 0.499533,-0.37677 0.3175,0 0.529166,0.22437 0.529166,0.56304 v 0.381 c 0,0.33866 -0.211666,0.56303 -0.529166,0.56303 z m 2.408769,0.39793 c 0.613833,0 1.011766,-0.44873 1.011766,-1.15146 0,-0.70274 -0.397933,-1.15147 -1.011766,-1.15147 -0.613833,0 -1.011766,0.44873 -1.011766,1.15147 0,0.70273 0.397933,1.15146 1.011766,1.15146 z m 0,-0.381 c -0.313267,0 -0.524933,-0.19473 -0.524933,-0.5842 v -0.37253 c 0,-0.38947 0.211666,-0.5842 0.524933,-0.5842 0.313266,0 0.524933,0.19473 0.524933,0.5842 v 0.37253 c 0,0.38947 -0.211667,0.5842 -0.524933,0.5842 z m 2.222495,0.381 c 0.529165,0 0.872065,-0.28363 0.872065,-0.70696 0,-0.3556 -0.2159,-0.56727 -0.698499,-0.63924 l -0.2032,-0.0254 c -0.232833,-0.0381 -0.338666,-0.1143 -0.338666,-0.28363 0,-0.1651 0.118533,-0.27517 0.372533,-0.27517 0.237066,0 0.423333,0.1143 0.537632,0.24977 l 0.28363,-0.27093 c -0.19896,-0.22014 -0.423329,-0.35137 -0.821262,-0.35137 -0.4826,0 -0.817033,0.24977 -0.817033,0.67733 0,0.4064 0.275167,0.60114 0.7239,0.65617 l 0.203199,0.0254 c 0.2286,0.0296 0.313267,0.13547 0.313267,0.27517 0,0.18626 -0.135467,0.29633 -0.402167,0.29633 -0.262466,0 -0.461432,-0.11853 -0.622299,-0.31327 l -0.296333,0.27094 c 0.207433,0.25823 0.478366,0.41486 0.893233,0.41486 z m 2.374895,-0.0508 v -0.37676 h -0.42757 v -1.4478 h 0.46144 v -0.37677 h -0.46144 v -0.60113 h -0.41486 v 0.38523 c 0,0.1524 -0.0508,0.2159 -0.2032,0.2159 h -0.18627 v 0.37677 h 0.3429 v 1.3462 c 0,0.30056 0.16933,0.47836 0.48683,0.47836 z"
       id="text3664-9"
       style="font-weight:500;font-size:4.23333px;line-height:1.25;font-family:'IBM Plex Sans';-inkscape-font-specification:'IBM Plex Sans, Medium';fill:#9558b2;stroke-width:0.264583"
       aria-label="post" />
    <path
       d="m 110.83926,119.87531 h 0.4318 l 0.072,-0.3683 h -0.42757 l 0.11007,-0.56303 h 0.4318 l 0.072,-0.3683 h -0.32596 c -0.3937,0 -0.5842,0.19897 -0.65194,0.5461 l -0.0762,0.38523 h -0.33443 l -0.072,0.3683 h 0.3302 l -0.46566,2.3114 h -0.39794 l -0.072,0.3683 h 0.29633 c 0.3937,0 0.5842,-0.19897 0.65193,-0.5461 z"
       id="text3664-9-3"
       style="font-style:italic;font-weight:500;font-size:4.23333px;line-height:1.25;font-family:'IBM Plex Sans';-inkscape-font-specification:'IBM Plex Sans, Medium Italic';fill:#cb3c33;stroke-width:0.264583"
       aria-label="f" />
    <path
       style="fill:none;stroke:#a87ab5;stroke-width:0.465;stroke-linecap:butt;stroke-linejoin:miter;stroke-dasharray:none;stroke-opacity:1;marker-start:url(#marker2886-3);marker-end:url(#RoundedArrow)"
       d="m 11.90625,96.57292 c 2.939668,5.88895 5.291667,5.45618 14.552083,7.9375 11.90625,4.11092 4.286301,10.31444 10.583334,17.19792"
       id="path4044"
       sodipodi:nodetypes="ccc" />
    <path
       style="fill:none;stroke:#d5635b;stroke-width:0.465;stroke-linecap:butt;stroke-linejoin:miter;stroke-dasharray:none;stroke-opacity:1;marker-start:url(#marker2886-3-9);marker-end:url(#RoundedArrow-2-1)"
       d="m 42.333333,88.63542 c 4.96655,4.966547 71.437497,-9.429171 71.437497,13.22917 0,6.61458 0,7.9375 -3.96875,11.90625"
       id="path4044-0-0"
       sodipodi:nodetypes="ccc" />
    <path
       style="fill:none;stroke:#61ac6b;stroke-width:0.465;stroke-linecap:butt;stroke-linejoin:miter;stroke-dasharray:none;stroke-opacity:1;marker-start:url(#marker2886-3);marker-end:url(#RoundedArrow-2)"
       d="m 65.471355,80.655733 c 4.96655,4.966549 11.257812,2.68802 11.257812,10.62552 0,6.027094 -5.291667,7.606769 -10.583334,7.9375 -15.874999,0.933817 -18.520833,0 -21.166666,3.968747"
       id="path4044-0"
       sodipodi:nodetypes="cccc" />
    <path
       style="font-weight:600;font-size:4.23333px;line-height:1.25;font-family:'Source Code Pro';-inkscape-font-specification:'Source Code Pro, Semi-Bold';fill:#ffffff;stroke-width:0.264583"
       d="m 41.920583,110.33126 c 0.2794,0 0.5588,-0.1397 0.778933,-0.30904 h 0.0127 l 0.0381,0.25824 h 0.397933 v -1.2319 c 0,-0.57997 -0.3175,-0.89747 -0.893233,-0.89747 -0.355599,0 -0.698499,0.1397 -0.948266,0.28787 l 0.1778,0.32596 c 0.2159,-0.11853 0.448733,-0.22013 0.681566,-0.22013 0.338667,0 0.478367,0.17357 0.4953,0.4064 -1.024466,0.072 -1.435099,0.3048 -1.435099,0.77047 0,0.36406 0.287867,0.6096 0.694266,0.6096 z m 0.148167,-0.381 c -0.207433,0 -0.372533,-0.0804 -0.372533,-0.2667 0,-0.22437 0.220133,-0.37677 0.965199,-0.42757 v 0.44027 c -0.1905,0.1524 -0.385233,0.254 -0.592666,0.254 z"
       id="text6414"
       aria-label="a" />
    <path
       style="font-weight:600;font-size:4.23333px;line-height:1.25;font-family:'Source Code Pro';-inkscape-font-specification:'Source Code Pro, Semi-Bold';fill:#ffffff;stroke-width:0.264583"
       d="m 41.920583,127.79376 c 0.2794,0 0.5588,-0.1397 0.778933,-0.30904 h 0.0127 l 0.0381,0.25824 h 0.397933 v -1.2319 c 0,-0.57997 -0.3175,-0.89747 -0.893233,-0.89747 -0.355599,0 -0.698499,0.1397 -0.948266,0.28787 l 0.1778,0.32597 c 0.2159,-0.11854 0.448733,-0.22014 0.681566,-0.22014 0.338667,0 0.478367,0.17357 0.4953,0.4064 -1.024466,0.072 -1.435099,0.3048 -1.435099,0.77047 0,0.36406 0.287867,0.6096 0.694266,0.6096 z m 0.148167,-0.381 c -0.207433,0 -0.372533,-0.0804 -0.372533,-0.2667 0,-0.22437 0.220133,-0.37677 0.965199,-0.42757 v 0.44027 c -0.1905,0.1524 -0.385233,0.254 -0.592666,0.254 z"
       id="text6414-7"
       aria-label="a" />
    <path
       style="font-weight:600;font-size:4.23333px;line-height:1.25;font-family:'Source Code Pro';-inkscape-font-specification:'Source Code Pro, Semi-Bold';fill:#ffffff;stroke-width:0.264583"
       d="m 50.234848,110.59584 c 0.478367,0 0.922866,-0.41064 0.922866,-1.12607 0,-0.63923 -0.313266,-1.0541 -0.850899,-1.0541 -0.224366,0 -0.461433,0.10583 -0.634999,0.27517 h -0.0127 l 0.02117,-0.36407 v -0.77046 h -0.491066 v 2.98873 h 0.385233 l 0.04233,-0.2286 h 0.0127 c 0.182033,0.1778 0.410633,0.2794 0.605366,0.2794 z m -0.09737,-0.40217 c -0.131233,0 -0.3048,-0.0508 -0.4572,-0.1905 v -0.93557 c 0.169333,-0.17356 0.334433,-0.24976 0.491067,-0.24976 0.338666,0 0.482599,0.24553 0.482599,0.6604 0,0.4699 -0.224366,0.71543 -0.516466,0.71543 z"
       id="text6414-9"
       aria-label="b" />
    <path
       style="font-weight:600;font-size:4.23333px;line-height:1.25;font-family:'Source Code Pro';-inkscape-font-specification:'Source Code Pro, Semi-Bold';fill:#ffffff;stroke-width:0.264583"
       d="m 50.234848,128.05834 c 0.478367,0 0.922866,-0.41064 0.922866,-1.12607 0,-0.63923 -0.313266,-1.0541 -0.850899,-1.0541 -0.224366,0 -0.461433,0.10584 -0.634999,0.27517 h -0.0127 l 0.02117,-0.36407 v -0.77046 h -0.491066 v 2.98873 h 0.385233 l 0.04233,-0.2286 h 0.0127 c 0.182033,0.1778 0.410633,0.2794 0.605366,0.2794 z m -0.09737,-0.40217 c -0.131233,0 -0.3048,-0.0508 -0.4572,-0.1905 v -0.93556 c 0.169333,-0.17357 0.334433,-0.24977 0.491067,-0.24977 0.338666,0 0.482599,0.24553 0.482599,0.6604 0,0.4699 -0.224366,0.71543 -0.516466,0.71543 z"
       id="text6414-7-1"
       aria-label="b" />
    <path
       style="font-weight:600;font-size:4.23333px;line-height:1.25;font-family:'Source Code Pro';-inkscape-font-specification:'Source Code Pro, Semi-Bold';fill:#ffffff;stroke-width:0.264583"
       d="m 72.870487,110.54504 h 0.512233 l 0.270933,-0.4064 c 0.0762,-0.13124 0.148166,-0.24977 0.224366,-0.37254 h 0.01693 c 0.08467,0.11854 0.173567,0.254 0.254,0.3683 l 0.300567,0.41064 h 0.529166 l -0.757766,-1.0287 0.706966,-1.04987 h -0.512233 l -0.245533,0.38947 c -0.0635,0.1143 -0.1397,0.2413 -0.2032,0.35983 h -0.01693 c -0.0762,-0.11853 -0.160867,-0.2413 -0.2286,-0.3556 l -0.270933,-0.3937 h -0.529166 l 0.702732,0.99907 z"
       id="text6414-9-0"
       aria-label="x" />
    <path
       style="font-weight:600;font-size:4.23333px;line-height:1.25;font-family:'Source Code Pro';-inkscape-font-specification:'Source Code Pro, Semi-Bold';fill:#ffffff;stroke-width:0.264583"
       d="m 72.870487,128.00754 h 0.512233 l 0.270933,-0.4064 c 0.0762,-0.13124 0.148166,-0.24977 0.224366,-0.37253 h 0.01693 c 0.08467,0.11853 0.173567,0.25399 0.254,0.36829 l 0.300567,0.41064 h 0.529166 l -0.757766,-1.0287 0.706966,-1.04987 h -0.512233 l -0.245533,0.38947 c -0.0635,0.1143 -0.1397,0.2413 -0.2032,0.35983 h -0.01693 c -0.0762,-0.11853 -0.160867,-0.2413 -0.2286,-0.3556 l -0.270933,-0.3937 h -0.529166 l 0.702732,0.99907 z"
       id="text6414-7-1-5"
       aria-label="x" />
    <path
       style="font-weight:600;font-size:4.23333px;line-height:1.25;font-family:'Source Code Pro';-inkscape-font-specification:'Source Code Pro, Semi-Bold';fill:#ffffff;stroke-width:0.264583"
       d="m 81.172053,111.40017 c 0.499533,0 0.749299,-0.2921 0.927099,-0.762 l 0.867833,-2.1717 h -0.461433 l -0.376767,1.02023 c -0.06773,0.19474 -0.143933,0.41064 -0.207433,0.6096 h -0.01693 c -0.0762,-0.20743 -0.1524,-0.42333 -0.2286,-0.6096 l -0.427566,-1.02023 H 80.76142 l 0.931333,2.05317 -0.0508,0.13123 c -0.08467,0.20743 -0.237067,0.3556 -0.499533,0.3556 -0.05927,0 -0.118534,-0.0127 -0.173567,-0.0296 l -0.09313,0.381 c 0.08043,0.0254 0.186266,0.0423 0.296333,0.0423 z"
       id="text6414-9-0-7"
       aria-label="y" />
    <path
       style="font-weight:600;font-size:4.23333px;line-height:1.25;font-family:'Source Code Pro';-inkscape-font-specification:'Source Code Pro, Semi-Bold';fill:#ffffff;stroke-width:0.264583"
       d="m 81.172053,128.86267 c 0.499533,0 0.749299,-0.2921 0.927099,-0.762 l 0.867833,-2.1717 h -0.461433 l -0.376767,1.02024 c -0.06773,0.19473 -0.143933,0.41063 -0.207433,0.60959 h -0.01693 c -0.0762,-0.20743 -0.1524,-0.42333 -0.2286,-0.60959 l -0.427566,-1.02024 H 80.76142 l 0.931333,2.05317 -0.0508,0.13123 c -0.08467,0.20743 -0.237067,0.3556 -0.499533,0.3556 -0.05927,0 -0.118534,-0.0127 -0.173567,-0.0296 l -0.09313,0.381 c 0.08043,0.0254 0.186266,0.0423 0.296333,0.0423 z"
       id="text6414-7-1-5-3"
       aria-label="y" />
    <path
       style="font-weight:600;font-size:4.23333px;line-height:1.25;font-family:'Source Code Pro';-inkscape-font-specification:'Source Code Pro, Semi-Bold';fill:#ffffff;stroke-width:0.264583"
       d="m 88.830153,110.54504 h 1.968499 v -0.38947 h -1.286933 l 1.253066,-1.43087 v -0.25823 h -1.794932 v 0.38523 h 1.109132 l -1.248832,1.43087 z"
       id="text6414-9-0-2"
       aria-label="z" />
    <path
       style="font-weight:600;font-size:4.23333px;line-height:1.25;font-family:'Source Code Pro';-inkscape-font-specification:'Source Code Pro, Semi-Bold';fill:#ffffff;stroke-width:0.264583"
       d="m 88.830153,128.00754 h 1.968499 v -0.38947 h -1.286933 l 1.253066,-1.43086 v -0.25824 h -1.794932 v 0.38524 h 1.109132 l -1.248832,1.43086 z"
       id="text6414-7-1-5-6"
       aria-label="z" />
    <path
       style="font-weight:600;font-size:4.23333px;line-height:1.25;font-family:'Source Code Pro';-inkscape-font-specification:'Source Code Pro, Semi-Bold';fill:#ffffff;stroke-width:0.264583"
       d="m 58.235848,110.59584 c 0.296334,0 0.601133,-0.10584 0.842433,-0.31327 l -0.2032,-0.31327 c -0.160866,0.12277 -0.355599,0.2286 -0.592666,0.2286 -0.410633,0 -0.690033,-0.27516 -0.690033,-0.69003 0,-0.4191 0.287867,-0.69427 0.702733,-0.69427 0.186267,0 0.351366,0.0677 0.512233,0.19897 l 0.232833,-0.3048 c -0.173566,-0.1651 -0.436033,-0.2921 -0.770466,-0.2921 -0.634999,0 -1.181099,0.39793 -1.181099,1.0922 0,0.69003 0.4953,1.08797 1.147232,1.08797 z"
       id="text6414-9-7"
       aria-label="c" />
    <path
       style="font-weight:600;font-size:4.23333px;line-height:1.25;font-family:'Source Code Pro';-inkscape-font-specification:'Source Code Pro, Semi-Bold';fill:#ffffff;stroke-width:0.264583"
       d="m 58.235848,128.05834 c 0.296334,0 0.601133,-0.10584 0.842433,-0.31327 l -0.2032,-0.31327 c -0.160866,0.12277 -0.355599,0.2286 -0.592666,0.2286 -0.410633,0 -0.690033,-0.27516 -0.690033,-0.69003 0,-0.4191 0.287867,-0.69426 0.702733,-0.69426 0.186267,0 0.351366,0.0677 0.512233,0.19896 l 0.232833,-0.3048 c -0.173566,-0.1651 -0.436033,-0.2921 -0.770466,-0.2921 -0.634999,0 -1.181099,0.39794 -1.181099,1.0922 0,0.69003 0.4953,1.08797 1.147232,1.08797 z"
       id="text6414-7-1-0"
       aria-label="c" />
  </g>
</svg>
