<svg width="121.976" height="92.417" viewBox="0 0 32.273 24.452" xmlns="http://www.w3.org/2000/svg">
	<defs>
		<marker style="overflow:visible" id="c" refX="0" refY="0" orient="auto-start-reverse" markerWidth="6.135" markerHeight="5.93" viewBox="0 0 6.135 5.93" preserveAspectRatio="xMidYMid">
			<path transform="scale(.7)" d="M-.211-4.106 6.21-.894a1 1 90 0 1 0 1.788L-.21 4.106A1.236 1.236 31.717 0 1-2 3v-6A1.236 1.236 148.283 0 1-.211-4.106z" style="fill:#cb3c33;fill-rule:evenodd;stroke:none"/>
		</marker>
		<marker style="overflow:visible" id="d" refX="0" refY="0" orient="auto-start-reverse" markerWidth="6.135" markerHeight="5.93" viewBox="0 0 6.135 5.93" preserveAspectRatio="xMidYMid">
			<path transform="scale(.7)" d="M-.211-4.106 6.21-.894a1 1 90 0 1 0 1.788L-.21 4.106A1.236 1.236 31.717 0 1-2 3v-6A1.236 1.236 148.283 0 1-.211-4.106z" style="fill:#389826;fill-rule:evenodd;stroke:none"/>
		</marker>
		<marker style="overflow:visible" id="a" refX="0" refY="0" orient="auto-start-reverse" markerWidth="6.135" markerHeight="5.93" viewBox="0 0 6.135 5.93" preserveAspectRatio="xMidYMid">
			<path transform="scale(.7)" d="M-.211-4.106 6.21-.894a1 1 90 0 1 0 1.788L-.21 4.106A1.236 1.236 31.717 0 1-2 3v-6A1.236 1.236 148.283 0 1-.211-4.106z" style="fill:#4063d8;fill-rule:evenodd;stroke:none"/>
		</marker>
		<marker style="overflow:visible" id="b" refX="0" refY="0" orient="auto-start-reverse" markerWidth="6.135" markerHeight="5.93" viewBox="0 0 6.135 5.93" preserveAspectRatio="xMidYMid">
			<path transform="scale(.7)" d="M-.211-4.106 6.21-.894a1 1 90 0 1 0 1.788L-.21 4.106A1.236 1.236 31.717 0 1-2 3v-6A1.236 1.236 148.283 0 1-.211-4.106z" style="fill:#4063d8;fill-rule:evenodd;stroke:none"/>
		</marker>
	</defs>
	<path style="fill:none;stroke:#4063d8;stroke-width:.415266;stroke-linecap:round;stroke-linejoin:miter;stroke-dasharray:none;stroke-opacity:1;marker-end:url(#a)" d="m51.928 163.529 9.782.028" transform="translate(-39.635 -159.581)"/>
	<g transform="matrix(.69211 0 0 .69211 -15.165 -102.548)">
		<ellipse style="fill:#d2e6ff;stroke:#1969cc;stroke-width:.937196;stroke-linecap:round;stroke-linejoin:round;stroke-dasharray:none" cx="33.256" cy="153.871" rx="5.226" ry="5.235"/>
		<path style="fill:#1969cc;stroke:none;stroke-width:.937196;stroke-linecap:round;stroke-linejoin:round;stroke-dasharray:none" d="M32.138 151.113s-1.296.614-1.857 2.35c-.391 1.208-.022 1.995.826 2.551a.5.5 0 0 1 .23.416v2.21a5.226 5.235 0 0 0 1.92.367 5.226 5.235 0 0 0 1.375-.188v-1.54a.5.5 0 0 1 .327-.463l.027-.012.043-.018a1.254 1.254 0 0 0 .108-.052l.064-.035c.013-.008.027-.015.04-.024.033-.02.064-.04.096-.063l.047-.036.045-.035a1.854 1.854 0 0 0 .265-.27l.045-.055a2.199 2.199 0 0 0 .138-.207l.003-.006a2.527 2.527 0 0 0 .074-.133l.032-.065.032-.07.027-.059.042-.105.019-.048a4.816 4.816 0 0 0 .104-.32c.015-.054.03-.106.043-.159.013-.052.024-.104.035-.156.011-.051.022-.101.03-.152.019-.1.032-.198.043-.294.004-.047.01-.094.013-.14v-.001l.009-.137.004-.134a4.273 4.273 0 0 0-.033-.602 4.259 4.259 0 0 0-.113-.562 3.47 3.47 0 0 0-.043-.143c-.072-.22-.137-.341-.137-.341l-.403-.13-.498 1.537-.004.012-.004.01-.02.057a1.639 1.639 0 0 1-.192.36 1.542 1.542 0 0 1-.152.184v.002a1.638 1.638 0 0 1-1.587.456c-.034-.01-.067-.018-.1-.03v.001l-.032-.01a1.627 1.627 0 0 1-.734-.486 1.758 1.758 0 0 1-.05-.06v-.001a1.639 1.639 0 0 1-.169-.264 1.626 1.626 0 0 1-.174-.602v-.001l-.005-.08a1.65 1.65 0 0 1 .078-.565l.498-1.538z"/>
	</g>
	<g transform="matrix(.69211 0 0 .69211 -27.596 -102.548)">
		<ellipse style="fill:#d3bdda;stroke:#9259a3;stroke-width:.937196;stroke-linecap:round;stroke-linejoin:round;stroke-dasharray:none" cx="80.807" cy="153.871" rx="5.226" ry="5.235"/>
		<path style="fill:#9259a3;stroke:none;stroke-width:.937196;stroke-linecap:round;stroke-linejoin:round;stroke-dasharray:none" d="M80.807 148.636a5.226 5.235 0 0 0-1.571.243v1.847a.685.685 0 0 1-.273.555 3.299 3.299 0 0 0-1.342 2.583h.004a3.194 3.194 0 0 0 2.817 3.355 3.189 3.189 0 0 0 3.546-3.355h.005a3.303 3.303 0 0 0-1.274-2.533.873.873 0 0 1-.34-.69v-1.763a5.226 5.235 0 0 0-1.572-.242zm-1.086 3.226h2.172c.07 0 .134.037.169.097l1.086 1.881a.195.195 0 0 1 0 .195l-1.086 1.882a.194.194 0 0 1-.169.097h-2.172a.194.194 0 0 1-.169-.097l-1.086-1.882a.195.195 0 0 1 0-.195l1.086-1.88a.195.195 0 0 1 .169-.098z"/>
	</g>
	<g transform="matrix(.69211 0 0 .69211 -21.215 -107.796)">
		<ellipse style="fill:#f4d8d6;stroke:#a23028;stroke-width:1.02033;stroke-linecap:round;stroke-linejoin:round;stroke-dasharray:none" cx="36.852" cy="184.869" rx="5.69" ry="5.699"/>
		<path style="fill:#a23028;stroke:none;stroke-width:1.02033;stroke-linecap:round;stroke-linejoin:round;stroke-dasharray:none" d="M36.852 181.83h-.881v1.798c0 .009 0 .018.002.027v.004l.003.016a.409.409 0 0 0 .031.11l.267.58c.059.129.09.269.09.41v2.442h-1.297a.595.595 0 0 0-.594.594v.48c0 .329.266.595.594.595h.083c-.07.413-.121.87-.158 1.365a5.69 5.7 0 0 0 1.86.318 5.69 5.7 0 0 0 1.86-.318 14.709 14.709 0 0 0-.157-1.365h.082a.595.595 0 0 0 .595-.595v-.48a.595.595 0 0 0-.595-.594H37.3v-2.421a.907.907 0 0 1 .015-.173.981.981 0 0 1 .092-.272l.284-.56a.403.403 0 0 0 .045-.169V181.83z"/>
	</g>
	<g transform="matrix(.69211 0 0 .69211 -25.185 -106.326)">
		<ellipse style="fill:#d7eada;stroke:#2e7938;stroke-width:.937196;stroke-linecap:round;stroke-linejoin:round;stroke-dasharray:none" cx="62.481" cy="175.891" rx="5.226" ry="5.235"/>
		<path style="fill:#2e7938;stroke:none;stroke-width:.937196;stroke-linecap:round;stroke-linejoin:round;stroke-dasharray:none" d="M62.324 173.493c-1.807.034-3.248.656-3.248 1.42 0 .527.688.987 1.71 1.233.003 0 .006 0 .01.002.36.087.533.323.533.543v.814c0 .15.036.297.104.43l.167.253-.218 1.643a.12.12 0 0 0 .06.119c-.027.106-.059.24-.096.394a1.723 1.723 0 0 0-.122-.008.092.092 0 0 0-.094.07c-.042.18-.097.4-.157.636a5.226 5.235 0 0 0 1.064.203l.138-.595a.09.09 0 0 0-.047-.102 1.254 1.254 0 0 0-.116-.049l.128-.534a.122.122 0 0 0 .089-.052l.252-.384.078.12.174.264a.12.12 0 0 0 .1.053h.001l.128.533a1.278 1.278 0 0 0-.116.05.09.09 0 0 0-.047.101l.138.594A5.226 5.235 0 0 0 64 181.04c-.06-.235-.114-.454-.157-.633a.092.092 0 0 0-.093-.07c-.04.001-.081.005-.123.008a91.31 91.31 0 0 0-.096-.4.12.12 0 0 0 .049-.113l-.192-1.443-.026-.2.166-.253a.94.94 0 0 0 .105-.43v-.814c0-.22.173-.456.533-.543 1.027-.245 1.72-.707 1.72-1.236 0-.763-1.441-1.386-3.249-1.42-.052.035-.155.1-.155.1v.035l.037.052.028.037.03.039.032.044a5.257 5.257 0 0 0 .18.22l.018.019c.884.04 1.605.243 1.862.51l.015.017.013.016.013.016a.357.357 0 0 1 .02.032l.01.017.007.016c.005.011.01.023.013.034l.004.017.005.034v.024a.239.239 0 0 1-.006.05l-.002.007-.003.009c0 .004-.002.007-.004.01a.023.023 0 0 1-.003.008.29.29 0 0 1-.018.038l-.002.004-.007.012-.008.013a.46.46 0 0 1-.056.067l-.03.029-.016.013a.015.015 0 0 0-.004.004c-.001 0-.003 0-.003.003a.906.906 0 0 1-.177.112l-.05.025-.004.002-.024.011-.044.02-.052.02-.015.007a2.845 2.845 0 0 1-.363.112l-.056.014-.028.006c-.131.03-.274.056-.423.076h-.001a5.16 5.16 0 0 1-.196.023c-.008.001-.016 0-.024.002a6.795 6.795 0 0 1-.66.031h-.181a6.309 6.309 0 0 1-.921-.087h-.002a4.729 4.729 0 0 1-.2-.04c-.007 0-.014-.003-.022-.004l-.023-.005-.032-.007-.089-.023-.039-.01-.021-.006-.02-.006a2.941 2.941 0 0 1-.155-.05l-.04-.015-.028-.01a2.103 2.103 0 0 1-.11-.047l-.025-.011a.016.016 0 0 1-.004-.002c-.01-.004-.018-.01-.027-.014a1.289 1.289 0 0 1-.16-.093.82.82 0 0 1-.11-.095l-.005-.006a.42.42 0 0 1-.041-.055l-.008-.014-.003-.004a.302.302 0 0 1-.014-.029c0-.003-.002-.006-.003-.008l-.004-.008-.003-.01a.04.04 0 0 0-.003-.01l-.003-.006-.003-.018v-.002l-.002-.012a.17.17 0 0 1 0-.006l-.001-.018v-.017l.005-.034.005-.017c.004-.012.007-.023.012-.034l.008-.017a.196.196 0 0 1 .009-.016l.01-.016.011-.016a.37.37 0 0 1 .013-.017l.013-.016.015-.015.015-.016c.119-.115.323-.217.588-.298.048-.015.098-.03.15-.043a5.137 5.137 0 0 1 .903-.142c.068-.005.136-.009.206-.012l.019-.02a3.911 3.911 0 0 0 .178-.219l.034-.044.016-.021.04-.055.038-.05V173.596s-.103-.065-.155-.1z"/>
	</g>
	<path style="fill:none;stroke:#4063d8;stroke-width:.415266;stroke-linecap:round;stroke-linejoin:miter;stroke-dasharray:none;stroke-opacity:1;marker-end:url(#b)" d="m50.11 167.174 3.064 3.412" transform="translate(-39.635 -159.581)"/>
	<path style="fill:none;stroke:#cb3c33;stroke-width:.415266;stroke-linecap:round;stroke-linejoin:miter;stroke-dasharray:none;stroke-opacity:1;marker-end:url(#c)" d="m48.55 178.129 3.175-1.127" transform="translate(-39.635 -159.581)"/>
	<path style="fill:none;stroke:#389826;stroke-width:.415266;stroke-linecap:round;stroke-linejoin:miter;stroke-dasharray:none;stroke-opacity:1;marker-end:url(#d)" d="m60.816 171.807 3.041-3.489" transform="translate(-39.635 -159.581)"/>
</svg>
